<?xml version="1.0" ?>
<!-- Uploaded to: SVG Repo, www.svgrepo.com, Generator: SVG Repo Mixer Tools -->
<svg width="800px" height="800px" viewBox="0 0 117 117" version="1.1" xmlns="http://www.w3.org/2000/svg" xmlns:xlink="http://www.w3.org/1999/xlink">
<title/>
<desc/>
<defs/>
<g fill="none" fill-rule="evenodd" id="Page-1" stroke="none" stroke-width="1">
<g fill-rule="nonzero" id="right-arrow">
<path d="M58.5,116.6 C90.5,116.6 116.6,90.6 116.6,58.5 C116.6,26.4 90.5,0.4 58.5,0.4 C26.5,0.4 0.4,26.5 0.4,58.5 C0.4,90.5 26.5,116.6 58.5,116.6 Z M58.5,8.6 C86,8.6 108.4,31 108.4,58.5 C108.4,86 86,108.4 58.5,108.4 C31,108.4 8.6,86 8.6,58.5 C8.6,31 31,8.6 58.5,8.6 Z" fill="#4A4A4A" id="Shape"/>
<path d="M45.1,87.5 C45.9,88.3 46.9,88.7 48,88.7 C49,88.7 50.1,88.3 50.9,87.5 L77.3,61.1 C78.1,60.3 78.5,59.3 78.5,58.2 C78.5,57.1 78.1,56.1 77.3,55.3 L50.9,28.9 C49.3,27.3 46.7,27.3 45.1,28.9 C43.5,30.5 43.5,33.1 45.1,34.7 L68.6,58.2 L45.1,81.7 C43.5,83.3 43.5,85.9 45.1,87.5 Z" fill="#17AB13" id="Shape"/>
</g>
</g>
</svg>