<svg width="125" height="46" viewBox="0 0 125 46" fill="none" xmlns="http://www.w3.org/2000/svg">
<path d="M16.6156 34.5486C17.968 34.131 19.3203 33.7375 20.6647 33.2958C23.1322 32.4927 25.4968 33.5689 26.1927 35.8336C26.857 38.018 25.7499 39.6483 22.8949 40.3469C19.2412 41.2384 15.5243 41.8889 11.8785 42.8124C9.92514 43.3103 8.1141 44.4106 6.15282 44.772C4.66603 45.053 2.70477 45.1012 1.59759 44.3222C0.656487 43.6637 0.229424 41.6319 0.300598 40.2425C0.474586 36.6286 1.02819 33.0228 1.47897 29.4249C1.5976 28.4612 1.63713 27.3208 2.16699 26.6141C2.94202 25.5701 4.12828 24.8473 5.13264 23.98C6.05793 25.3051 7.65543 26.5659 7.78197 27.9713C8.03503 30.758 7.47353 33.617 7.24418 36.6206C9.11057 36.6848 10.2652 36.5242 9.91722 34.2756C9.61671 32.3 10.455 30.7339 12.1237 29.5213C20.7597 23.2331 28.9923 16.2623 38.0949 10.7852C44.4532 6.96249 51.9188 4.89853 59.0522 2.56154C62.7533 1.34887 66.8103 0.730492 70.7012 0.754585C77.9453 0.802769 84.0744 3.22811 86.1859 11.4999C92.1567 10.2551 97.9062 9.05052 103.663 7.86998C108.994 6.77777 114.332 5.91846 119.662 7.91816C119.836 7.98241 120.073 7.91815 120.232 8.00649C122.122 9.12278 124.913 10.0544 124.17 12.7287C123.363 15.6198 120.643 14.7765 118.492 14.1341C112.45 12.3191 106.605 14.0457 100.729 15.1138C96.8464 15.8206 93.0109 16.8485 89.112 17.4348C87.0637 17.74 86.3124 18.7037 86.1226 20.6231C85.1262 30.75 79.2502 37.6726 71.3814 43.1015C67.8305 45.551 63.5679 45.9123 59.4001 45.7035C55.2008 45.5028 52.9706 41.5275 53.5716 37.3675C55.2324 25.8431 63.9237 21.0808 72.6467 16.3024C75.0746 14.9693 77.7002 14.0056 80.2783 12.8572C79.5507 9.45206 77.7951 7.65314 74.5843 7.18734C67.6802 6.18348 61.0925 7.50055 54.6551 9.84557C46.6201 12.7688 38.7829 16.1579 31.9421 21.4663C26.6672 25.554 21.5505 29.8506 16.3705 34.0507C16.4575 34.2113 16.5445 34.3719 16.6315 34.5326L16.6156 34.5486ZM80.5077 20.3821C72.8444 22.0686 58.72 30.9026 59.9458 40.1944C67.783 42.2985 79.9778 30.1878 80.5077 20.3821Z" fill="#87FF7E"/>
</svg>
