<?xml version="1.0" encoding="UTF-8"?>
<svg xmlns="http://www.w3.org/2000/svg" width="85" height="98" viewBox="0 0 85 98" fill="none">
  <path d="M66.3531 4.75351C66.381 4.9668 66.4649 5.1871 66.5836 5.36892C66.7827 5.66964 67.1111 5.83398 67.4464 5.68363C67.6665 5.58222 67.9075 5.34445 67.9703 5.12066C68.0446 4.8628 68.0504 4.58384 68.0563 4.30498C68.0586 4.19056 68.061 4.07617 68.0681 3.96326H68.0402C68.0402 3.85782 68.0474 3.75066 68.0546 3.64372C68.0704 3.41022 68.0861 3.17774 68.0262 2.9667C67.8621 2.38975 67.6595 1.8058 67.3661 1.2848C67.1041 0.819737 66.3356 0.956108 66.1505 1.46313C66.0772 1.66593 66.0283 1.90021 66.0492 2.11351C66.133 2.99817 66.2343 3.87934 66.3531 4.7605V4.75351Z" fill="#078715FF"></path>
  <path d="M35.9749 17.9955C36.4043 18.0338 36.8423 18.0035 37.2771 17.9735C37.3976 17.9652 37.5178 17.9568 37.6376 17.95C39.5805 17.8446 41.5201 17.7326 43.4628 17.6204L43.628 17.6108C43.628 17.6423 43.628 17.6703 43.6315 17.7018C44.0949 17.7018 44.5583 17.7021 45.0217 17.7025C45.9485 17.7033 46.8753 17.7041 47.8021 17.7018L47.8454 17.7018C48.1636 17.7019 48.4902 17.7021 48.7976 17.6318C49.1434 17.5549 49.4438 17.2787 49.3914 16.929C49.3495 16.6423 49.1364 16.2996 48.8919 16.1492C48.6343 15.9889 48.2586 15.9849 47.9311 15.9814L47.9278 15.9814C43.869 15.9604 39.8102 15.9744 35.7619 16.338C35.6536 16.3485 35.5418 16.366 35.4335 16.394C34.9166 16.5199 34.7 17.2297 35.1017 17.5794C35.3392 17.7857 35.6676 17.9675 35.968 17.9955H35.9749Z" fill="#078715FF"></path>
  <path fill-rule="evenodd" clip-rule="evenodd" d="M51.1314 52.2459C51.3524 52.2433 51.5735 52.2406 51.7945 52.2525V52.2455C53.0869 52.3119 53.9078 53.0182 53.9916 54.305C54.0439 55.1345 53.9898 55.9737 53.9359 56.8085L53.9358 56.8102L53.9357 56.8117C53.9249 56.9787 53.9142 57.1456 53.9043 57.3122C53.8774 57.7744 53.8246 58.2351 53.7718 58.6963C53.7423 58.9538 53.7127 59.2115 53.6877 59.4696C53.6786 59.5575 53.68 59.6455 53.6814 59.7334C53.6826 59.8133 53.6839 59.8932 53.6772 59.9731C53.5236 61.662 52.7481 62.3963 51.075 62.3369C50.5876 62.3206 50.1026 62.2542 49.6179 62.1878C49.2724 62.1405 48.927 62.0933 48.581 62.0641C46.6005 61.8998 46.597 62.267 46.6704 63.8265C46.7053 64.5538 46.7123 65.2811 46.6983 66.0049C46.6913 66.393 46.632 66.7812 46.5621 67.1658C46.2407 68.9176 45.2872 69.4247 43.9319 69.3582C42.9929 69.3119 42.0502 69.3214 41.1074 69.3309C40.486 69.3372 39.8646 69.3435 39.2444 69.3338C37.8716 69.3093 37.2045 68.7988 36.8866 67.4386C36.7312 66.7759 36.6778 66.0848 36.6247 65.3985L36.6246 65.3977C36.6133 65.2512 36.602 65.1051 36.5897 64.9594C36.5642 64.6543 36.5708 64.3462 36.5775 64.0339C36.59 63.4478 36.6028 62.8465 36.4046 62.2215C36.2889 62.2024 36.1721 62.1782 36.0545 62.1539C35.8064 62.1025 35.5543 62.0503 35.3008 62.0432C34.8687 62.0304 34.4352 62.0329 34.0015 62.0355C33.4852 62.0385 32.9685 62.0415 32.4541 62.0187C30.7879 61.9453 30.0509 61.3054 29.5654 59.7458C29.1338 58.3523 29.1863 56.9401 29.2388 55.5302C29.2505 55.2172 29.2621 54.9043 29.2685 54.5917C29.2894 53.6896 29.8483 53.0007 30.6831 52.6756C31.2944 52.4378 31.972 52.3154 32.6287 52.2629C33.2038 52.2168 33.7813 52.2109 34.3584 52.2051C34.7871 52.2007 35.2159 52.1964 35.6431 52.1755C36.4709 52.1336 36.7155 51.8329 36.6875 51.0041C36.6782 50.7069 36.6627 50.4097 36.6471 50.1125C36.6161 49.518 36.5851 48.9236 36.6037 48.3292C36.6631 46.3326 37.6446 45.336 39.6076 45.2836C41.2807 45.2416 42.9574 45.2451 44.634 45.2696C45.8635 45.2871 46.4818 45.7486 46.8345 46.934C46.9882 47.4585 47.0197 48.0285 47.0441 48.5809C47.0612 48.9917 47.0591 49.4024 47.0569 49.8127C47.0547 50.2407 47.0524 50.6684 47.0721 51.095C47.1035 51.8259 47.3585 52.0846 48.1095 52.1441C48.7775 52.1972 49.4477 52.2146 50.1184 52.2319L50.1193 52.2319C50.2864 52.2363 50.4537 52.2406 50.6209 52.2455C50.791 52.25 50.9613 52.248 51.1314 52.2459ZM51.9731 59.1134C51.9858 58.7655 51.9985 58.4187 52.0914 58.0919L52.081 58.0954C52.3368 57.1804 52.3161 56.2586 52.2955 55.3367L52.294 55.2701C52.2731 54.2421 52.0635 54.0462 50.9877 53.9623C50.7223 53.9419 50.4559 53.9382 50.189 53.9346C49.9537 53.9314 49.7179 53.9281 49.4822 53.9134C49.3461 53.9048 49.2099 53.8967 49.0736 53.8886C48.4301 53.8502 47.7859 53.8117 47.1489 53.7281C45.35 53.4938 45.3186 53.4413 45.3011 51.6615C45.2976 51.2711 45.298 50.8803 45.2984 50.4893C45.2992 49.7074 45.3 48.9248 45.2697 48.1438C45.2418 47.4445 44.9029 47.0704 44.2428 47.0529C42.7373 47.0109 41.2284 46.9899 39.7264 47.0634C38.6645 47.1158 38.413 47.469 38.3746 48.5774C38.3647 48.8528 38.3847 49.1299 38.4046 49.4063C38.4128 49.5195 38.4209 49.6326 38.427 49.7453C38.4405 49.9801 38.4573 50.2144 38.4741 50.4486L38.4742 50.4495C38.5094 50.9404 38.5445 51.4304 38.5493 51.9203C38.5597 53.2455 38.1056 53.7665 36.8098 53.8749C36.3445 53.9127 35.8755 53.9127 35.4057 53.9127C35.0925 53.9127 34.779 53.9127 34.466 53.9239C34.3142 53.9293 34.1622 53.9338 34.01 53.9384L34.0095 53.9384C33.3809 53.9571 32.7505 53.9758 32.1292 54.0602C31.3677 54.1651 31.0359 54.5253 31.0045 55.2876C30.9626 56.2317 31.0045 57.1828 31.0464 58.1304C31.0574 58.3885 31.1308 58.6446 31.2042 58.9001C31.2242 58.9699 31.2442 59.0397 31.263 59.1095C31.4586 59.8403 31.9092 60.2669 32.6916 60.2808C33.0828 60.2878 33.474 60.2913 33.8652 60.2913C34.199 60.2925 34.5331 60.2909 34.8675 60.2894H34.8684C35.5381 60.2863 36.2089 60.2832 36.8796 60.3018C37.8018 60.3263 38.2244 60.69 38.2908 61.6026C38.3282 62.1355 38.3268 62.6718 38.3253 63.2083C38.3241 63.6222 38.3229 64.0362 38.3397 64.4489C38.3676 65.1692 38.42 65.8965 38.5353 66.6098C38.661 67.3791 38.8776 67.5994 39.6216 67.6274C40.9559 67.6763 42.2972 67.6763 43.6315 67.6379C44.4733 67.6169 44.8645 67.2427 44.9274 66.407C44.9688 65.8653 44.9592 65.3185 44.9497 64.7725C44.9455 64.5361 44.9414 64.2998 44.9414 64.0643H44.9588C44.9588 63.845 44.9556 63.6255 44.9524 63.4058C44.945 62.9002 44.9376 62.3939 44.9693 61.8893C45.0322 60.9242 45.626 60.3193 46.5656 60.3123C47.1971 60.3073 47.8305 60.3591 48.463 60.4107C48.719 60.4316 48.9752 60.4525 49.2307 60.4697C49.4396 60.484 49.6484 60.5045 49.8572 60.5249C50.2593 60.5643 50.6609 60.6036 51.061 60.599C51.5745 60.592 51.8679 60.2738 51.9308 59.7528C51.9574 59.5423 51.9652 59.3276 51.9731 59.1134Z" fill="#078715FF"></path>
  <path d="M32.751 44.308C32.9781 44.1576 33.2296 43.9758 33.3413 43.745C33.4461 43.5282 33.4741 43.1821 33.3693 42.9827C33.261 42.7799 32.9676 42.6191 32.7231 42.5562C32.5345 42.5072 32.2795 42.5946 32.0944 42.696C31.7066 42.9093 31.3259 43.1436 30.9731 43.4128C28.6957 45.1717 27.3719 47.6054 26.2646 50.1789C26.1633 50.4132 26.1319 50.7664 26.2367 50.9797C26.3237 51.1587 26.4976 51.2975 26.6821 51.4448C26.7643 51.5104 26.8486 51.5777 26.9283 51.651C27.0284 51.5881 27.1282 51.536 27.222 51.487C27.4096 51.3891 27.5733 51.3037 27.6688 51.1685C27.8679 50.8861 28.0123 50.5642 28.1557 50.2445C28.1934 50.1605 28.2311 50.0765 28.2696 49.9936C29.307 47.7382 30.6203 45.7067 32.751 44.308Z" fill="#078715FF"></path>
  <path d="M25.4786 56.2212C25.517 55.7771 25.8279 55.4939 26.2261 55.5359C26.6138 55.5743 26.8723 55.9135 26.8443 56.3471C26.8164 56.7772 26.495 57.0674 26.0968 57.0289C25.7056 56.9905 25.4402 56.6443 25.4786 56.2212Z" fill="#078715FF"></path>
  <path fill-rule="evenodd" clip-rule="evenodd" d="M63.6119 53.6987C63.6893 54.0331 63.7668 54.3685 63.7859 54.7071L63.7789 54.7106C63.8137 55.3038 63.806 55.9005 63.7987 56.4653C63.7957 56.6928 63.7929 56.9154 63.7929 57.1303C64.0933 61.683 62.3712 65.5084 59.9401 69.0785C56.8838 73.5682 52.6818 76.4076 47.362 77.5405C45.7308 77.8901 44.0821 78.1909 42.3985 78.0999C37.7564 77.8517 33.3797 76.8027 29.5549 73.9774C25.4088 70.9108 22.6598 66.8896 21.2696 61.9418C20.6793 59.8403 20.3405 57.6828 20.5361 55.4974C20.819 52.3539 21.6923 49.3782 23.3235 46.6403C25.4263 43.1121 28.1403 40.2274 31.8079 38.3077C34.0539 37.1328 36.443 36.5069 38.951 36.1083C40.7978 35.8155 42.609 35.9741 44.4113 36.1319C44.869 36.172 45.3262 36.2121 45.7832 36.2446C48.4064 36.43 50.8899 37.3741 53.1778 38.7168C58.7875 42.0107 62.2525 46.8361 63.5099 53.2315C63.5399 53.3872 63.5759 53.5428 63.6119 53.6987ZM51.9133 74.1032C54.5156 72.6976 56.6393 70.7464 58.3404 68.3407H58.3369C60.7051 64.9874 62.2699 61.3508 62.1232 56.8751C62.0782 56.5066 62.0588 56.1011 62.0382 55.6721C62.0029 54.9367 61.9644 54.1319 61.7879 53.3259C60.6981 48.3711 58.1972 44.3674 54.1104 41.3533C51.5326 39.4511 48.602 38.3951 45.4758 37.951C43.5547 37.6783 41.5916 37.7307 39.6321 37.8426C37.2953 37.9755 35.1227 38.5594 33.0653 39.6084C29.038 41.6575 26.1214 44.8185 24.1548 48.8397C22.8659 51.4762 22.1499 54.2875 22.2547 57.2492C22.3385 59.613 22.8904 61.8893 23.8125 64.0643C27.0749 71.7779 35.1891 76.8691 43.9319 76.3236C44.2358 76.3044 44.538 76.2476 44.8401 76.1908C45.1423 76.1339 45.4444 76.0771 45.7483 76.0579C47.9733 75.925 49.9852 75.1453 51.9133 74.1032Z" fill="#078715FF"></path>
  <path d="M14.9298 59.9452C14.9892 59.4487 14.9997 58.9451 14.9927 58.4451C14.9715 57.3287 14.9458 56.2123 14.9202 55.0958C14.874 53.0863 14.8278 51.0765 14.8076 49.067C14.7857 46.9311 14.7909 44.7936 14.7961 42.6567C14.7983 41.722 14.8006 40.7875 14.8006 39.8532H14.6224C14.6504 38.3436 14.6776 36.8336 14.7049 35.3234L14.705 35.3176L14.705 35.317C14.7592 32.3065 14.8135 29.2955 14.8739 26.2861C14.897 25.1813 14.9313 24.0778 14.9656 22.974C14.9886 22.2368 15.0115 21.4992 15.0311 20.7613C15.0381 20.541 15.0381 20.3103 14.9822 20.1005C14.8914 19.7543 14.6504 19.4955 14.2871 19.4711C13.9273 19.4466 13.592 19.6459 13.5187 19.9921C13.3685 20.6949 13.2497 21.4152 13.2113 22.1355C13.1768 22.7786 13.1717 23.4228 13.1667 24.0668C13.1626 24.5959 13.1584 25.1249 13.1379 25.6532C13.1098 26.3665 13.0677 27.0798 13.0256 27.7933C12.9526 29.0314 12.8795 30.2701 12.8795 31.5101C12.8795 37.2062 12.9388 42.9023 13.0052 48.595C13.0335 51.1044 13.0884 53.6139 13.1432 56.1234C13.1628 57.0197 13.1824 57.916 13.2008 58.8123C13.2078 59.2004 13.2218 59.5955 13.2916 59.9732C13.3685 60.3963 13.7143 60.641 14.1299 60.648C14.5456 60.655 14.8774 60.4032 14.9298 59.9522V59.9452Z" fill="#078715FF"></path>
  <path d="M13.938 67.5365C13.9624 67.1518 14.3187 66.8301 14.7064 66.8511L14.7029 66.8476C15.1046 66.8721 15.4644 67.2078 15.4644 67.5609C15.4679 68.019 15.0767 68.3582 14.5946 68.3197C14.2104 68.2918 13.9135 67.9351 13.938 67.5365Z" fill="#078715FF"></path>
  <path fill-rule="evenodd" clip-rule="evenodd" d="M73.059 94.151L73.0551 94.151C72.9623 94.1504 72.8695 94.1498 72.7767 94.1498L72.7836 94.1358C71.6042 94.1379 70.4247 94.1401 69.2451 94.1423H69.2332C64.4951 94.1513 59.7557 94.1602 55.0185 94.1602C46.2693 94.1582 37.5213 94.1523 28.7731 94.1464H28.759C22.9305 94.1425 17.1019 94.1386 11.2727 94.1358C11.2168 94.1358 11.1609 94.1362 11.105 94.1366C10.9374 94.138 10.7697 94.1393 10.6021 94.1288C9.55768 94.0589 9.08962 93.6113 9.05469 92.5588C9.03743 92.0451 9.01997 91.5316 9.00251 91.0181L9.00243 91.0157C8.89274 87.7894 8.78312 84.565 8.72286 81.3379C8.6959 79.9154 8.70328 78.4913 8.71066 77.0675C8.7224 74.8024 8.73413 72.5379 8.60759 70.2814C8.34505 65.5884 8.34612 60.8925 8.34718 56.1966C8.34779 53.5204 8.3484 50.8441 8.30021 48.1684C8.2717 46.5969 8.2263 45.0253 8.18089 43.4536L8.18088 43.4529C8.11506 41.1746 8.04922 38.8954 8.03475 36.6153C7.99646 30.7358 7.99361 24.8582 7.99077 18.9797V18.9791C7.98972 16.8134 7.98867 14.6473 7.98585 12.4812C7.98585 12.4161 7.98527 12.3507 7.98469 12.2852C7.98178 11.9567 7.97884 11.6252 8.04872 11.3133C8.24433 10.4391 8.69841 9.76427 9.66596 9.6209C9.87171 9.59136 10.0777 9.55813 10.2838 9.52489L10.2844 9.52479C10.9072 9.42432 11.5311 9.32369 12.1529 9.32369C16.7615 9.32128 21.3717 9.33706 25.9813 9.35284H25.9819L25.9838 9.35285C28.0779 9.36001 30.1718 9.36718 32.2654 9.37264C32.8052 9.37491 33.3451 9.36538 33.9022 9.35555C34.2029 9.35024 34.5088 9.34485 34.8222 9.34117C34.8752 9.20037 34.9279 9.06833 34.9784 8.94166C35.0809 8.68459 35.1747 8.44949 35.2449 8.20824C36.3032 4.61365 39.8521 2.89678 42.4473 2.97021C43.9249 3.01217 45.1614 3.53318 46.2581 4.46329C47.3864 5.42488 48.2002 6.60676 48.7102 8.00544C48.8423 8.36531 48.9931 8.72005 49.1485 9.08524L49.1493 9.08705C49.2155 9.24287 49.2826 9.40061 49.3494 9.56146C49.5251 9.57319 49.6914 9.58727 49.8513 9.60082C50.1681 9.62766 50.4599 9.65238 50.7501 9.65238C53.3733 9.65937 56 9.65937 58.6267 9.64888C58.7334 9.64888 58.8402 9.64926 58.947 9.64963C59.5673 9.65183 60.189 9.65402 60.8028 9.58244C63.6299 9.2542 66.4638 9.281 69.2986 9.30781C70.5406 9.31956 71.7828 9.33131 73.0247 9.3132C73.1923 9.3097 73.3635 9.3097 73.5276 9.33068C74.9528 9.50551 75.6968 10.3552 75.7072 11.8098C75.7072 11.9217 75.7003 12.0336 75.6863 12.1455C75.3765 14.3307 75.3797 16.5257 75.3829 18.7224C75.3835 19.1514 75.3841 19.5805 75.3824 20.0096C75.3795 20.3848 75.352 20.76 75.3247 21.1331C75.3194 21.205 75.3141 21.2771 75.3091 21.3488C75.2855 21.6713 75.2558 21.9934 75.2261 22.3155C75.1634 22.9955 75.1007 23.6749 75.096 24.3559C75.0688 29.6577 75.0564 34.9595 75.044 40.2612C75.0405 41.7745 75.037 43.2878 75.0331 44.8011C75.4859 50.8103 75.4375 56.8255 75.3891 62.8398V62.8424C75.3625 66.1537 75.3358 69.4648 75.3929 72.7745C75.4362 75.3152 75.4954 77.8546 75.5546 80.3943L75.5546 80.3962C75.5956 82.1551 75.6366 83.9142 75.6723 85.6738L75.6781 85.9581L75.6781 85.9589C75.7148 87.7626 75.7514 89.5663 75.7282 91.3699C75.7216 91.9388 75.5525 92.5139 75.3893 93.0687L75.3614 93.1637C75.1903 93.7581 74.7257 94.0728 74.118 94.1253C73.765 94.1556 73.412 94.1533 73.059 94.151ZM31.1965 11.1769C30.2639 11.1804 29.9845 11.4252 29.9705 12.3518L29.9775 12.3448C29.9495 14.1911 29.9286 16.0338 29.9775 17.8766C30.0071 18.9795 30.1358 20.0763 30.2644 21.1727L30.2884 21.3768C30.3652 22.0341 30.6202 22.2544 31.2454 22.3383C31.4664 22.3664 31.6897 22.3764 31.9133 22.3865C31.969 22.389 32.0246 22.3915 32.0802 22.3943C32.8343 22.4344 33.5884 22.476 34.3425 22.5177C36.1521 22.6175 37.9621 22.7174 39.7717 22.7964C40.0486 22.8083 40.3256 22.8211 40.6028 22.8339L40.6036 22.8339C42.1126 22.9035 43.6253 22.9733 45.1299 22.9083C47.3549 22.8104 49.5799 22.5796 51.7945 22.3139C53.045 22.1635 53.265 21.8208 53.3488 20.5585C53.3572 20.4243 53.3567 20.29 53.3561 20.1557L53.3559 20.1096L53.3558 20.055C53.3558 19.3686 53.3564 18.6822 53.357 17.9958C53.3584 16.28 53.3598 14.5642 53.3523 12.8483C53.3523 12.5843 53.3211 12.3219 53.2924 12.0815C53.2793 11.9717 53.2668 11.8665 53.258 11.7679C52.8412 11.345 52.3818 11.3617 51.9355 11.378C51.8245 11.382 51.7144 11.386 51.6059 11.3832C51.2621 11.3732 50.9173 11.3755 50.5722 11.3779C50.0791 11.3813 49.5855 11.3847 49.0944 11.3518C47.9941 11.2783 47.6344 10.9322 47.3759 9.87966C47.3402 9.73474 47.308 9.5878 47.2757 9.44054C47.1882 9.04072 47.1001 8.63813 46.9393 8.26769C46.1673 6.49137 44.9867 5.13466 42.9573 4.81296C40.4109 4.41434 37.7074 6.15219 36.9739 8.62435C36.8481 9.05095 36.7294 9.48453 36.642 9.92162C36.5023 10.6314 36.0133 10.9566 35.3776 11.093C35.0004 11.1734 34.6022 11.2014 34.2144 11.2014C33.7115 11.2032 33.2085 11.1962 32.7055 11.1892C32.2025 11.1822 31.6995 11.1752 31.1965 11.1769ZM17.2137 92.4029C20.5763 92.3862 23.9383 92.3696 27.3019 92.3769V92.3839C29.7796 92.3903 32.2567 92.4102 34.7337 92.4301C37.7319 92.4542 40.7301 92.4784 43.7293 92.4784C50.4716 92.4809 57.2157 92.4655 63.9591 92.4502L63.9672 92.4502H63.971C66.6666 92.444 69.362 92.4379 72.0571 92.4329C72.1465 92.4315 72.2359 92.4323 72.3253 92.4332C72.4594 92.4344 72.5936 92.4357 72.7278 92.4294C73.7442 92.3874 73.9538 92.1706 74.0027 91.1042C74.0167 90.7685 74.0097 90.4328 74.0027 90.0971C73.9901 89.3263 73.9813 88.5555 73.9725 87.7849C73.952 85.9859 73.9314 84.1871 73.863 82.3904C73.6696 77.3538 73.6769 72.3155 73.6842 67.2767V67.2761C73.6876 64.9409 73.6909 62.6056 73.6743 60.2704C73.6659 59.0662 73.6688 57.862 73.6718 56.6579V56.6574C73.6797 53.3932 73.6877 50.1294 73.4683 46.8676C73.3083 44.4793 73.2777 42.081 73.2471 39.689L73.2447 39.5001C73.2133 36.7062 73.2133 33.9124 73.2447 31.1185C73.2727 28.496 73.346 25.87 73.4263 23.2475C73.4711 21.7272 73.5427 20.2092 73.6143 18.6917C73.6321 18.3139 73.65 17.9361 73.6674 17.5584C73.7372 16.0548 73.8141 14.5477 73.8944 13.0442C73.9003 12.9271 73.915 12.8095 73.9297 12.6917C73.9497 12.5316 73.9698 12.3711 73.9678 12.2119C73.9538 11.4392 73.6219 11.093 72.8535 11.0441C72.6672 11.0324 72.4809 11.0363 72.2946 11.0402C72.2015 11.0421 72.1083 11.0441 72.0152 11.0441C71.3445 11.0441 70.6739 11.0429 70.0033 11.0417C68.662 11.0394 67.3207 11.0371 65.9794 11.0441L65.976 11.0441C64.8069 11.0511 63.631 11.0581 62.462 11.107C61.3126 11.1551 60.162 11.2169 59.0116 11.2787L59.0103 11.2788C58.3222 11.3157 57.634 11.3527 56.9466 11.3867C56.8224 11.3914 56.6982 11.3905 56.574 11.3897C56.4188 11.3886 56.2635 11.3875 56.1083 11.3972C55.3608 11.4462 55.1582 11.656 55.1093 12.4497C55.0883 12.7827 55.091 13.1177 55.0936 13.4532L55.0936 13.4547C55.0945 13.5661 55.0953 13.6775 55.0953 13.789C55.0944 14.4294 55.0925 15.0698 55.0905 15.7102C55.0852 17.472 55.0799 19.2338 55.0953 20.9956C55.1093 22.4712 54.3304 23.7965 52.4267 24.0692C51.6662 24.1798 50.9029 24.2263 50.1412 24.2726C49.458 24.3142 48.7761 24.3557 48.0989 24.4434C46.0401 24.7101 43.9836 24.709 41.9255 24.7079C41.529 24.7076 41.1325 24.7074 40.7358 24.7091C40.3253 24.7091 39.9147 24.6788 39.5061 24.6487C39.4141 24.6419 39.3221 24.6351 39.2303 24.6287C38.6471 24.5885 38.0638 24.5456 37.4805 24.5028C36.8972 24.46 36.3138 24.4171 35.7304 24.3769C35.0993 24.3338 34.4679 24.2938 33.8364 24.2538C32.5736 24.1737 31.3105 24.0937 30.0508 23.9888C29.23 23.9223 28.6956 23.4293 28.5908 22.6146C28.4196 21.2893 28.2555 19.9536 28.217 18.6214C28.1814 17.3505 28.1873 16.077 28.1931 14.8033V14.8021C28.1971 13.9526 28.201 13.103 28.1926 12.2539C28.1821 11.2364 28.0005 11.0755 27.0364 11.0371C26.9619 11.0324 26.8874 11.034 26.8129 11.0355C26.7756 11.0363 26.7384 11.0371 26.7011 11.0371H12.7887C11.8351 11.0371 10.906 11.1664 10.0502 11.4637C9.65677 11.9368 9.68075 12.4467 9.70401 12.9413C9.70946 13.0571 9.71486 13.172 9.71486 13.2854C9.70438 16.8625 9.6974 20.4362 9.71486 24.0133C9.73931 28.9296 9.77424 33.8459 9.83711 38.7623C9.85504 40.221 9.89427 41.6805 9.9335 43.14C9.97833 44.8082 10.0232 46.4766 10.0362 48.1439C10.0508 50.0921 10.0549 52.0405 10.059 53.9891C10.0708 59.5247 10.0825 65.0615 10.3331 70.5961C10.4302 72.7176 10.4202 74.8456 10.4101 76.9737C10.4035 78.3671 10.3969 79.7607 10.4204 81.1526C10.4601 83.5284 10.5384 85.9024 10.6167 88.2772C10.6488 89.2507 10.6809 90.2247 10.7104 91.1986C10.7111 91.2209 10.7116 91.2433 10.7122 91.2657C10.7144 91.3552 10.7166 91.4447 10.7278 91.5342C10.7942 92.1147 11.0003 92.3525 11.5452 92.3979C11.9084 92.4263 12.2717 92.4247 12.635 92.4231C12.7188 92.4228 12.8026 92.4224 12.8865 92.4224C14.2919 92.4173 15.6971 92.4103 17.1021 92.4034L17.2137 92.4029Z" fill="#078715FF"></path>
  <path fill-rule="evenodd" clip-rule="evenodd" d="M1.00001 65.5713C1.0035 64.1797 2.16666 62.781 3.35426 62.7425L3.35077 62.746C4.6257 62.7041 6.00192 64.0118 6.0124 65.2706C6.02637 66.7497 4.83178 68.0015 3.41713 68.0015C2.02694 67.998 0.996516 66.963 1.00001 65.5713ZM2.75696 65.365C2.71854 65.7706 3.03291 66.1448 3.42063 66.1553C3.79437 66.1658 4.16812 65.8161 4.19257 65.435C4.21702 65.0468 3.89217 64.6727 3.50446 64.6412C3.1342 64.6132 2.79888 64.9349 2.75696 65.365Z" fill="#078715FF"></path>
  <path d="M79.0082 40.6155C79.2664 40.8024 79.5397 40.9687 79.7814 41.1157C79.8697 41.1694 79.954 41.2207 80.0316 41.2694C80.0531 41.3339 80.072 41.3818 80.0867 41.4192C80.1103 41.4792 80.1232 41.512 80.1189 41.5421C80.101 41.6612 80.078 41.7797 80.0549 41.8984C80.015 42.1038 79.975 42.3093 79.9617 42.5177C79.9338 42.8988 79.9059 43.294 79.9722 43.6681C80.0665 44.1821 80.8385 44.3849 81.1598 43.9723C81.352 43.7311 81.4806 43.4356 81.6076 43.1439L81.6297 43.093C81.6499 43.0467 81.6702 43.0005 81.6908 42.9548C81.7953 42.7241 81.8869 42.4869 81.9755 42.2575C82.0171 42.1498 82.0582 42.0435 82.0994 41.9407C82.2793 41.9267 82.4491 41.9182 82.6114 41.91C82.9345 41.8937 83.2281 41.8789 83.5141 41.8254C83.9542 41.7414 84.1638 41.0666 83.8494 40.7519C83.6388 40.5434 83.3987 40.3629 83.1312 40.1619L83.1307 40.1615C83.0081 40.0693 82.8795 39.9727 82.7456 39.8672C82.7456 39.7359 82.7471 39.6011 82.7486 39.4638V39.4625C82.7522 39.1253 82.756 38.773 82.7386 38.4231C82.7212 38.0629 82.5221 37.7902 82.1728 37.6783C81.8025 37.5594 81.5126 37.7482 81.3205 38.035C81.132 38.3167 80.9676 38.6139 80.8019 38.9134L80.8013 38.9144C80.7308 39.0419 80.6599 39.17 80.587 39.2973C80.4268 39.2866 80.2794 39.2759 80.1401 39.2658L80.1394 39.2657L80.1381 39.2656C79.9135 39.2494 79.7099 39.2346 79.5077 39.2238C79.0745 39.1993 78.7252 39.3637 78.5925 39.7833C78.4737 40.1539 78.7322 40.4197 79.0047 40.6155H79.0082Z" fill="#078715FF"></path>
  <path d="M9.26513 7.62143C9.19455 7.76705 9.13027 7.89966 9.03033 7.99494V7.99145C8.87664 8.13831 8.66007 8.23971 8.45399 8.29566C7.56678 8.54392 7.08824 9.18382 6.73895 9.97756C6.56081 10.3832 6.3652 10.7853 6.13117 11.1559C5.86222 11.5825 5.44656 11.7364 5.15664 11.5651C4.79687 11.3518 4.60825 11.0301 4.61873 10.6035C4.61873 10.5475 4.61873 10.4881 4.63619 10.4391C5.22999 8.84464 6.00194 7.38302 7.71348 6.73963C8.03833 6.61725 8.47844 6.67669 8.82075 6.78509C8.96922 6.83064 9.07993 6.99452 9.19903 7.17082C9.25365 7.25168 9.31004 7.33514 9.37264 7.411C9.33256 7.48233 9.29815 7.5533 9.26513 7.62143Z" fill="#078715FF"></path>
  <path d="M71.0722 5.6941C70.9045 6.07174 70.3945 6.16965 70.0557 6.0053H70.0592C69.7064 5.83396 69.5597 5.49478 69.6505 5.17309C69.9055 4.26745 70.2059 3.3723 70.5447 2.49463C70.6635 2.18342 70.9639 1.97362 71.3481 2.01558C71.6904 2.05405 72.0223 2.47715 72.0223 3.21495C71.9547 3.393 71.8809 3.59681 71.8007 3.81823L71.8004 3.81915C71.5988 4.3759 71.3569 5.04394 71.0722 5.6941Z" fill="#078715FF"></path>
  <path d="M76.7097 96.9751C77.6668 96.6639 78.4737 95.44 78.4981 94.2441C78.4915 94.2125 78.4848 94.1724 78.4771 94.1264C78.4527 93.9795 78.418 93.7713 78.341 93.5798C78.1943 93.2126 77.6214 93.1077 77.342 93.384L77.3115 93.4137C77.162 93.5594 76.9991 93.7182 76.9403 93.9015C76.7377 94.5484 76.4408 95.1323 75.9622 95.6218C75.854 95.7337 75.7492 95.9191 75.7597 96.0624C75.7771 96.3212 75.8086 96.6499 75.9692 96.8072C76.1299 96.9611 76.4932 97.045 76.7097 96.9751Z" fill="#078715FF"></path>
  <path d="M66.3531 4.75351C66.381 4.9668 66.4649 5.1871 66.5836 5.36892C66.7827 5.66964 67.1111 5.83398 67.4464 5.68363C67.6665 5.58222 67.9075 5.34445 67.9703 5.12066C68.0446 4.8628 68.0504 4.58384 68.0563 4.30498C68.0586 4.19056 68.061 4.07617 68.0681 3.96326H68.0402C68.0402 3.85782 68.0474 3.75066 68.0546 3.64372C68.0704 3.41022 68.0861 3.17774 68.0262 2.9667C67.8621 2.38975 67.6595 1.8058 67.3661 1.2848C67.1041 0.819737 66.3356 0.956108 66.1505 1.46313C66.0772 1.66593 66.0283 1.90021 66.0492 2.11351C66.133 2.99817 66.2343 3.87934 66.3531 4.7605V4.75351Z" stroke="#078715FF" stroke-width="2"></path>
  <path d="M35.9749 17.9955C36.4043 18.0338 36.8423 18.0035 37.2771 17.9735C37.3976 17.9652 37.5178 17.9568 37.6376 17.95C39.5805 17.8446 41.5201 17.7326 43.4628 17.6204L43.628 17.6108C43.628 17.6423 43.628 17.6703 43.6315 17.7018C44.0949 17.7018 44.5583 17.7021 45.0217 17.7025C45.9485 17.7033 46.8753 17.7041 47.8021 17.7018L47.8454 17.7018C48.1636 17.7019 48.4902 17.7021 48.7976 17.6318C49.1434 17.5549 49.4438 17.2787 49.3914 16.929C49.3495 16.6423 49.1364 16.2996 48.8919 16.1492C48.6343 15.9889 48.2586 15.9849 47.9311 15.9814L47.9278 15.9814C43.869 15.9604 39.8102 15.9744 35.7619 16.338C35.6536 16.3485 35.5418 16.366 35.4335 16.394C34.9166 16.5199 34.7 17.2297 35.1017 17.5794C35.3392 17.7857 35.6676 17.9675 35.968 17.9955H35.9749Z" stroke="#078715FF" stroke-width="2"></path>
  <path fill-rule="evenodd" clip-rule="evenodd" d="M51.1314 52.2459C51.3524 52.2433 51.5735 52.2406 51.7945 52.2525V52.2455C53.0869 52.3119 53.9078 53.0182 53.9916 54.305C54.0439 55.1345 53.9898 55.9737 53.9359 56.8085L53.9358 56.8102L53.9357 56.8117C53.9249 56.9787 53.9142 57.1456 53.9043 57.3122C53.8774 57.7744 53.8246 58.2351 53.7718 58.6963C53.7423 58.9538 53.7127 59.2115 53.6877 59.4696C53.6786 59.5575 53.68 59.6455 53.6814 59.7334C53.6826 59.8133 53.6839 59.8932 53.6772 59.9731C53.5236 61.662 52.7481 62.3963 51.075 62.3369C50.5876 62.3206 50.1026 62.2542 49.6179 62.1878C49.2724 62.1405 48.927 62.0933 48.581 62.0641C46.6005 61.8998 46.597 62.267 46.6704 63.8265C46.7053 64.5538 46.7123 65.2811 46.6983 66.0049C46.6913 66.393 46.632 66.7812 46.5621 67.1658C46.2407 68.9176 45.2872 69.4247 43.9319 69.3582C42.9929 69.3119 42.0502 69.3214 41.1074 69.3309C40.486 69.3372 39.8646 69.3435 39.2444 69.3338C37.8716 69.3093 37.2045 68.7988 36.8866 67.4386C36.7312 66.7759 36.6778 66.0848 36.6247 65.3985L36.6246 65.3977C36.6133 65.2512 36.602 65.1051 36.5897 64.9594C36.5642 64.6543 36.5708 64.3462 36.5775 64.0339C36.59 63.4478 36.6028 62.8465 36.4046 62.2215C36.2889 62.2024 36.1721 62.1782 36.0545 62.1539C35.8064 62.1025 35.5543 62.0503 35.3008 62.0432C34.8687 62.0304 34.4352 62.0329 34.0015 62.0355C33.4852 62.0385 32.9685 62.0415 32.4541 62.0187C30.7879 61.9453 30.0509 61.3054 29.5654 59.7458C29.1338 58.3523 29.1863 56.9401 29.2388 55.5302C29.2505 55.2172 29.2621 54.9043 29.2685 54.5917C29.2894 53.6896 29.8483 53.0007 30.6831 52.6756C31.2944 52.4378 31.972 52.3154 32.6287 52.2629C33.2038 52.2168 33.7813 52.2109 34.3584 52.2051C34.7871 52.2007 35.2159 52.1964 35.6431 52.1755C36.4709 52.1336 36.7155 51.8329 36.6875 51.0041C36.6782 50.7069 36.6627 50.4097 36.6471 50.1125C36.6161 49.518 36.5851 48.9236 36.6037 48.3292C36.6631 46.3326 37.6446 45.336 39.6076 45.2836C41.2807 45.2416 42.9574 45.2451 44.634 45.2696C45.8635 45.2871 46.4818 45.7486 46.8345 46.934C46.9882 47.4585 47.0197 48.0285 47.0441 48.5809C47.0612 48.9917 47.0591 49.4024 47.0569 49.8127C47.0547 50.2407 47.0524 50.6684 47.0721 51.095C47.1035 51.8259 47.3585 52.0846 48.1095 52.1441C48.7775 52.1972 49.4477 52.2146 50.1184 52.2319L50.1193 52.2319C50.2864 52.2363 50.4537 52.2406 50.6209 52.2455C50.791 52.25 50.9613 52.248 51.1314 52.2459ZM51.9731 59.1134C51.9858 58.7655 51.9985 58.4187 52.0914 58.0919L52.081 58.0954C52.3368 57.1804 52.3161 56.2586 52.2955 55.3367L52.294 55.2701C52.2731 54.2421 52.0635 54.0462 50.9877 53.9623C50.7223 53.9419 50.4559 53.9382 50.189 53.9346C49.9537 53.9314 49.7179 53.9281 49.4822 53.9134C49.3461 53.9048 49.2099 53.8967 49.0736 53.8886C48.4301 53.8502 47.7859 53.8117 47.1489 53.7281C45.35 53.4938 45.3186 53.4413 45.3011 51.6615C45.2976 51.2711 45.298 50.8803 45.2984 50.4893C45.2992 49.7074 45.3 48.9248 45.2697 48.1438C45.2418 47.4445 44.9029 47.0704 44.2428 47.0529C42.7373 47.0109 41.2284 46.9899 39.7264 47.0634C38.6645 47.1158 38.413 47.469 38.3746 48.5774C38.3647 48.8528 38.3847 49.1299 38.4046 49.4063C38.4128 49.5195 38.4209 49.6326 38.427 49.7453C38.4405 49.9801 38.4573 50.2144 38.4741 50.4486L38.4742 50.4495C38.5094 50.9404 38.5445 51.4304 38.5493 51.9203C38.5597 53.2455 38.1056 53.7665 36.8098 53.8749C36.3445 53.9127 35.8755 53.9127 35.4057 53.9127C35.0925 53.9127 34.779 53.9127 34.466 53.9239C34.3142 53.9293 34.1622 53.9338 34.01 53.9384L34.0095 53.9384C33.3809 53.9571 32.7505 53.9758 32.1292 54.0602C31.3677 54.1651 31.0359 54.5253 31.0045 55.2876C30.9626 56.2317 31.0045 57.1828 31.0464 58.1304C31.0574 58.3885 31.1308 58.6446 31.2042 58.9001C31.2242 58.9699 31.2442 59.0397 31.263 59.1095C31.4586 59.8403 31.9092 60.2669 32.6916 60.2808C33.0828 60.2878 33.474 60.2913 33.8652 60.2913C34.199 60.2925 34.5331 60.2909 34.8675 60.2894H34.8684C35.5381 60.2863 36.2089 60.2832 36.8796 60.3018C37.8018 60.3263 38.2244 60.69 38.2908 61.6026C38.3282 62.1355 38.3268 62.6718 38.3253 63.2083C38.3241 63.6222 38.3229 64.0362 38.3397 64.4489C38.3676 65.1692 38.42 65.8965 38.5353 66.6098C38.661 67.3791 38.8776 67.5994 39.6216 67.6274C40.9559 67.6763 42.2972 67.6763 43.6315 67.6379C44.4733 67.6169 44.8645 67.2427 44.9274 66.407C44.9688 65.8653 44.9592 65.3185 44.9497 64.7725C44.9455 64.5361 44.9414 64.2998 44.9414 64.0643H44.9588C44.9588 63.845 44.9556 63.6255 44.9524 63.4058C44.945 62.9002 44.9376 62.3939 44.9693 61.8893C45.0322 60.9242 45.626 60.3193 46.5656 60.3123C47.1971 60.3073 47.8305 60.3591 48.463 60.4107C48.719 60.4316 48.9752 60.4525 49.2307 60.4697C49.4396 60.484 49.6484 60.5045 49.8572 60.5249C50.2593 60.5643 50.6609 60.6036 51.061 60.599C51.5745 60.592 51.8679 60.2738 51.9308 59.7528C51.9574 59.5423 51.9652 59.3276 51.9731 59.1134Z" stroke="#078715FF" stroke-width="2"></path>
  <path d="M32.751 44.308C32.9781 44.1576 33.2296 43.9758 33.3413 43.745C33.4461 43.5282 33.4741 43.1821 33.3693 42.9827C33.261 42.7799 32.9676 42.6191 32.7231 42.5562C32.5345 42.5072 32.2795 42.5946 32.0944 42.696C31.7066 42.9093 31.3259 43.1436 30.9731 43.4128C28.6957 45.1717 27.3719 47.6054 26.2646 50.1789C26.1633 50.4132 26.1319 50.7664 26.2367 50.9797C26.3237 51.1587 26.4976 51.2975 26.6821 51.4448C26.7643 51.5104 26.8486 51.5777 26.9283 51.651C27.0284 51.5881 27.1282 51.536 27.222 51.487C27.4096 51.3891 27.5733 51.3037 27.6688 51.1685C27.8679 50.8861 28.0123 50.5642 28.1557 50.2445C28.1934 50.1605 28.2311 50.0765 28.2696 49.9936C29.307 47.7382 30.6203 45.7067 32.751 44.308Z" stroke="#078715FF" stroke-width="2"></path>
  <path d="M25.4786 56.2212C25.517 55.7771 25.8279 55.4939 26.2261 55.5359C26.6138 55.5743 26.8723 55.9135 26.8443 56.3471C26.8164 56.7772 26.495 57.0674 26.0968 57.0289C25.7056 56.9905 25.4402 56.6443 25.4786 56.2212Z" stroke="#078715FF" stroke-width="2"></path>
  <path fill-rule="evenodd" clip-rule="evenodd" d="M63.6119 53.6987C63.6893 54.0331 63.7668 54.3685 63.7859 54.7071L63.7789 54.7106C63.8137 55.3038 63.806 55.9005 63.7987 56.4653C63.7957 56.6928 63.7929 56.9154 63.7929 57.1303C64.0933 61.683 62.3712 65.5084 59.9401 69.0785C56.8838 73.5682 52.6818 76.4076 47.362 77.5405C45.7308 77.8901 44.0821 78.1909 42.3985 78.0999C37.7564 77.8517 33.3797 76.8027 29.5549 73.9774C25.4088 70.9108 22.6598 66.8896 21.2696 61.9418C20.6793 59.8403 20.3405 57.6828 20.5361 55.4974C20.819 52.3539 21.6923 49.3782 23.3235 46.6403C25.4263 43.1121 28.1403 40.2274 31.8079 38.3077C34.0539 37.1328 36.443 36.5069 38.951 36.1083C40.7978 35.8155 42.609 35.9741 44.4113 36.1319C44.869 36.172 45.3262 36.2121 45.7832 36.2446C48.4064 36.43 50.8899 37.3741 53.1778 38.7168C58.7875 42.0107 62.2525 46.8361 63.5099 53.2315C63.5399 53.3872 63.5759 53.5428 63.6119 53.6987ZM51.9133 74.1032C54.5156 72.6976 56.6393 70.7464 58.3404 68.3407H58.3369C60.7051 64.9874 62.2699 61.3508 62.1232 56.8751C62.0782 56.5066 62.0588 56.1011 62.0382 55.6721C62.0029 54.9367 61.9644 54.1319 61.7879 53.3259C60.6981 48.3711 58.1972 44.3674 54.1104 41.3533C51.5326 39.4511 48.602 38.3951 45.4758 37.951C43.5547 37.6783 41.5916 37.7307 39.6321 37.8426C37.2953 37.9755 35.1227 38.5594 33.0653 39.6084C29.038 41.6575 26.1214 44.8185 24.1548 48.8397C22.8659 51.4762 22.1499 54.2875 22.2547 57.2492C22.3385 59.613 22.8904 61.8893 23.8125 64.0643C27.0749 71.7779 35.1891 76.8691 43.9319 76.3236C44.2358 76.3044 44.538 76.2476 44.8401 76.1908C45.1423 76.1339 45.4444 76.0771 45.7483 76.0579C47.9733 75.925 49.9852 75.1453 51.9133 74.1032Z" stroke="#078715FF" stroke-width="2"></path>
  <path d="M14.9298 59.9452C14.9892 59.4487 14.9997 58.9451 14.9927 58.4451C14.9715 57.3287 14.9458 56.2123 14.9202 55.0958C14.874 53.0863 14.8278 51.0765 14.8076 49.067C14.7857 46.9311 14.7909 44.7936 14.7961 42.6567C14.7983 41.722 14.8006 40.7875 14.8006 39.8532H14.6224C14.6504 38.3436 14.6776 36.8336 14.7049 35.3234L14.705 35.3176L14.705 35.317C14.7592 32.3065 14.8135 29.2955 14.8739 26.2861C14.897 25.1813 14.9313 24.0778 14.9656 22.974C14.9886 22.2368 15.0115 21.4992 15.0311 20.7613C15.0381 20.541 15.0381 20.3103 14.9822 20.1005C14.8914 19.7543 14.6504 19.4955 14.2871 19.4711C13.9273 19.4466 13.592 19.6459 13.5187 19.9921C13.3685 20.6949 13.2497 21.4152 13.2113 22.1355C13.1768 22.7786 13.1717 23.4228 13.1667 24.0668C13.1626 24.5959 13.1584 25.1249 13.1379 25.6532C13.1098 26.3665 13.0677 27.0798 13.0256 27.7933C12.9526 29.0314 12.8795 30.2701 12.8795 31.5101C12.8795 37.2062 12.9388 42.9023 13.0052 48.595C13.0335 51.1044 13.0884 53.6139 13.1432 56.1234C13.1628 57.0197 13.1824 57.916 13.2008 58.8123C13.2078 59.2004 13.2218 59.5955 13.2916 59.9732C13.3685 60.3963 13.7143 60.641 14.1299 60.648C14.5456 60.655 14.8774 60.4032 14.9298 59.9522V59.9452Z" stroke="#078715FF" stroke-width="2"></path>
  <path d="M13.938 67.5365C13.9624 67.1518 14.3187 66.8301 14.7064 66.8511L14.7029 66.8476C15.1046 66.8721 15.4644 67.2078 15.4644 67.5609C15.4679 68.019 15.0767 68.3582 14.5946 68.3197C14.2104 68.2918 13.9135 67.9351 13.938 67.5365Z" stroke="#078715FF" stroke-width="2"></path>
  <path fill-rule="evenodd" clip-rule="evenodd" d="M73.059 94.151L73.0551 94.151C72.9623 94.1504 72.8695 94.1498 72.7767 94.1498L72.7836 94.1358C71.6042 94.1379 70.4247 94.1401 69.2451 94.1423H69.2332C64.4951 94.1513 59.7557 94.1602 55.0185 94.1602C46.2693 94.1582 37.5213 94.1523 28.7731 94.1464H28.759C22.9305 94.1425 17.1019 94.1386 11.2727 94.1358C11.2168 94.1358 11.1609 94.1362 11.105 94.1366C10.9374 94.138 10.7697 94.1393 10.6021 94.1288C9.55768 94.0589 9.08962 93.6113 9.05469 92.5588C9.03743 92.0451 9.01997 91.5316 9.00251 91.0181L9.00243 91.0157C8.89274 87.7894 8.78312 84.565 8.72286 81.3379C8.6959 79.9154 8.70328 78.4913 8.71066 77.0675C8.7224 74.8024 8.73413 72.5379 8.60759 70.2814C8.34505 65.5884 8.34612 60.8925 8.34718 56.1966C8.34779 53.5204 8.3484 50.8441 8.30021 48.1684C8.2717 46.5969 8.2263 45.0253 8.18089 43.4536L8.18088 43.4529C8.11506 41.1746 8.04922 38.8954 8.03475 36.6153C7.99646 30.7358 7.99361 24.8582 7.99077 18.9797V18.9791C7.98972 16.8134 7.98867 14.6473 7.98585 12.4812C7.98585 12.4161 7.98527 12.3507 7.98469 12.2852C7.98178 11.9567 7.97884 11.6252 8.04872 11.3133C8.24433 10.4391 8.69841 9.76427 9.66596 9.6209C9.87171 9.59136 10.0777 9.55813 10.2838 9.52489L10.2844 9.52479C10.9072 9.42432 11.5311 9.32369 12.1529 9.32369C16.7615 9.32128 21.3717 9.33706 25.9813 9.35284H25.9819L25.9838 9.35285C28.0779 9.36001 30.1718 9.36718 32.2654 9.37264C32.8052 9.37491 33.3451 9.36538 33.9022 9.35555C34.2029 9.35024 34.5088 9.34485 34.8222 9.34117C34.8752 9.20037 34.9279 9.06833 34.9784 8.94166C35.0809 8.68459 35.1747 8.44949 35.2449 8.20824C36.3032 4.61365 39.8521 2.89678 42.4473 2.97021C43.9249 3.01217 45.1614 3.53318 46.2581 4.46329C47.3864 5.42488 48.2002 6.60676 48.7102 8.00544C48.8423 8.36531 48.9931 8.72005 49.1485 9.08524L49.1493 9.08705C49.2155 9.24287 49.2826 9.40061 49.3494 9.56146C49.5251 9.57319 49.6914 9.58727 49.8513 9.60082C50.1681 9.62766 50.4599 9.65238 50.7501 9.65238C53.3733 9.65937 56 9.65937 58.6267 9.64888C58.7334 9.64888 58.8402 9.64926 58.947 9.64963C59.5673 9.65183 60.189 9.65402 60.8028 9.58244C63.6299 9.2542 66.4638 9.281 69.2986 9.30781C70.5406 9.31956 71.7828 9.33131 73.0247 9.3132C73.1923 9.3097 73.3635 9.3097 73.5276 9.33068C74.9528 9.50551 75.6968 10.3552 75.7072 11.8098C75.7072 11.9217 75.7003 12.0336 75.6863 12.1455C75.3765 14.3307 75.3797 16.5257 75.3829 18.7224C75.3835 19.1514 75.3841 19.5805 75.3824 20.0096C75.3795 20.3848 75.352 20.76 75.3247 21.1331C75.3194 21.205 75.3141 21.2771 75.3091 21.3488C75.2855 21.6713 75.2558 21.9934 75.2261 22.3155C75.1634 22.9955 75.1007 23.6749 75.096 24.3559C75.0688 29.6577 75.0564 34.9595 75.044 40.2612C75.0405 41.7745 75.037 43.2878 75.0331 44.8011C75.4859 50.8103 75.4375 56.8255 75.3891 62.8398V62.8424C75.3625 66.1537 75.3358 69.4648 75.3929 72.7745C75.4362 75.3152 75.4954 77.8546 75.5546 80.3943L75.5546 80.3962C75.5956 82.1551 75.6366 83.9142 75.6723 85.6738L75.6781 85.9581L75.6781 85.9589C75.7148 87.7626 75.7514 89.5663 75.7282 91.3699C75.7216 91.9388 75.5525 92.5139 75.3893 93.0687L75.3614 93.1637C75.1903 93.7581 74.7257 94.0728 74.118 94.1253C73.765 94.1556 73.412 94.1533 73.059 94.151ZM31.1965 11.1769C30.2639 11.1804 29.9845 11.4252 29.9705 12.3518L29.9775 12.3448C29.9495 14.1911 29.9286 16.0338 29.9775 17.8766C30.0071 18.9795 30.1358 20.0763 30.2644 21.1727L30.2884 21.3768C30.3652 22.0341 30.6202 22.2544 31.2454 22.3383C31.4664 22.3664 31.6897 22.3764 31.9133 22.3865C31.969 22.389 32.0246 22.3915 32.0802 22.3943C32.8343 22.4344 33.5884 22.476 34.3425 22.5177C36.1521 22.6175 37.9621 22.7174 39.7717 22.7964C40.0486 22.8083 40.3256 22.8211 40.6028 22.8339L40.6036 22.8339C42.1126 22.9035 43.6253 22.9733 45.1299 22.9083C47.3549 22.8104 49.5799 22.5796 51.7945 22.3139C53.045 22.1635 53.265 21.8208 53.3488 20.5585C53.3572 20.4243 53.3567 20.29 53.3561 20.1557L53.3559 20.1096L53.3558 20.055C53.3558 19.3686 53.3564 18.6822 53.357 17.9958C53.3584 16.28 53.3598 14.5642 53.3523 12.8483C53.3523 12.5843 53.3211 12.3219 53.2924 12.0815C53.2793 11.9717 53.2668 11.8665 53.258 11.7679C52.8412 11.345 52.3818 11.3617 51.9355 11.378C51.8245 11.382 51.7144 11.386 51.6059 11.3832C51.2621 11.3732 50.9173 11.3755 50.5722 11.3779C50.0791 11.3813 49.5855 11.3847 49.0944 11.3518C47.9941 11.2783 47.6344 10.9322 47.3759 9.87966C47.3402 9.73474 47.308 9.5878 47.2757 9.44054C47.1882 9.04072 47.1001 8.63813 46.9393 8.26769C46.1673 6.49137 44.9867 5.13466 42.9573 4.81296C40.4109 4.41434 37.7074 6.15219 36.9739 8.62435C36.8481 9.05095 36.7294 9.48453 36.642 9.92162C36.5023 10.6314 36.0133 10.9566 35.3776 11.093C35.0004 11.1734 34.6022 11.2014 34.2144 11.2014C33.7115 11.2032 33.2085 11.1962 32.7055 11.1892C32.2025 11.1822 31.6995 11.1752 31.1965 11.1769ZM17.2137 92.4029C20.5763 92.3862 23.9383 92.3696 27.3019 92.3769V92.3839C29.7796 92.3903 32.2567 92.4102 34.7337 92.4301C37.7319 92.4542 40.7301 92.4784 43.7293 92.4784C50.4716 92.4809 57.2157 92.4655 63.9591 92.4502L63.9672 92.4502H63.971C66.6666 92.444 69.362 92.4379 72.0571 92.4329C72.1465 92.4315 72.2359 92.4323 72.3253 92.4332C72.4594 92.4344 72.5936 92.4357 72.7278 92.4294C73.7442 92.3874 73.9538 92.1706 74.0027 91.1042C74.0167 90.7685 74.0097 90.4328 74.0027 90.0971C73.9901 89.3263 73.9813 88.5555 73.9725 87.7849C73.952 85.9859 73.9314 84.1871 73.863 82.3904C73.6696 77.3538 73.6769 72.3155 73.6842 67.2767V67.2761C73.6876 64.9409 73.6909 62.6056 73.6743 60.2704C73.6659 59.0662 73.6688 57.862 73.6718 56.6579V56.6574C73.6797 53.3932 73.6877 50.1294 73.4683 46.8676C73.3083 44.4793 73.2777 42.081 73.2471 39.689L73.2447 39.5001C73.2133 36.7062 73.2133 33.9124 73.2447 31.1185C73.2727 28.496 73.346 25.87 73.4263 23.2475C73.4711 21.7272 73.5427 20.2092 73.6143 18.6917C73.6321 18.3139 73.65 17.9361 73.6674 17.5584C73.7372 16.0548 73.8141 14.5477 73.8944 13.0442C73.9003 12.9271 73.915 12.8095 73.9297 12.6917C73.9497 12.5316 73.9698 12.3711 73.9678 12.2119C73.9538 11.4392 73.6219 11.093 72.8535 11.0441C72.6672 11.0324 72.4809 11.0363 72.2946 11.0402C72.2015 11.0421 72.1083 11.0441 72.0152 11.0441C71.3445 11.0441 70.6739 11.0429 70.0033 11.0417C68.662 11.0394 67.3207 11.0371 65.9794 11.0441L65.976 11.0441C64.8069 11.0511 63.631 11.0581 62.462 11.107C61.3126 11.1551 60.162 11.2169 59.0116 11.2787L59.0103 11.2788C58.3222 11.3157 57.634 11.3527 56.9466 11.3867C56.8224 11.3914 56.6982 11.3905 56.574 11.3897C56.4188 11.3886 56.2635 11.3875 56.1083 11.3972C55.3608 11.4462 55.1582 11.656 55.1093 12.4497C55.0883 12.7827 55.091 13.1177 55.0936 13.4532L55.0936 13.4547C55.0945 13.5661 55.0953 13.6775 55.0953 13.789C55.0944 14.4294 55.0925 15.0698 55.0905 15.7102C55.0852 17.472 55.0799 19.2338 55.0953 20.9956C55.1093 22.4712 54.3304 23.7965 52.4267 24.0692C51.6662 24.1798 50.9029 24.2263 50.1412 24.2726C49.458 24.3142 48.7761 24.3557 48.0989 24.4434C46.0401 24.7101 43.9836 24.709 41.9255 24.7079C41.529 24.7076 41.1325 24.7074 40.7358 24.7091C40.3253 24.7091 39.9147 24.6788 39.5061 24.6487C39.4141 24.6419 39.3221 24.6351 39.2303 24.6287C38.6471 24.5885 38.0638 24.5456 37.4805 24.5028C36.8972 24.46 36.3138 24.4171 35.7304 24.3769C35.0993 24.3338 34.4679 24.2938 33.8364 24.2538C32.5736 24.1737 31.3105 24.0937 30.0508 23.9888C29.23 23.9223 28.6956 23.4293 28.5908 22.6146C28.4196 21.2893 28.2555 19.9536 28.217 18.6214C28.1814 17.3505 28.1873 16.077 28.1931 14.8033V14.8021C28.1971 13.9526 28.201 13.103 28.1926 12.2539C28.1821 11.2364 28.0005 11.0755 27.0364 11.0371C26.9619 11.0324 26.8874 11.034 26.8129 11.0355C26.7756 11.0363 26.7384 11.0371 26.7011 11.0371H12.7887C11.8351 11.0371 10.906 11.1664 10.0502 11.4637C9.65677 11.9368 9.68075 12.4467 9.70401 12.9413C9.70946 13.0571 9.71486 13.172 9.71486 13.2854C9.70438 16.8625 9.6974 20.4362 9.71486 24.0133C9.73931 28.9296 9.77424 33.8459 9.83711 38.7623C9.85504 40.221 9.89427 41.6805 9.9335 43.14C9.97833 44.8082 10.0232 46.4766 10.0362 48.1439C10.0508 50.0921 10.0549 52.0405 10.059 53.9891C10.0708 59.5247 10.0825 65.0615 10.3331 70.5961C10.4302 72.7176 10.4202 74.8456 10.4101 76.9737C10.4035 78.3671 10.3969 79.7607 10.4204 81.1526C10.4601 83.5284 10.5384 85.9024 10.6167 88.2772C10.6488 89.2507 10.6809 90.2247 10.7104 91.1986C10.7111 91.2209 10.7116 91.2433 10.7122 91.2657C10.7144 91.3552 10.7166 91.4447 10.7278 91.5342C10.7942 92.1147 11.0003 92.3525 11.5452 92.3979C11.9084 92.4263 12.2717 92.4247 12.635 92.4231C12.7188 92.4228 12.8026 92.4224 12.8865 92.4224C14.2919 92.4173 15.6971 92.4103 17.1021 92.4034L17.2137 92.4029Z" stroke="#078715FF" stroke-width="2"></path>
  <path fill-rule="evenodd" clip-rule="evenodd" d="M1.00001 65.5713C1.0035 64.1797 2.16666 62.781 3.35426 62.7425L3.35077 62.746C4.6257 62.7041 6.00192 64.0118 6.0124 65.2706C6.02637 66.7497 4.83178 68.0015 3.41713 68.0015C2.02694 67.998 0.996516 66.963 1.00001 65.5713ZM2.75696 65.365C2.71854 65.7706 3.03291 66.1448 3.42063 66.1553C3.79437 66.1658 4.16812 65.8161 4.19257 65.435C4.21702 65.0468 3.89217 64.6727 3.50446 64.6412C3.1342 64.6132 2.79888 64.9349 2.75696 65.365Z" stroke="#078715FF" stroke-width="2"></path>
  <path d="M79.0082 40.6155C79.2664 40.8024 79.5397 40.9687 79.7814 41.1157C79.8697 41.1694 79.954 41.2207 80.0316 41.2694C80.0531 41.3339 80.072 41.3818 80.0867 41.4192C80.1103 41.4792 80.1232 41.512 80.1189 41.5421C80.101 41.6612 80.078 41.7797 80.0549 41.8984C80.015 42.1038 79.975 42.3093 79.9617 42.5177C79.9338 42.8988 79.9059 43.294 79.9722 43.6681C80.0665 44.1821 80.8385 44.3849 81.1598 43.9723C81.352 43.7311 81.4806 43.4356 81.6076 43.1439L81.6297 43.093C81.6499 43.0467 81.6702 43.0005 81.6908 42.9548C81.7953 42.7241 81.8869 42.4869 81.9755 42.2575C82.0171 42.1498 82.0582 42.0435 82.0994 41.9407C82.2793 41.9267 82.4491 41.9182 82.6114 41.91C82.9345 41.8937 83.2281 41.8789 83.5141 41.8254C83.9542 41.7414 84.1638 41.0666 83.8494 40.7519C83.6388 40.5434 83.3987 40.3629 83.1312 40.1619L83.1307 40.1615C83.0081 40.0693 82.8795 39.9727 82.7456 39.8672C82.7456 39.7359 82.7471 39.6011 82.7486 39.4638V39.4625C82.7522 39.1253 82.756 38.773 82.7386 38.4231C82.7212 38.0629 82.5221 37.7902 82.1728 37.6783C81.8025 37.5594 81.5126 37.7482 81.3205 38.035C81.132 38.3167 80.9676 38.6139 80.8019 38.9134L80.8013 38.9144C80.7308 39.0419 80.6599 39.17 80.587 39.2973C80.4268 39.2866 80.2794 39.2759 80.1401 39.2658L80.1394 39.2657L80.1381 39.2656C79.9135 39.2494 79.7099 39.2346 79.5077 39.2238C79.0745 39.1993 78.7252 39.3637 78.5925 39.7833C78.4737 40.1539 78.7322 40.4197 79.0047 40.6155H79.0082Z" stroke="#078715FF" stroke-width="2"></path>
  <path d="M9.26513 7.62143C9.19455 7.76705 9.13027 7.89966 9.03033 7.99494V7.99145C8.87664 8.13831 8.66007 8.23971 8.45399 8.29566C7.56678 8.54392 7.08824 9.18382 6.73895 9.97756C6.56081 10.3832 6.3652 10.7853 6.13117 11.1559C5.86222 11.5825 5.44656 11.7364 5.15664 11.5651C4.79687 11.3518 4.60825 11.0301 4.61873 10.6035C4.61873 10.5475 4.61873 10.4881 4.63619 10.4391C5.22999 8.84464 6.00194 7.38302 7.71348 6.73963C8.03833 6.61725 8.47844 6.67669 8.82075 6.78509C8.96922 6.83064 9.07993 6.99452 9.19903 7.17082C9.25365 7.25168 9.31004 7.33514 9.37264 7.411C9.33256 7.48233 9.29815 7.5533 9.26513 7.62143Z" stroke="#078715FF" stroke-width="2"></path>
  <path d="M71.0722 5.6941C70.9045 6.07174 70.3945 6.16965 70.0557 6.0053H70.0592C69.7064 5.83396 69.5597 5.49478 69.6505 5.17309C69.9055 4.26745 70.2059 3.3723 70.5447 2.49463C70.6635 2.18342 70.9639 1.97362 71.3481 2.01558C71.6904 2.05405 72.0223 2.47715 72.0223 3.21495C71.9547 3.393 71.8809 3.59681 71.8007 3.81823L71.8004 3.81915C71.5988 4.3759 71.3569 5.04394 71.0722 5.6941Z" stroke="#078715FF" stroke-width="2"></path>
  <path d="M76.7097 96.9751C77.6668 96.6639 78.4737 95.44 78.4981 94.2441C78.4915 94.2125 78.4848 94.1724 78.4771 94.1264C78.4527 93.9795 78.418 93.7713 78.341 93.5798C78.1943 93.2126 77.6214 93.1077 77.342 93.384L77.3115 93.4137C77.162 93.5594 76.9991 93.7182 76.9403 93.9015C76.7377 94.5484 76.4408 95.1323 75.9622 95.6218C75.854 95.7337 75.7492 95.9191 75.7597 96.0624C75.7771 96.3212 75.8086 96.6499 75.9692 96.8072C76.1299 96.9611 76.4932 97.045 76.7097 96.9751Z" stroke="#078715FF" stroke-width="2"></path>
</svg>
