<svg width="54" height="44" viewBox="0 0 54 44" fill="none" xmlns="http://www.w3.org/2000/svg">
<path d="M30.0055 29.3627C30.3491 32.6789 30.9053 35.8686 30.9552 39.0709C31.0052 42.3239 29.6306 44.368 27.1625 43.8428C26.5377 43.7098 25.9067 43.3808 25.3756 43.001C18.7337 38.2229 12.098 33.4257 5.4811 28.6096C3.83156 27.4071 2.10705 26.2616 0.688698 24.8123C-0.585945 23.5149 0.0138871 22.553 1.62594 21.6733C4.07525 20.3379 6.54332 18.8633 8.58025 16.9837C13.9225 12.0537 19.0023 6.82615 24.2883 1.8328C25.0006 1.16196 26.4128 0.674641 27.275 0.915131C28.0498 1.13031 28.937 2.41504 29.0557 3.32638C29.5431 7.12993 29.7618 10.9651 30.1055 15.1168C34.8354 15.2433 39.4653 15.4585 44.0953 15.4205C45.1138 15.4142 46.076 14.351 47.1444 14.0535C48.2254 13.7498 49.8624 13.2814 50.431 13.8004C51.2683 14.5725 51.6307 16.1357 51.7182 17.3951C51.8806 19.6861 50.8809 21.9644 52.7741 24.1731C54.2925 25.9452 51.2808 29.331 48.3254 29.312C42.6145 29.2804 36.8973 29.2551 31.1864 29.2298C30.824 29.2298 30.4616 29.3057 30.0055 29.35L30.0055 29.3627ZM45.5574 20.6417C42.3083 20.6417 39.1967 20.7493 36.0975 20.6101C33.0609 20.4708 30.0242 20.2114 27.0188 19.7557C25.3818 19.5025 24.4133 18.3254 24.4196 16.4458C24.4258 14.4902 24.2571 12.5283 24.1384 10.1171C19.046 14.6294 14.3161 18.8127 9.44251 23.1289C14.7973 27.4641 19.8208 31.5271 25.2756 35.9382C24.782 33.9763 24.4383 32.5017 24.0447 31.0398C22.9825 27.1033 23.3511 25.2807 25.8129 24.2428C27.0251 23.7301 28.4872 23.6289 29.8243 23.6732C34.1668 23.8187 38.5031 24.1731 42.8456 24.3314C45.976 24.4453 46.1697 24.1288 45.5574 20.6354L45.5574 20.6417Z" fill="#06D001"/>
</svg>
