<svg width="19" height="100" viewBox="0 0 19 100" fill="none" xmlns="http://www.w3.org/2000/svg">
<path d="M14.7703 7.54646C15.3911 7.05173 16.1381 6.55217 16.7589 6.05747C22.2202 2.20637 13.034 -3.12875 11.9185 2.33252C9.0617 16.8586 6.70455 31.3846 4.46859 45.9169C3.35304 52.6198 2.35878 59.4484 1.49062 66.2775C0.622433 72.7331 -0.124519 79.3148 3.84777 84.9022C6.20491 88.2537 10.9242 86.8908 11.2977 82.9136C11.9185 76.5792 11.6711 70.3704 12.5393 64.0418C13.4075 57.3388 14.0283 50.5103 14.7753 43.8016C16.2643 30.2701 17.6321 16.8591 18.5002 3.32137C16.6377 4.0683 14.7753 4.81036 12.9128 5.67852C13.4075 6.3042 14.0282 6.92563 14.7703 7.54646C14.649 7.67256 14.649 7.67256 14.7703 7.54646Z" fill="#FFFD1E"/>
<path d="M6.40118 99.7588C7.76898 99.7588 9.25797 99.138 10.3735 98.1437C11.3678 97.1494 12.1098 95.6604 11.9886 94.1714C11.8625 91.1934 9.50531 88.584 6.40118 88.584C5.03338 88.584 3.5444 89.2048 2.4289 90.1991C1.43461 91.1934 0.692575 92.6824 0.81376 94.1714C0.935016 97.1542 3.29706 99.7588 6.40118 99.7588Z" fill="#FFFD1E"/>
</svg>
