<svg width="124" height="126" viewBox="0 0 124 126" fill="none" xmlns="http://www.w3.org/2000/svg">
<path d="M79.1135 57.9096L65.5186 76.6538C65.1428 77.1775 64.5678 77.5288 63.9253 77.6311L63.9118 77.6333L63.8989 77.64L63.8982 77.6355C63.2558 77.7378 62.6002 77.5824 62.0801 77.2013L43.336 63.6064C37.3973 59.3472 35.7684 51.2151 39.6071 44.995C43.451 38.7791 51.4485 36.5918 57.9182 39.9919C63.0179 34.7868 71.2737 34.4 76.8383 39.1039C82.4077 43.8115 83.398 52.0128 79.1135 57.9096ZM73.1457 42.3968C69.0703 39.585 63.5011 40.4718 60.5005 44.4102L60.394 44.5571C59.8166 45.3588 58.7905 45.7031 57.8444 45.413C57.4818 45.3502 57.1387 45.2053 56.836 44.9937C52.7606 42.182 47.1913 43.0688 44.1908 47.0072C42.7796 48.9529 42.201 51.3785 42.5784 53.7491C42.9559 56.1198 44.2593 58.2456 46.2043 59.6522L62.9869 71.8244L75.1591 55.0418C76.571 53.1006 77.1496 50.675 76.7722 48.3044C76.3947 45.9337 75.0914 43.8079 73.1457 42.3968Z" fill="#8FE23D"/>
<path d="M98.2052 92.1563L94.1154 92.8076L96.8378 109.905L96.837 109.9C96.971 110.742 96.6613 111.594 96.0119 112.147C95.3617 112.696 94.4717 112.875 93.6632 112.604L53.2079 99.3219L35.7169 102.107C29.9722 102.999 24.1093 101.576 19.4174 98.1523C14.7207 94.7298 11.5774 89.5848 10.6677 83.8425L3.45527 38.5467C2.53658 32.8063 3.92646 26.9395 7.32792 22.227C10.7249 17.5158 15.8559 14.3422 21.5931 13.4055L84.081 3.45563C89.534 2.59662 95.1144 3.8188 99.7073 6.88208C104.301 9.94983 107.574 14.6288 108.874 19.9938L108.881 20.0066L108.882 20.0157C109.017 20.574 109.147 21.1285 109.24 21.7077L116.451 66.9987C117.359 72.755 115.948 78.6345 112.528 83.3491C109.108 88.0637 103.958 91.231 98.2052 92.1563ZM104.524 23.1722L89.6304 25.5436C88.2958 25.7561 87.0424 24.847 86.8306 23.5169C86.6181 22.1823 87.5272 20.9289 88.8618 20.7164L103.226 18.4292C101.724 14.9388 99.1054 12.0434 95.7792 10.2072C92.4477 8.3672 88.6062 7.69394 84.8497 8.28283L22.3618 18.2327C17.9038 18.9611 13.9183 21.4327 11.2821 25.0951C8.64136 28.7582 7.56285 33.3183 8.28212 37.7773L15.4945 83.073C15.6121 83.7826 15.775 84.485 15.9824 85.1756L26.4152 83.5144C27.7452 83.3026 28.9987 84.2117 29.2112 85.5463C29.423 86.8764 28.5139 88.1298 27.1838 88.3416L18.1083 89.7867C19.8983 92.5216 22.4374 94.6872 25.423 96.0164C28.4087 97.3456 31.7165 97.7837 34.9482 97.2784L53.0218 94.4005C53.4063 94.3393 53.7963 94.37 54.1682 94.4917L91.3834 106.713L88.9067 91.1585C88.6949 89.8284 89.5995 88.5757 90.9341 88.3632L97.4353 87.328C101.909 86.611 105.915 84.15 108.573 80.4796C111.237 76.8129 112.332 72.2409 111.624 67.7656L104.524 23.1722Z" fill="#FFFD1E"/>
<path d="M80.7261 26.7572C80.4581 26.939 80.1568 27.0566 79.8386 27.098C79.1969 27.2048 78.5421 27.0539 78.0123 26.6698C77.4878 26.2894 77.1358 25.7099 77.0432 25.0705C76.9838 24.7552 76.9967 24.4285 77.087 24.1218C77.1623 23.8083 77.2918 23.514 77.4669 23.2449C78.0609 22.4591 79.0607 22.0958 80.0193 22.3189C80.6608 22.4441 81.2115 22.8435 81.5297 23.4144C81.698 23.6845 81.8155 23.9859 81.866 24.3026C81.9585 24.9419 81.8069 25.5923 81.4416 26.1237C81.2402 26.3738 80.9962 26.5889 80.7261 26.7572Z" fill="#8FE23D"/>
<path d="M37.2788 86.7209C37.1166 86.7513 36.9568 86.7675 36.7911 86.7753L36.3337 86.6997C36.1548 86.654 36.0211 86.601 35.8648 86.5517C35.7223 86.4723 35.5836 86.3877 35.4525 86.2926C34.3706 85.5 34.1293 83.9844 34.9107 82.8905C35.0065 82.7639 35.1114 82.6358 35.223 82.5207C35.3562 82.4252 35.4668 82.3334 35.6227 82.2343C35.755 82.1622 35.8933 82.0985 36.0376 82.043C36.7255 81.7897 37.488 81.8585 38.1218 82.2261C38.7556 82.5937 39.1901 83.225 39.3098 83.9481C39.4114 84.5861 39.2463 85.2386 38.8547 85.7509C38.4833 86.2739 37.9129 86.6245 37.2788 86.7209Z" fill="#8FE23D"/>
</svg>
