<?xml version="1.0" encoding="UTF-8"?>
<svg xmlns="http://www.w3.org/2000/svg" width="118" height="111" viewBox="0 0 118 111" fill="none">
  <path fill-rule="evenodd" clip-rule="evenodd" d="M32.3615 8.32123C32.4268 8.49978 32.5995 8.64612 32.7619 8.78379C32.7972 8.81368 32.832 8.84317 32.8651 8.87249C33.2467 9.21173 33.904 9.12692 34.2008 8.68167C34.3465 8.46311 34.4507 8.21684 34.5132 8.0689L34.5132 8.06886C34.528 8.03383 34.5405 8.00431 34.5507 7.98199C34.5507 7.84199 34.5565 7.7284 34.5615 7.6333V7.63323V7.6332C34.5698 7.47271 34.5753 7.36489 34.5454 7.27171L34.358 6.72907C33.8168 5.16086 33.2758 3.59352 32.7008 2.03471C32.5895 1.73787 32.335 1.44634 32.0647 1.26612C31.8103 1.0965 31.3809 0.926882 31.153 1.03289C30.8137 1.18661 30.5381 1.54705 30.3367 1.88099C30.2201 2.06651 30.2307 2.39515 30.3049 2.61247C30.9728 4.52069 31.6565 6.42361 32.3615 8.32123ZM19.1277 63.1464C15.0191 66.2798 8.31034 63.92 4.14984 57.8678C-0.0106688 51.822 -0.0561011 44.3721 4.05233 41.2387C8.16091 38.1119 14.8632 40.4716 19.0301 46.5174C23.1907 52.5631 23.2361 60.0131 19.1277 63.1464ZM10.6439 42.9229C8.53832 42.181 6.82115 42.4424 5.6486 43.3343C4.44407 44.2537 3.6199 45.9891 3.63448 48.4455C3.64893 50.8798 4.5108 53.7455 6.31992 56.3744L6.32068 56.3755C8.13149 59.0096 10.4211 60.7231 12.5334 61.467C14.6394 62.2088 16.3575 61.9461 17.5302 61.0518C18.7354 60.1326 19.5601 58.3968 19.5455 55.9397C19.5311 53.5059 18.6695 50.6408 16.8611 48.0124C15.0468 45.3799 12.7564 43.6672 10.6439 42.9229ZM34.1846 12.8363C39.8273 11.6847 45.7235 17.9394 47.3552 26.7999C48.9869 35.6605 45.7365 43.7798 40.0938 44.9314C34.4511 46.0831 28.5549 39.8283 26.9232 30.9678C25.2914 22.1072 28.5419 13.9879 34.1846 12.8363ZM102.292 57.8678C98.1253 63.92 91.4166 66.2798 87.308 63.1464C83.1996 60.0131 83.2385 52.5631 87.4055 46.5174L89.5745 48.0124C87.7631 50.6405 86.9015 53.5054 86.8877 55.939C86.8738 58.3954 87.6995 60.132 88.9055 61.0518C90.078 61.946 91.7962 62.2089 93.9033 61.467C96.0166 60.7228 98.308 59.0091 100.122 56.3744L100.123 56.3739C101.931 53.7451 102.793 50.8796 102.808 48.4455C102.822 45.9897 101.998 44.2544 100.794 43.3349C99.6176 42.4418 97.8978 42.1814 95.7923 42.923C93.6792 43.6673 91.3889 45.38 89.5745 48.0124L87.4055 46.5174C91.5725 40.4716 98.2747 38.1119 102.39 41.2387C106.498 44.3721 106.453 51.822 102.292 57.8678ZM81.3 104.284C79.2757 106.392 77.3207 107.008 75.3961 106.952C73.3146 106.891 71.0211 106.034 68.4857 104.678C66.8943 103.828 65.4524 102.927 63.9808 102.009L63.9806 102.009C63.0108 101.403 62.028 100.79 60.9811 100.177C58.6498 98.8127 55.8948 97.3902 53.2177 97.3902C50.5218 97.3902 47.7802 98.851 45.4795 100.238C44.4626 100.85 43.5067 101.464 42.5638 102.07L42.5633 102.07L42.5627 102.07L42.5622 102.071L42.562 102.071L42.5613 102.071L42.5611 102.071L42.561 102.071C41.0921 103.015 39.6548 103.938 38.068 104.805C35.5628 106.174 33.2909 107.031 31.2087 107.081C29.2792 107.126 27.2638 106.486 25.1293 104.278C23.3691 102.458 22.2515 98.9949 22.3446 94.2776C22.4357 89.657 23.6919 84.2754 26.1129 79.1524C30.9692 68.8763 40.1721 60.2286 53.2177 60.2286C66.7438 60.2286 75.9218 68.8919 80.6441 79.1169C83.0039 84.2265 84.1787 89.6011 84.2054 94.2247C84.2327 98.9405 83.075 102.435 81.3 104.284ZM62.4509 104.161C69.0131 108.248 76.6051 112.976 83.2 106.109C93.0288 95.871 82.9271 57.5943 53.2177 57.5943C24.4251 57.5943 13.3737 95.9094 23.2355 106.109C30.0865 113.195 37.6283 108.362 44.1221 104.201C47.5252 102.021 50.6405 100.024 53.2177 100.024C55.8098 100.024 58.9869 102.003 62.4509 104.161ZM44.7645 27.277C45.5031 31.2879 45.1111 35.0198 44.0069 37.7773C42.8873 40.5733 41.2159 42.0138 39.567 42.3503C37.9403 42.6823 35.9234 42.0202 33.9209 39.8968C31.9385 37.7947 30.2528 34.5033 29.5139 30.4907C28.7752 26.4798 29.1673 22.7479 30.2715 19.9905C31.3911 17.1944 33.0625 15.7539 34.7113 15.4174C36.3381 15.0854 38.355 15.7475 40.3575 17.8709C42.3399 19.973 44.0256 23.2644 44.7645 27.277ZM66.8691 42.3503C65.2203 42.0138 63.5488 40.5733 62.4292 37.7773C61.325 35.0198 60.933 31.2879 61.6716 27.277C62.4106 23.2644 64.0962 19.973 66.0786 17.8709C68.0811 15.7475 70.098 15.0854 71.7248 15.4174C73.3736 15.7539 75.045 17.1944 76.1647 19.9905C77.2689 22.7479 77.6609 26.4798 76.9222 30.4907C76.1833 34.5033 74.4976 37.7947 72.5152 39.8968C70.5128 42.0202 68.4958 42.6823 66.8691 42.3503ZM66.3423 44.9314C60.6996 43.7798 57.4492 35.6605 59.0809 26.7999C60.7127 17.9394 66.6088 11.6847 72.2516 12.8363C77.8943 13.9879 81.1447 22.1072 79.513 30.9678C77.8812 39.8283 71.985 46.0831 66.3423 44.9314ZM51.6918 66.0796C55.6619 66.4082 59.277 67.1185 62.5686 69.0479H62.574C67.6837 72.0428 71.5161 76.1931 74.177 81.4672C75.4014 83.8949 76.2654 86.4498 77.0075 89.0471C77.231 89.8217 77.22 90.6778 77.2095 91.4955V91.4957L77.2089 91.5437C77.2036 91.7981 76.8697 92.2063 76.6259 92.2593C76.2654 92.3388 75.6611 92.307 75.4862 92.0791C75.0993 91.5649 74.8024 90.9288 74.6593 90.2981C73.8907 86.8845 72.5656 83.6988 70.7475 80.7252C68.606 77.2162 65.8656 74.2584 62.4202 71.9792C59.2346 69.8695 55.6673 68.9631 51.9038 68.6769C51.6349 68.6571 51.3644 68.6493 51.0932 68.6416H51.093C50.8565 68.6348 50.6195 68.6281 50.3826 68.6133C49.8207 68.5762 49.4232 68.2952 49.2906 67.7387C49.1528 67.1662 49.4973 66.6309 50.197 66.4135C50.6082 66.2843 51.0368 66.2042 51.3737 66.1413C51.4928 66.1191 51.6004 66.099 51.6918 66.0796ZM12.0219 104.967C14.2959 104.967 16.6335 102.714 16.6812 100.466C16.7289 98.1395 14.932 96.1093 12.7428 96.0616C9.83279 95.998 8.00938 97.9115 7.60653 100.631C7.3044 102.661 9.76389 104.956 12.0219 104.961V104.967ZM12.3877 98.7702C13.1404 98.749 13.8347 99.3798 13.9195 100.148C14.0256 101.171 12.9018 102.38 11.9212 102.306C11.1738 102.247 10.278 101.293 10.3204 100.604C10.3787 99.6554 11.3435 98.7967 12.3877 98.7702ZM109.854 41.3098C109.412 41.1451 109.019 40.9984 108.632 40.8322C108.039 40.5778 107.7 40.1325 107.768 39.4487C107.827 38.8657 108.267 38.4999 109.019 38.4628C109.469 38.4412 109.918 38.4465 110.398 38.4521H110.398H110.398H110.398C110.625 38.4548 110.859 38.4575 111.103 38.4575C111.174 38.3333 111.244 38.2127 111.313 38.0945L111.313 38.0943C111.506 37.764 111.688 37.4525 111.845 37.1324C111.922 36.97 111.983 36.7988 112.044 36.628C112.124 36.403 112.204 36.1788 112.322 35.9768C112.597 35.5051 113.069 35.2984 113.615 35.3885C114.209 35.4839 114.447 35.9344 114.474 36.4698C114.499 36.9929 114.495 37.5185 114.489 38.0947V38.0948V38.0949C114.487 38.3478 114.484 38.6104 114.484 38.8869C114.638 38.9717 114.794 39.0556 114.951 39.1403L114.951 39.1404C115.355 39.3573 115.767 39.5788 116.159 39.8304C116.615 40.1219 116.854 40.5672 116.668 41.1237C116.493 41.6432 116.143 41.9824 115.566 41.9983C115.175 42.0055 114.782 42.003 114.41 42.0006C114.339 42.0001 114.269 41.9997 114.2 41.9993C114.095 41.9987 113.991 41.9983 113.891 41.9983C113.275 42.5064 113.143 43.129 113.011 43.7559L113.01 43.7567C112.987 43.8686 112.963 43.9806 112.937 44.0921C112.767 44.8077 112.518 45.5444 112.136 46.1646C111.723 46.8325 110.525 46.6046 110.307 45.8413C110.175 45.3801 110.17 44.8554 110.217 44.373C110.276 43.7996 110.374 43.2312 110.489 42.5708C110.541 42.2727 110.596 41.9559 110.652 41.6114C110.366 41.5007 110.102 41.4024 109.854 41.3098ZM40.7957 8.90958C40.7692 9.46085 40.3876 9.81599 39.8787 9.98561L39.884 9.99091C39.407 10.1446 38.7391 9.72058 38.4794 9.15341C38.4636 9.11816 38.4461 9.08262 38.4285 9.04693C38.3695 8.92703 38.3097 8.80542 38.3097 8.68696C38.3115 8.53371 38.3132 8.38046 38.3149 8.22721C38.334 6.53588 38.353 4.84493 38.4211 3.15843C38.437 2.86689 38.6914 2.54886 38.9034 2.30503C39.4282 1.69546 40.5201 1.89688 40.748 2.65487C40.8858 3.12662 40.9441 3.64078 40.9547 4.13374C40.9623 4.61174 40.9292 5.09245 40.8961 5.57199C40.883 5.76248 40.8699 5.95279 40.8593 6.14267H40.8063C40.8063 6.41932 40.8092 6.69597 40.812 6.97262C40.8187 7.61828 40.8254 8.26393 40.7957 8.90958Z" fill="#078715FF"></path>
  <path d="M32.7619 8.78379L32.1153 9.54663L32.1153 9.54663L32.7619 8.78379ZM32.3615 8.32123L33.3007 7.97764L33.2989 7.97297L32.3615 8.32123ZM32.8651 8.87249L33.5294 8.12508L33.5281 8.12389L32.8651 8.87249ZM34.2008 8.68167L35.0329 9.23637L35.0329 9.23636L34.2008 8.68167ZM34.5132 8.0689L33.6309 7.59831L33.6097 7.638L33.5922 7.67944L34.5132 8.0689ZM34.5132 8.06886L35.3956 8.53944L35.4168 8.49976L35.4343 8.45833L34.5132 8.06886ZM34.5507 7.98199L35.4611 8.39576L35.5507 8.19858V7.98199H34.5507ZM34.5615 7.6333L35.5601 7.68489L35.5615 7.65911V7.6333H34.5615ZM34.5615 7.6332L33.5628 7.58159L33.5615 7.60738V7.6332H34.5615ZM34.5454 7.27171L35.4974 6.9657L35.4941 6.95549L35.4906 6.94536L34.5454 7.27171ZM34.358 6.72907L33.4127 7.05533L33.4128 7.05542L34.358 6.72907ZM32.7008 2.03471L33.639 1.6886L33.6371 1.68358L32.7008 2.03471ZM32.0647 1.26612L31.51 2.09817L31.51 2.09817L32.0647 1.26612ZM31.153 1.03289L31.5657 1.94379L31.5747 1.93962L31.153 1.03289ZM30.3367 1.88099L31.1833 2.41316L31.1882 2.40537L31.193 2.39749L30.3367 1.88099ZM30.3049 2.61247L29.3585 2.93563L29.361 2.94282L30.3049 2.61247ZM4.14984 57.8678L4.97391 57.3013L4.97362 57.3009L4.14984 57.8678ZM19.1277 63.1464L19.7341 63.9416L19.7341 63.9416L19.1277 63.1464ZM4.05233 41.2387L3.44671 40.443L3.4459 40.4436L4.05233 41.2387ZM19.0301 46.5174L19.8539 45.9505L19.8535 45.9499L19.0301 46.5174ZM5.6486 43.3343L5.04321 42.5384L5.04186 42.5394L5.6486 43.3343ZM10.6439 42.9229L10.9762 41.9797H10.9762L10.6439 42.9229ZM3.63448 48.4455L4.63446 48.4395L3.63448 48.4455ZM6.31992 56.3744L7.14488 55.8092L7.14371 55.8075L6.31992 56.3744ZM6.32068 56.3755L5.49572 56.9407L5.49661 56.942L6.32068 56.3755ZM12.5334 61.467L12.2012 62.4102H12.2012L12.5334 61.467ZM17.5302 61.0518L18.1366 61.8469L18.1366 61.8469L17.5302 61.0518ZM19.5455 55.9397L18.5455 55.9456L19.5455 55.9397ZM16.8611 48.0124L17.685 47.4456L17.6845 47.4449L16.8611 48.0124ZM47.3552 26.7999L48.3387 26.6188L48.3387 26.6188L47.3552 26.7999ZM26.9232 30.9678L27.9066 30.7867L26.9232 30.9678ZM87.308 63.1464L86.7016 63.9416L86.7016 63.9416L87.308 63.1464ZM102.292 57.8678L103.116 58.4348L103.116 58.4347L102.292 57.8678ZM89.5745 48.0124L90.3979 48.5799L90.9654 47.7565L90.142 47.189L89.5745 48.0124ZM86.8877 55.939L87.8877 55.9446L86.8877 55.939ZM88.9055 61.0518L88.2991 61.847L88.2991 61.847L88.9055 61.0518ZM93.9033 61.467L93.5712 60.5237H93.5712L93.9033 61.467ZM100.122 56.3744L99.3024 55.8018L99.2986 55.8072L100.122 56.3744ZM100.123 56.3739L100.942 56.9465L100.946 56.9408L100.123 56.3739ZM102.808 48.4455L103.808 48.4514V48.4514L102.808 48.4455ZM100.794 43.3349L101.401 42.5401L101.399 42.5383L100.794 43.3349ZM95.7923 42.923L96.1245 43.8662H96.1245L95.7923 42.923ZM89.5745 48.0124L89.007 48.8357L89.8304 49.4032L90.3979 48.5799L89.5745 48.0124ZM102.39 41.2387L102.996 40.4436L102.995 40.4425L102.39 41.2387ZM75.3961 106.952L75.367 107.951L75.3961 106.952ZM81.3 104.284L82.0213 104.977L82.0214 104.977L81.3 104.284ZM68.4857 104.678L68.9572 103.796H68.9571L68.4857 104.678ZM63.9808 102.009L63.4508 102.857L63.4513 102.857L63.9808 102.009ZM63.9806 102.009L64.5106 101.161L64.5101 101.16L63.9806 102.009ZM60.9811 100.177L60.476 101.04L60.476 101.04L60.9811 100.177ZM45.4795 100.238L45.9956 101.094H45.9956L45.4795 100.238ZM42.5638 102.07L43.1018 102.912L43.1041 102.911L42.5638 102.07ZM42.5633 102.07L42.0252 101.227L42.017 101.232L42.5633 102.07ZM42.5627 102.07L42.0164 101.233L42.008 101.238L42.5627 102.07ZM42.5622 102.071L42.0075 101.239L41.9964 101.246L41.9855 101.254L42.5622 102.071ZM42.562 102.071L43.1042 102.911L43.1217 102.9L43.1387 102.888L42.562 102.071ZM42.5613 102.071L43.0953 102.917L43.1034 102.911L42.5613 102.071ZM42.5611 102.071L43.0572 102.94L43.0764 102.929L43.0951 102.917L42.5611 102.071ZM42.561 102.071L42.0649 101.203L42.0424 101.216L42.0207 101.23L42.561 102.071ZM38.068 104.805L38.5475 105.682L38.068 104.805ZM31.2087 107.081L31.2324 108.08H31.2324L31.2087 107.081ZM25.1293 104.278L24.4104 104.973L24.4104 104.973L25.1293 104.278ZM22.3446 94.2776L23.3444 94.2974L22.3446 94.2776ZM26.1129 79.1524L25.2088 78.7251L26.1129 79.1524ZM80.6441 79.1169L79.7363 79.5362L80.6441 79.1169ZM84.2054 94.2247L83.2054 94.2305L84.2054 94.2247ZM83.2 106.109L83.9213 106.802L83.9214 106.802L83.2 106.109ZM62.4509 104.161L62.9796 103.312L62.4509 104.161ZM23.2355 106.109L22.5166 106.804L22.5166 106.804L23.2355 106.109ZM44.1221 104.201L44.6617 105.043L44.1221 104.201ZM44.0069 37.7773L43.0786 37.4055L44.0069 37.7773ZM44.7645 27.277L45.748 27.0959L45.748 27.0959L44.7645 27.277ZM39.567 42.3503L39.3671 41.3705L39.567 42.3503ZM33.9209 39.8968L33.1934 40.5829L33.9209 39.8968ZM29.5139 30.4907L30.4973 30.3096V30.3096L29.5139 30.4907ZM30.2715 19.9905L31.1998 20.3622L31.1998 20.3622L30.2715 19.9905ZM34.7113 15.4174L34.5114 14.4376L34.7113 15.4174ZM40.3575 17.8709L39.63 18.557V18.557L40.3575 17.8709ZM62.4292 37.7773L63.3575 37.4055L62.4292 37.7773ZM66.8691 42.3503L67.0691 41.3705L66.8691 42.3503ZM61.6716 27.277L60.6882 27.0959V27.0959L61.6716 27.277ZM66.0786 17.8709L65.3511 17.1848L66.0786 17.8709ZM71.7248 15.4174L71.9248 14.4376L71.7248 15.4174ZM76.1647 19.9905L75.2363 20.3622H75.2364L76.1647 19.9905ZM76.9222 30.4907L77.9057 30.6718V30.6718L76.9222 30.4907ZM72.5152 39.8968L71.7877 39.2107L72.5152 39.8968ZM59.0809 26.7999L58.0974 26.6188V26.6188L59.0809 26.7999ZM66.3423 44.9314L66.1423 45.9112L66.3423 44.9314ZM72.2516 12.8363L72.0516 13.8161L72.2516 12.8363ZM79.513 30.9678L80.4964 31.1489L79.513 30.9678ZM62.5686 69.0479L62.063 69.9106L62.2972 70.0479H62.5686V69.0479ZM51.6918 66.0796L51.7743 65.083L51.6279 65.0709L51.4842 65.1014L51.6918 66.0796ZM62.574 69.0479L63.0796 68.1852L62.8454 68.0479H62.574V69.0479ZM74.177 81.4672L75.0699 81.0169L75.0698 81.0168L74.177 81.4672ZM77.0075 89.0471L76.046 89.3218L76.0467 89.3244L77.0075 89.0471ZM77.2095 91.4955L76.2095 91.4827V91.4955H77.2095ZM77.2095 91.4957L78.2095 91.5085V91.4957H77.2095ZM77.2089 91.5437L78.2087 91.5645L78.2088 91.5566L77.2089 91.5437ZM76.6259 92.2593L76.4135 91.2821L76.4105 91.2828L76.6259 92.2593ZM75.4862 92.0791L74.6872 92.6804L74.6929 92.6879L75.4862 92.0791ZM74.6593 90.2981L73.6838 90.5177L73.6841 90.5193L74.6593 90.2981ZM70.7475 80.7252L69.8939 81.2461L69.8943 81.2468L70.7475 80.7252ZM62.4202 71.9792L61.8681 72.8129L61.8685 72.8132L62.4202 71.9792ZM51.9038 68.6769L51.9797 67.6798L51.9773 67.6796L51.9038 68.6769ZM51.0932 68.6416L51.1217 67.642L51.1074 67.6416H51.0932V68.6416ZM51.093 68.6416L51.0645 69.6412L51.0787 69.6416H51.093V68.6416ZM50.3826 68.6133L50.3167 69.6111L50.3202 69.6113L50.3826 68.6133ZM49.2906 67.7387L50.2634 67.5071L50.2629 67.5046L49.2906 67.7387ZM50.197 66.4135L50.4936 67.3685L50.4968 67.3675L50.197 66.4135ZM51.3737 66.1413L51.5573 67.1243L51.5573 67.1243L51.3737 66.1413ZM16.6812 100.466L17.6809 100.488L17.681 100.487L16.6812 100.466ZM12.0219 104.967H11.0219V105.967H12.0219V104.967ZM12.7428 96.0616L12.721 97.0614H12.721L12.7428 96.0616ZM7.60653 100.631L8.59564 100.778L8.59574 100.777L7.60653 100.631ZM12.0219 104.961H13.0219V103.964L12.0243 103.961L12.0219 104.961ZM13.9195 100.148L14.9142 100.045L14.9135 100.039L13.9195 100.148ZM12.3877 98.7702L12.4131 99.7699L12.4158 99.7698L12.3877 98.7702ZM11.9212 102.306L11.8435 103.303L11.8458 103.303L11.9212 102.306ZM10.3204 100.604L11.3186 100.666L11.3186 100.666L10.3204 100.604ZM108.632 40.8322L109.027 39.9135L109.026 39.9131L108.632 40.8322ZM109.854 41.3098L110.203 40.3729H110.203L109.854 41.3098ZM107.768 39.4487L108.763 39.549L108.763 39.5482L107.768 39.4487ZM109.019 38.4628L108.971 37.464L108.97 37.464L109.019 38.4628ZM110.398 38.4521L110.386 39.4521H110.398V38.4521ZM110.398 38.4521L110.41 37.4521H110.398V38.4521ZM111.103 38.4575V39.4575H111.682L111.97 38.9547L111.103 38.4575ZM111.313 38.0945L110.451 37.5875L110.45 37.59L111.313 38.0945ZM111.313 38.0943L112.175 38.6014L112.177 38.5989L111.313 38.0943ZM111.845 37.1324L112.743 37.5708L112.747 37.5643L111.845 37.1324ZM112.044 36.628L112.986 36.9635L112.986 36.9635L112.044 36.628ZM112.322 35.9768L111.458 35.4724L111.457 35.4738L112.322 35.9768ZM113.615 35.3885L113.452 36.3751L113.456 36.3758L113.615 35.3885ZM114.474 36.4698L115.472 36.4205L115.472 36.4204L114.474 36.4698ZM114.489 38.0947L113.489 38.0853V38.0947H114.489ZM114.489 38.0949L115.489 38.1043V38.0949H114.489ZM114.484 38.8869H113.484V39.4764L114 39.7618L114.484 38.8869ZM114.951 39.1403L115.43 38.2623L115.425 38.2595L114.951 39.1403ZM114.951 39.1404L114.472 40.0183L114.478 40.0211L114.951 39.1404ZM116.159 39.8304L115.62 40.6724L115.621 40.6728L116.159 39.8304ZM116.668 41.1237L117.616 41.4429L117.617 41.44L116.668 41.1237ZM115.566 41.9983L115.584 42.9982L115.593 42.998L115.566 41.9983ZM114.41 42.0006L114.404 43.0006H114.404L114.41 42.0006ZM114.2 41.9993L114.206 40.9993H114.206L114.2 41.9993ZM113.891 41.9983V40.9983H113.531L113.254 41.2269L113.891 41.9983ZM113.011 43.7559L112.032 43.5491L112.03 43.5598L113.011 43.7559ZM113.01 43.7567L113.989 43.9636L113.991 43.9528L113.01 43.7567ZM112.937 44.0921L111.964 43.8611L111.964 43.8614L112.937 44.0921ZM112.136 46.1646L112.986 46.691L112.988 46.6887L112.136 46.1646ZM110.307 45.8413L111.269 45.5674L111.269 45.5651L110.307 45.8413ZM110.217 44.373L109.222 44.2716L109.222 44.2746L110.217 44.373ZM110.489 42.5708L109.504 42.3997V42.3997L110.489 42.5708ZM110.652 41.6114L111.639 41.772L111.769 40.9713L111.013 40.6787L110.652 41.6114ZM39.8787 9.98561L39.5625 9.03692L38.0273 9.54864L39.1717 10.6928L39.8787 9.98561ZM40.7957 8.90958L41.7946 8.9576L41.7947 8.95551L40.7957 8.90958ZM39.884 9.99091L40.1907 10.9427L41.7484 10.4408L40.5911 9.28374L39.884 9.99091ZM38.4794 9.15341L37.5668 9.56247L37.5702 9.56977L38.4794 9.15341ZM38.4285 9.04693L37.5312 9.48829L37.5312 9.48833L38.4285 9.04693ZM38.3097 8.68696L37.3097 8.67546V8.68696H38.3097ZM38.3149 8.22721L37.315 8.21595V8.21596L38.3149 8.22721ZM38.4211 3.15843L37.4225 3.10396L37.4222 3.11103L37.4219 3.11812L38.4211 3.15843ZM38.9034 2.30503L39.658 2.96122L39.6613 2.95745L38.9034 2.30503ZM40.748 2.65487L41.7079 2.37444L41.7057 2.36691L40.748 2.65487ZM40.9547 4.13374L41.9546 4.11787L41.9545 4.11224L40.9547 4.13374ZM40.8961 5.57199L39.8985 5.50321V5.50322L40.8961 5.57199ZM40.8593 6.14267V7.14267H41.8053L41.8578 6.19813L40.8593 6.14267ZM40.8063 6.14267V5.14267H39.8063V6.14267H40.8063ZM40.812 6.97262L41.812 6.96229V6.96228L40.812 6.97262ZM33.4085 8.02094C33.3662 7.98505 33.3354 7.95888 33.3072 7.93364C33.2798 7.9091 33.2633 7.8929 33.2535 7.88249C33.2437 7.87201 33.2465 7.87364 33.2553 7.88654C33.2644 7.89985 33.2834 7.93046 33.3006 7.97765L31.4224 8.66481C31.5203 8.9323 31.6794 9.12809 31.7971 9.25319C31.9142 9.37759 32.0426 9.48499 32.1153 9.54663L33.4085 8.02094ZM33.5281 8.12389C33.4854 8.0861 33.4422 8.04949 33.4085 8.02094L32.1153 9.54663C32.1522 9.57788 32.1785 9.60024 32.2021 9.62108L33.5281 8.12389ZM33.3688 8.12696C33.3964 8.08557 33.426 8.08093 33.4278 8.08069C33.4312 8.08022 33.4406 8.07938 33.4569 8.08383C33.4744 8.08861 33.5016 8.10031 33.5294 8.12508L32.2007 9.6199C33.0504 10.3751 34.4098 10.171 35.0329 9.23637L33.3688 8.12696ZM33.5922 7.67944C33.5268 7.83393 33.4552 7.99728 33.3688 8.12698L35.0329 9.23636C35.2378 8.92894 35.3745 8.59975 35.4342 8.45836L33.5922 7.67944ZM33.6309 7.59827L33.6309 7.59831L35.3956 8.53949L35.3956 8.53944L33.6309 7.59827ZM33.6403 7.56821C33.6234 7.60543 33.6049 7.64922 33.5922 7.67938L35.4343 8.45833C35.4511 8.41844 35.4577 8.4032 35.4611 8.39576L33.6403 7.56821ZM33.5628 7.5817C33.5578 7.67771 33.5507 7.81386 33.5507 7.98199H35.5507C35.5507 7.87011 35.5553 7.77908 35.5601 7.68489L33.5628 7.5817ZM33.5615 7.63323V7.6333H35.5615V7.63323H33.5615ZM33.5615 7.6332V7.63323H35.5615V7.6332H33.5615ZM33.5933 7.57772C33.5806 7.53823 33.5743 7.50502 33.5711 7.48206C33.5681 7.46018 33.568 7.44762 33.568 7.44963C33.568 7.45034 33.5681 7.45352 33.568 7.4599C33.5679 7.46629 33.5677 7.47485 33.5673 7.48638C33.5669 7.49794 33.5663 7.5113 33.5655 7.52746C33.5647 7.54379 33.5638 7.56115 33.5628 7.58159L35.5601 7.6848C35.565 7.59065 35.5958 7.27198 35.4974 6.9657L33.5933 7.57772ZM33.4128 7.05542L33.6001 7.59805L35.4906 6.94536L35.3033 6.40273L33.4128 7.05542ZM31.7626 2.38081C32.3334 3.92809 32.8709 5.48547 33.4127 7.05533L35.3033 6.40282C34.7626 4.83625 34.2183 3.25895 33.639 1.6886L31.7626 2.38081ZM31.51 2.09817C31.6397 2.18467 31.7399 2.32035 31.7644 2.38583L33.6371 1.68358C33.439 1.1554 33.0303 0.708014 32.6194 0.434069L31.51 2.09817ZM31.5747 1.93962C31.5029 1.973 31.4405 1.98762 31.3974 1.99416C31.3545 2.00069 31.3234 2.00035 31.3081 1.99962C31.2806 1.99831 31.2806 1.99467 31.3112 2.00387C31.3387 2.01213 31.3751 2.02601 31.4152 2.04521C31.4552 2.06438 31.4884 2.08376 31.51 2.09817L32.6194 0.43407C32.4173 0.299378 32.1572 0.169707 31.8866 0.0884215C31.6727 0.0241788 31.1974 -0.0906479 30.7312 0.126173L31.5747 1.93962ZM31.193 2.39749C31.2742 2.26287 31.3562 2.14713 31.4352 2.05975C31.4736 2.01721 31.5059 1.98749 31.5308 1.96779C31.5557 1.94806 31.5677 1.94286 31.5657 1.94375L30.7402 0.122041C30.1023 0.411093 29.6938 1.01064 29.4804 1.3645L31.193 2.39749ZM31.2512 2.28933C31.2544 2.29867 31.253 2.29678 31.2512 2.28474C31.2495 2.27339 31.2489 2.26232 31.249 2.2548C31.2492 2.2463 31.25 2.25281 31.2453 2.27292C31.241 2.29094 31.2266 2.34438 31.1833 2.41316L29.49 1.34882C29.2966 1.65658 29.2539 1.99037 29.2494 2.21481C29.2446 2.4555 29.2811 2.70884 29.3585 2.93562L31.2512 2.28933ZM33.2989 7.97297C32.5964 6.08204 31.9148 4.18515 31.2487 2.28212L29.361 2.94282C30.0307 4.85624 30.7167 6.76518 31.4241 8.66948L33.2989 7.97297ZM3.32577 58.4342C5.5083 61.6092 8.38797 63.8601 11.326 64.8949C14.2664 65.9306 17.3451 65.7635 19.7341 63.9416L18.5212 62.3513C16.8016 63.6627 14.4717 63.8825 11.9904 63.0085C9.50683 62.1337 6.95188 60.1786 4.97391 57.3013L3.32577 58.4342ZM3.4459 40.4436C1.06939 42.2561 -0.0188644 45.2474 0.000249267 48.467C0.0194144 51.6954 1.14288 55.2622 3.32606 58.4347L4.97362 57.3009C2.99629 54.4276 2.01679 51.2466 2.00021 48.4552C1.98359 45.6551 2.92683 43.3547 4.65875 42.0339L3.4459 40.4436ZM19.8535 45.9499C17.6679 42.7788 14.7885 40.5299 11.8516 39.4951C8.9124 38.4596 5.83571 38.6248 3.44671 40.443L4.65794 42.0345C6.37753 40.7258 8.70625 40.5075 11.187 41.3815C13.6702 42.2564 16.2254 44.2102 18.2068 47.0849L19.8535 45.9499ZM19.7341 63.9416C22.1106 62.1291 23.1989 59.1378 23.1797 55.9181C23.1606 52.6898 22.0371 49.1229 19.8539 45.9505L18.2064 47.0843C20.1837 49.9576 21.1632 53.1386 21.1798 55.93C21.1964 58.7301 20.2532 61.0304 18.5212 62.3513L19.7341 63.9416ZM6.25399 44.1302C7.09484 43.4907 8.43955 43.2065 10.3116 43.8661L10.9762 41.9797C8.6371 41.1556 6.54746 41.3942 5.04321 42.5384L6.25399 44.1302ZM4.63446 48.4395C4.62115 46.1966 5.37063 44.8045 6.25534 44.1292L5.04186 42.5394C3.51751 43.7029 2.61865 45.7817 2.6345 48.4514L4.63446 48.4395ZM7.14371 55.8075C5.43758 53.3283 4.64762 50.6554 4.63446 48.4395L2.6345 48.4514C2.65024 51.1041 3.58403 54.1627 5.49614 56.9413L7.14371 55.8075ZM7.14564 55.8103L7.14488 55.8092L5.49497 56.9396L5.49572 56.9407L7.14564 55.8103ZM12.8656 60.5238C10.9803 59.8598 8.85315 58.2942 7.14475 55.809L5.49661 56.942C7.40984 59.7251 9.86187 61.5863 12.2012 62.4102L12.8656 60.5238ZM16.9238 60.2566C16.0828 60.898 14.7376 61.1832 12.8656 60.5238L12.2012 62.4102C14.5411 63.2344 16.6323 62.9942 18.1366 61.8469L16.9238 60.2566ZM18.5455 55.9456C18.5588 58.1893 17.8089 59.5816 16.9238 60.2567L18.1366 61.8469C19.6619 60.6836 20.5613 58.6043 20.5455 55.9338L18.5455 55.9456ZM16.0373 48.5792C17.7427 51.058 18.5324 53.7302 18.5455 55.9456L20.5455 55.9338C20.5297 53.2816 19.5963 50.2236 17.685 47.4456L16.0373 48.5792ZM10.3116 43.8661C12.1974 44.5305 14.3257 46.0958 16.0378 48.5799L17.6845 47.4449C15.7678 44.664 13.3153 42.8039 10.9762 41.9797L10.3116 43.8661ZM48.3387 26.6188C47.4936 22.03 45.5371 18.0662 43.0015 15.3775C40.4736 12.6969 37.2594 11.1881 33.9846 11.8565L34.3845 13.8161C36.7524 13.3328 39.3077 14.3757 41.5465 16.7496C43.7776 19.1155 45.5851 22.7093 46.3718 26.9811L48.3387 26.6188ZM40.2938 45.9112C43.5603 45.2446 45.993 42.5939 47.3808 39.1283C48.7744 35.648 49.1839 31.2083 48.3387 26.6188L46.3718 26.9811C47.1583 31.2521 46.7584 35.3023 45.5241 38.3848C44.2839 41.4819 42.2701 43.4667 39.8939 43.9516L40.2938 45.9112ZM25.9397 31.1489C26.7848 35.7377 28.7413 39.7015 31.2769 42.3903C33.8048 45.0709 37.019 46.5796 40.2938 45.9112L39.8939 43.9516C37.526 44.4349 34.9707 43.3921 32.7319 41.0181C30.5008 38.6522 28.6933 35.0584 27.9066 30.7867L25.9397 31.1489ZM33.9846 11.8565C30.7181 12.5231 28.2854 15.1739 26.8976 18.6394C25.504 22.1197 25.0945 26.5594 25.9397 31.1489L27.9066 30.7867C27.1201 26.5156 27.5199 22.4654 28.7543 19.3829C29.9945 16.2858 32.0083 14.3011 34.3845 13.8161L33.9846 11.8565ZM86.7016 63.9416C89.0906 65.7635 92.1693 65.9306 95.1104 64.895C98.0491 63.8602 100.93 61.6094 103.116 58.4348L101.469 57.3007C99.4874 60.1783 96.9307 62.1336 94.4461 63.0085C91.964 63.8825 89.634 63.6627 87.9144 62.3513L86.7016 63.9416ZM86.5821 45.9499C84.3954 49.1226 83.2718 52.6898 83.2535 55.9184C83.2352 59.1384 84.3254 62.1293 86.7016 63.9416L87.9144 62.3513C86.1822 61.0302 85.2376 58.7295 85.2535 55.9297C85.2693 53.1386 86.2487 49.9579 88.2289 47.0849L86.5821 45.9499ZM90.142 47.189L87.973 45.694L86.838 47.3408L89.007 48.8358L90.142 47.189ZM87.8877 55.9446C87.9003 53.7297 88.6898 51.0581 90.3979 48.5799L88.7511 47.4449C86.8364 50.223 85.9028 53.2811 85.8877 55.9333L87.8877 55.9446ZM89.5119 60.2567C88.6257 59.5808 87.875 58.1874 87.8877 55.9446L85.8877 55.9333C85.8726 58.6035 86.7733 60.6833 88.2991 61.847L89.5119 60.2567ZM93.5712 60.5237C91.698 61.1833 90.3527 60.8979 89.5119 60.2567L88.2991 61.847C89.8034 62.9942 91.8945 63.2345 94.2355 62.4102L93.5712 60.5237ZM99.2986 55.8072C97.5868 58.2934 95.4576 59.8595 93.5712 60.5237L94.2355 62.4102C96.5756 61.5862 99.0293 59.7249 100.946 56.9415L99.2986 55.8072ZM99.3027 55.8013L99.3024 55.8018L100.942 56.947L100.942 56.9465L99.3027 55.8013ZM101.808 48.4395C101.795 50.6553 101.005 53.3279 99.2988 55.807L100.946 56.9408C102.858 54.1624 103.792 51.1039 103.808 48.4514L101.808 48.4395ZM100.187 44.1296C101.072 44.8051 101.821 46.1971 101.808 48.4395L103.808 48.4514C103.823 45.7823 102.925 43.7038 101.401 42.5401L100.187 44.1296ZM96.1245 43.8662C97.9965 43.2069 99.3444 43.4898 100.19 44.1314L101.399 42.5383C99.8908 41.3937 97.7992 41.1559 95.4601 41.9798L96.1245 43.8662ZM90.3979 48.5799C92.11 46.0959 94.2381 44.5306 96.1245 43.8662L95.4601 41.9798C93.1203 42.8039 90.6678 44.664 88.7511 47.4449L90.3979 48.5799ZM86.838 47.3408L89.007 48.8357L90.142 47.189L87.973 45.694L86.838 47.3408ZM102.995 40.4425C100.603 38.625 97.5251 38.4595 94.5849 39.4951C91.6472 40.5298 88.7678 42.7788 86.5821 45.9499L88.2289 47.0849C90.2102 44.2102 92.7654 42.2564 95.2494 41.3815C97.7308 40.5075 100.062 40.7256 101.785 42.0349L102.995 40.4425ZM103.116 58.4347C105.299 55.2622 106.423 51.6954 106.442 48.467C106.461 45.2474 105.373 42.2561 102.996 40.4436L101.783 42.0339C103.515 43.3547 104.459 45.6551 104.442 48.4552C104.425 51.2466 103.446 54.4276 101.469 57.3009L103.116 58.4347ZM75.367 107.951C77.5845 108.016 79.809 107.281 82.0213 104.977L80.5787 103.592C78.7425 105.504 77.0568 106 75.4252 105.952L75.367 107.951ZM68.0142 105.56C70.5923 106.939 73.0516 107.884 75.367 107.951L75.4252 105.952C73.5777 105.898 71.4498 105.129 68.9572 103.796L68.0142 105.56ZM63.4513 102.857C64.9193 103.773 66.3887 104.691 68.0142 105.56L68.9571 103.796C67.3999 102.964 65.9856 102.081 64.5103 101.161L63.4513 102.857ZM63.4506 102.857L63.4508 102.857L64.5108 101.161L64.5106 101.161L63.4506 102.857ZM60.476 101.04C61.5087 101.645 62.4797 102.251 63.4511 102.857L64.5101 101.16C63.5418 100.556 62.5473 99.9351 61.4862 99.3141L60.476 101.04ZM53.2177 98.3902C55.5917 98.3902 58.1305 99.6674 60.476 101.04L61.4862 99.3141C59.1691 97.958 56.198 96.3902 53.2177 96.3902V98.3902ZM45.9956 101.094C48.3112 99.6986 50.8327 98.3902 53.2177 98.3902V96.3902C50.211 96.3902 47.2492 98.0034 44.9633 99.381L45.9956 101.094ZM43.1041 102.911C44.0485 102.305 44.9928 101.698 45.9956 101.094L44.9633 99.381C43.9324 100.002 42.9648 100.624 42.0235 101.228L43.1041 102.911ZM43.1013 102.913L43.1018 102.912L42.0258 101.227L42.0252 101.227L43.1013 102.913ZM43.109 102.908L43.1095 102.908L42.017 101.232L42.0165 101.233L43.109 102.908ZM43.1169 102.903L43.1174 102.902L42.008 101.238L42.0075 101.239L43.1169 102.903ZM43.1387 102.888L43.1389 102.888L41.9855 101.254L41.9853 101.254L43.1387 102.888ZM43.1034 102.911L43.1042 102.911L42.0199 101.23L42.0192 101.231L43.1034 102.911ZM43.0951 102.917L43.0953 102.917L42.0273 101.226L42.0271 101.226L43.0951 102.917ZM43.0572 102.94L43.0572 102.94L42.065 101.203L42.0649 101.203L43.0572 102.94ZM38.5475 105.682C40.1701 104.795 41.6363 103.854 43.1013 102.913L42.0207 101.23C40.5479 102.176 39.1394 103.08 37.5884 103.927L38.5475 105.682ZM31.2324 108.08C33.5549 108.025 35.9966 107.076 38.5475 105.682L37.5884 103.927C35.129 105.271 33.0269 106.037 31.185 106.081L31.2324 108.08ZM24.4104 104.973C26.7258 107.368 29.0052 108.133 31.2324 108.08L31.1851 106.081C29.5532 106.119 27.8018 105.603 25.8482 103.583L24.4104 104.973ZM21.3448 94.2579C21.2494 99.0935 22.3829 102.876 24.4104 104.973L25.8482 103.583C24.3553 102.039 23.2537 98.8963 23.3444 94.2974L21.3448 94.2579ZM25.2088 78.7251C22.7333 83.9635 21.439 89.4832 21.3448 94.2579L23.3444 94.2974C23.4325 89.8307 24.6506 84.5873 27.0171 79.5796L25.2088 78.7251ZM53.2177 59.2286C39.6606 59.2286 30.1694 68.2283 25.2088 78.7251L27.0171 79.5796C31.769 69.5242 40.6837 61.2286 53.2177 61.2286V59.2286ZM81.552 78.6976C76.7196 68.2345 67.247 59.2286 53.2177 59.2286V61.2286C66.2406 61.2286 75.1239 69.5494 79.7363 79.5362L81.552 78.6976ZM85.2054 94.2189C85.1778 89.4417 83.967 83.9268 81.552 78.6976L79.7363 79.5362C82.0408 84.5262 83.1796 89.7604 83.2054 94.2305L85.2054 94.2189ZM82.0214 104.977C84.0549 102.858 85.2334 99.054 85.2054 94.2189L83.2054 94.2305C83.232 98.8269 82.0951 102.012 80.5786 103.592L82.0214 104.977ZM82.4787 105.416C80.941 107.018 79.3862 107.903 77.8439 108.31C76.2962 108.717 74.6946 108.659 73.0425 108.269C69.6907 107.48 66.2972 105.378 62.9796 103.312L61.9223 105.01C65.1669 107.03 68.8504 109.337 72.5839 110.216C74.4744 110.662 76.4175 110.753 78.3531 110.244C80.2943 109.733 82.1616 108.634 83.9213 106.802L82.4787 105.416ZM53.2177 58.5943C67.568 58.5943 77.2267 67.8196 82.1278 78.4317C84.5779 83.7366 85.8115 89.3406 85.8397 94.2152C85.8681 99.1249 84.6769 103.127 82.4786 105.417L83.9214 106.802C86.6375 103.972 87.8694 99.3504 87.8397 94.2037C87.8097 89.0219 86.504 83.1371 83.9435 77.5931C78.8236 66.5073 68.5768 56.5943 53.2177 56.5943V58.5943ZM23.9544 105.414C21.7567 103.141 20.6138 99.1544 20.7106 94.2454C20.8067 89.373 22.1252 83.7656 24.6353 78.4541C29.6609 67.8196 39.3342 58.5943 53.2177 58.5943V56.5943C38.3087 56.5943 28.0599 66.5266 22.8271 77.5996C20.208 83.1418 18.8132 89.0256 18.711 94.206C18.6096 99.3497 19.7834 103.977 22.5166 106.804L23.9544 105.414ZM43.5826 103.359C40.2986 105.464 36.9381 107.604 33.582 108.4C31.929 108.792 30.3141 108.846 28.7367 108.42C27.1629 107.995 25.5599 107.075 23.9544 105.414L22.5166 106.804C24.3366 108.687 26.2454 109.819 28.2155 110.351C30.182 110.882 32.1429 110.796 34.0434 110.346C37.7944 109.456 41.4518 107.1 44.6617 105.043L43.5826 103.359ZM53.2177 99.0245C51.6916 99.0245 50.0982 99.6091 48.5285 100.403C46.9476 101.202 45.2726 102.276 43.5826 103.359L44.6617 105.043C46.3747 103.945 47.9589 102.932 49.4308 102.188C50.9137 101.438 52.1666 101.024 53.2177 101.024V99.0245ZM62.9796 103.312C61.2589 102.24 59.554 101.177 57.9493 100.387C56.3562 99.6015 54.7465 99.0245 53.2177 99.0245V101.024C54.281 101.024 55.5559 101.437 57.0653 102.181C58.5632 102.919 60.1789 103.924 61.9223 105.01L62.9796 103.312ZM44.9353 38.149C46.119 35.1928 46.5159 31.2661 45.748 27.0959L43.781 27.4581C44.4903 31.3097 44.1032 34.8469 43.0786 37.4055L44.9353 38.149ZM39.767 43.3301C41.8574 42.9035 43.74 41.1338 44.9353 38.149L43.0786 37.4055C42.0346 40.0127 40.5743 41.1241 39.3671 41.3705L39.767 43.3301ZM33.1934 40.5829C35.3443 42.8637 37.6909 43.7539 39.767 43.3301L39.3671 41.3705C38.1897 41.6108 36.5025 41.1768 34.6484 39.2107L33.1934 40.5829ZM28.5304 30.6718C29.2986 34.8431 31.0588 38.3195 33.1934 40.5829L34.6484 39.2107C32.8181 37.2699 31.2071 34.1635 30.4973 30.3096L28.5304 30.6718ZM29.3431 19.6187C28.1593 22.575 27.7624 26.5016 28.5304 30.6718L30.4973 30.3096C29.788 26.458 30.1752 22.9208 31.1998 20.3622L29.3431 19.6187ZM34.5114 14.4376C32.421 14.8642 30.5384 16.6339 29.3431 19.6187L31.1998 20.3622C32.2438 17.755 33.7041 16.6436 34.9113 16.3972L34.5114 14.4376ZM41.085 17.1848C38.9341 14.904 36.5875 14.0139 34.5114 14.4376L34.9113 16.3972C36.0887 16.1569 37.7759 16.591 39.63 18.557L41.085 17.1848ZM45.748 27.0959C44.9798 22.9246 43.2196 19.4483 41.085 17.1848L39.63 18.557C41.4603 20.4978 43.0713 23.6042 43.781 27.4582L45.748 27.0959ZM61.5009 38.149C62.6961 41.1338 64.5787 42.9035 66.6691 43.3301L67.0691 41.3705C65.8618 41.1241 64.4016 40.0127 63.3575 37.4055L61.5009 38.149ZM60.6882 27.0959C59.9202 31.2661 60.3171 35.1928 61.5009 38.149L63.3575 37.4055C62.333 34.8469 61.9458 31.3097 62.6551 27.4581L60.6882 27.0959ZM65.3511 17.1848C63.2166 19.4483 61.4563 22.9246 60.6882 27.0959L62.6551 27.4582C63.3648 23.6042 64.9759 20.4978 66.8061 18.557L65.3511 17.1848ZM71.9248 14.4376C69.8486 14.0139 67.502 14.904 65.3511 17.1848L66.8061 18.557C68.6602 16.591 70.3475 16.1569 71.5248 16.3972L71.9248 14.4376ZM77.093 19.6187C75.8978 16.6339 74.0152 14.8642 71.9248 14.4376L71.5248 16.3972C72.7321 16.6436 74.1923 17.755 75.2363 20.3622L77.093 19.6187ZM77.9057 30.6718C78.6737 26.5016 78.2768 22.575 77.093 19.6187L75.2364 20.3622C76.2609 22.9208 76.6481 26.458 75.9388 30.3096L77.9057 30.6718ZM73.2428 40.5829C75.3773 38.3195 77.1375 34.8431 77.9057 30.6718L75.9388 30.3096C75.229 34.1635 73.618 37.2699 71.7877 39.2107L73.2428 40.5829ZM66.6691 43.3301C68.7453 43.7539 71.0919 42.8637 73.2428 40.5829L71.7877 39.2107C69.9337 41.1768 68.2464 41.6108 67.0691 41.3705L66.6691 43.3301ZM58.0974 26.6188C57.2523 31.2083 57.6617 35.648 59.0554 39.1283C60.4431 42.5939 62.8759 45.2446 66.1423 45.9112L66.5423 43.9516C64.166 43.4667 62.1522 41.4819 60.912 38.3848C59.6777 35.3023 59.2778 31.2521 60.0644 26.9811L58.0974 26.6188ZM72.4515 11.8565C69.1767 11.1881 65.9625 12.6969 63.4346 15.3775C60.899 18.0662 58.9425 22.03 58.0974 26.6188L60.0644 26.9811C60.851 22.7093 62.6585 19.1155 64.8896 16.7496C67.1284 14.3757 69.6837 13.3328 72.0516 13.8161L72.4515 11.8565ZM80.4964 31.1489C81.3416 26.5594 80.9322 22.1197 79.5385 18.6394C78.1508 15.1739 75.718 12.5231 72.4515 11.8565L72.0516 13.8161C74.4278 14.3011 76.4417 16.2858 77.6819 19.3829C78.9162 22.4654 79.3161 26.5156 78.5295 30.7867L80.4964 31.1489ZM66.1423 45.9112C69.4172 46.5796 72.6313 45.0709 75.1593 42.3903C77.6948 39.7015 79.6514 35.7377 80.4964 31.1489L78.5295 30.7867C77.7428 35.0584 75.9354 38.6522 73.7042 41.0181C71.4655 43.3921 68.9101 44.4349 66.5423 43.9516L66.1423 45.9112ZM63.0743 68.1852C59.5939 66.1452 55.805 65.4166 51.7743 65.083L51.6093 67.0762C55.5189 67.3998 58.96 68.0919 62.063 69.9106L63.0743 68.1852ZM62.574 68.0479H62.5686V70.0479H62.574V68.0479ZM75.0698 81.0168C72.3247 75.5759 68.3602 71.2801 63.0796 68.1852L62.0683 69.9107C67.0073 72.8054 70.7075 76.8104 73.2842 81.9177L75.0698 81.0168ZM77.969 88.7724C77.2192 86.148 76.3349 83.5251 75.0699 81.0169L73.2841 81.9176C74.4679 84.2647 75.3116 86.7516 76.046 89.3218L77.969 88.7724ZM78.2095 91.5084C78.2196 90.7218 78.2402 89.7119 77.9683 88.7698L76.0467 89.3244C76.2219 89.9315 76.2205 90.6338 76.2096 91.4827L78.2095 91.5084ZM78.2095 91.4957V91.4955H76.2095V91.4957H78.2095ZM78.2088 91.5566L78.2095 91.5085L76.2096 91.4828L76.209 91.5308L78.2088 91.5566ZM76.8383 93.2365C77.0947 93.1807 77.2948 93.055 77.4225 92.9583C77.5609 92.8536 77.6818 92.7316 77.7816 92.6093C77.9422 92.4124 78.199 92.0293 78.2087 91.5645L76.2091 91.5229C76.2106 91.4509 76.2228 91.3989 76.2304 91.3721C76.2384 91.344 76.2459 91.3277 76.248 91.3234C76.2512 91.3166 76.2468 91.3267 76.2321 91.3448C76.2172 91.363 76.2087 91.3688 76.2157 91.3634C76.22 91.3602 76.2355 91.3488 76.2628 91.3348C76.2888 91.3214 76.3398 91.2981 76.4135 91.2821L76.8383 93.2365ZM74.6929 92.6879C74.8918 92.947 75.1501 93.0786 75.3249 93.1466C75.5119 93.2193 75.7017 93.2572 75.8658 93.2771C76.1878 93.3163 76.543 93.3016 76.8413 93.2358L76.4105 91.2828C76.3869 91.2879 76.3407 91.295 76.2782 91.2976C76.217 91.3002 76.157 91.2978 76.1072 91.2918C76.0532 91.2852 76.0367 91.2774 76.0499 91.2826C76.0581 91.2858 76.0855 91.297 76.1233 91.3221C76.1611 91.3472 76.2207 91.3936 76.2795 91.4702L74.6929 92.6879ZM73.6841 90.5193C73.8588 91.2892 74.2162 92.0546 74.6872 92.6804L76.2852 91.4778C75.9823 91.0753 75.7461 90.5685 75.6346 90.0768L73.6841 90.5193ZM69.8943 81.2468C71.6585 84.1323 72.9405 87.2165 73.6838 90.5177L75.6349 90.0784C74.841 86.5524 73.4727 83.2653 71.6007 80.2035L69.8943 81.2468ZM61.8685 72.8132C65.1807 75.0044 67.8218 77.8508 69.8939 81.2461L71.6011 80.2042C69.3902 76.5815 66.5505 73.5125 62.972 71.1451L61.8685 72.8132ZM51.828 69.674C55.4805 69.9518 58.8671 70.8256 61.8681 72.8129L62.9724 71.1454C59.6021 68.9135 55.854 67.9744 51.9797 67.6798L51.828 69.674ZM51.0646 69.6412C51.3396 69.649 51.5876 69.6563 51.8303 69.6742L51.9773 67.6796C51.6821 67.6578 51.3891 67.6496 51.1217 67.642L51.0646 69.6412ZM51.093 69.6416H51.0932V67.6416H51.093V69.6416ZM50.3202 69.6113C50.5769 69.6274 50.8308 69.6345 51.0645 69.6412L51.1215 67.642C50.8823 67.6352 50.6622 67.6288 50.4449 67.6152L50.3202 69.6113ZM48.3178 67.9703C48.4298 68.4406 48.6736 68.8591 49.0626 69.1609C49.4428 69.4558 49.8883 69.5828 50.3167 69.6111L50.4485 67.6155C50.315 67.6066 50.2808 67.5746 50.2886 67.5807C50.2916 67.583 50.2925 67.5851 50.29 67.5811C50.2868 67.5759 50.2748 67.5546 50.2634 67.5071L48.3178 67.9703ZM49.9004 65.4585C49.3761 65.6214 48.9067 65.9286 48.5999 66.385C48.2858 66.8521 48.1846 67.4168 48.3184 67.9727L50.2629 67.5046C50.2593 67.4899 50.2616 67.4884 50.2603 67.4958C50.259 67.5031 50.2565 67.5055 50.2596 67.5009C50.2655 67.4921 50.3183 67.423 50.4936 67.3685L49.9004 65.4585ZM51.1901 65.1583C50.8603 65.2199 50.3742 65.3096 49.8972 65.4595L50.4968 67.3675C50.8422 67.259 51.2132 67.1886 51.5573 67.1243L51.1901 65.1583ZM51.4842 65.1014C51.4073 65.1177 51.3129 65.1354 51.1901 65.1583L51.5573 67.1243C51.6727 67.1028 51.7935 67.0803 51.8993 67.0578L51.4842 65.1014ZM15.6814 100.445C15.6645 101.24 15.2293 102.128 14.4919 102.84C13.7554 103.551 12.8396 103.967 12.0219 103.967V105.967C13.4782 105.967 14.8682 105.256 15.8809 104.279C16.8926 103.302 17.6501 101.941 17.6809 100.488L15.6814 100.445ZM12.721 97.0614C14.2914 97.0956 15.7192 98.601 15.6814 100.446L17.681 100.487C17.7385 97.6779 15.5725 95.123 12.7646 95.0619L12.721 97.0614ZM8.59574 100.777C8.77059 99.597 9.24249 98.6618 9.91606 98.0344C10.5791 97.4167 11.5033 97.0348 12.721 97.0614L12.7647 95.0619C11.0723 95.0249 9.62974 95.5678 8.5529 96.5709C7.48654 97.5641 6.84532 98.9453 6.61733 100.484L8.59574 100.777ZM12.0243 103.961C11.2117 103.959 10.2685 103.53 9.54811 102.835C8.81405 102.128 8.51055 101.35 8.59564 100.778L6.61743 100.484C6.40038 101.942 7.17556 103.326 8.16023 104.275C9.15856 105.238 10.5741 105.958 12.0196 105.961L12.0243 103.961ZM13.0219 104.967V104.961H11.0219V104.967H13.0219ZM14.9135 100.039C14.7752 98.785 13.6645 97.7339 12.3595 97.7706L12.4158 99.7698C12.6162 99.7642 12.8943 99.9746 12.9256 100.258L14.9135 100.039ZM11.8458 103.303C12.7522 103.371 13.5548 102.864 14.061 102.319C14.5728 101.767 15.0066 100.937 14.9142 100.045L12.9249 100.251C12.9385 100.383 12.8635 100.669 12.5947 100.958C12.3204 101.254 12.0708 101.314 11.9967 101.309L11.8458 103.303ZM9.32233 100.543C9.2763 101.291 9.70609 101.962 10.0961 102.376C10.4981 102.804 11.125 103.247 11.8435 103.303L11.999 101.309C12.0003 101.309 11.9479 101.303 11.8486 101.245C11.7538 101.191 11.6491 101.108 11.5532 101.007C11.4569 100.904 11.3884 100.802 11.3494 100.721C11.3072 100.632 11.3216 100.616 11.3186 100.666L9.32233 100.543ZM12.3623 97.7705C11.5789 97.7904 10.8559 98.118 10.3203 98.5937C9.78797 99.0664 9.37101 99.7507 9.32232 100.543L11.3186 100.666C11.3282 100.509 11.4227 100.289 11.6484 100.089C11.8708 99.8915 12.1522 99.7765 12.4131 99.7699L12.3623 97.7705ZM108.238 41.7509C108.651 41.9285 109.067 42.0837 109.504 42.2468L110.203 40.3729C109.758 40.2065 109.388 40.0684 109.027 39.9135L108.238 41.7509ZM106.773 39.3485C106.719 39.8855 106.823 40.4043 107.117 40.8511C107.403 41.2862 107.815 41.5698 108.239 41.7513L109.026 39.9131C108.856 39.8401 108.802 39.774 108.787 39.7518C108.781 39.7414 108.749 39.6958 108.763 39.549L106.773 39.3485ZM108.97 37.464C108.45 37.4897 107.93 37.6336 107.509 37.9699C107.07 38.3208 106.827 38.8127 106.773 39.3492L108.763 39.5482C108.767 39.5172 108.772 39.5106 108.769 39.5179C108.767 39.5209 108.765 39.5246 108.762 39.5281C108.759 39.5315 108.757 39.5328 108.758 39.5322C108.76 39.5306 108.836 39.4731 109.069 39.4616L108.97 37.464ZM110.409 37.4522C109.936 37.4467 109.456 37.4407 108.971 37.464L109.067 39.4617C109.482 39.4418 109.901 39.4464 110.386 39.4521L110.409 37.4522ZM110.398 37.4521H110.398V39.4521H110.398V37.4521ZM110.398 37.4521H110.398V39.4521H110.398V37.4521ZM110.398 37.4521H110.398V39.4521H110.398V37.4521ZM111.103 37.4575C110.866 37.4575 110.638 37.4549 110.41 37.4522L110.387 39.4521C110.613 39.4547 110.852 39.4575 111.103 39.4575V37.4575ZM110.45 37.59C110.381 37.7076 110.309 37.8318 110.235 37.9603L111.97 38.9547C112.039 38.8348 112.107 38.7178 112.177 38.5991L110.45 37.59ZM110.451 37.5873L110.451 37.5875L112.175 38.6016L112.175 38.6014L110.451 37.5873ZM110.946 36.694C110.809 36.9744 110.647 37.2532 110.45 37.5898L112.177 38.5989C112.366 38.2747 112.568 37.9305 112.743 37.5708L110.946 36.694ZM111.102 36.2925C111.038 36.4719 110.994 36.5933 110.943 36.7005L112.747 37.5643C112.851 37.3468 112.928 37.1256 112.986 36.9635L111.102 36.2925ZM111.457 35.4738C111.285 35.7697 111.176 36.0837 111.102 36.2926L112.986 36.9635C113.072 36.7222 113.123 36.5879 113.186 36.4799L111.457 35.4738ZM113.778 34.4018C112.849 34.2485 111.956 34.6206 111.458 35.4724L113.185 36.4813C113.227 36.4104 113.261 36.3911 113.278 36.3837C113.297 36.3752 113.348 36.358 113.452 36.3751L113.778 34.4018ZM115.472 36.4204C115.453 36.0308 115.354 35.578 115.07 35.1819C114.768 34.7596 114.316 34.4884 113.774 34.4011L113.456 36.3758C113.492 36.3815 113.494 36.3877 113.48 36.379C113.464 36.3697 113.451 36.3565 113.444 36.3465C113.438 36.3386 113.445 36.344 113.453 36.3732C113.462 36.4031 113.472 36.4509 113.475 36.5192L115.472 36.4204ZM115.489 38.1041C115.494 37.5335 115.5 36.9781 115.472 36.4205L113.475 36.5191C113.499 37.0077 113.495 37.5034 113.489 38.0853L115.489 38.1041ZM115.489 38.0948V38.0947H113.489V38.0948H115.489ZM115.489 38.0949V38.0948H113.489V38.0949H115.489ZM115.484 38.8869C115.484 38.6158 115.487 38.3577 115.489 38.1043L113.489 38.0855C113.487 38.3379 113.484 38.605 113.484 38.8869H115.484ZM115.425 38.2595C115.266 38.1743 115.116 38.0933 114.969 38.0119L114 39.7618C114.16 39.8501 114.321 39.9369 114.478 40.021L115.425 38.2595ZM115.43 38.2625L115.43 38.2624L114.472 40.0182L114.472 40.0183L115.43 38.2625ZM116.699 38.9884C116.269 38.7127 115.823 38.4736 115.425 38.2596L114.478 40.0211C114.887 40.2411 115.265 40.4448 115.62 40.6724L116.699 38.9884ZM117.617 41.44C117.78 40.9495 117.771 40.4445 117.573 39.9827C117.382 39.5375 117.049 39.2124 116.698 38.9879L115.621 40.6728C115.725 40.7399 115.74 40.7832 115.736 40.7726C115.733 40.7666 115.731 40.7589 115.731 40.7551C115.731 40.7523 115.733 40.7683 115.719 40.8075L117.617 41.44ZM115.593 42.998C116.085 42.9844 116.539 42.8268 116.909 42.5172C117.268 42.2172 117.487 41.827 117.616 41.4429L115.72 40.8046C115.675 40.94 115.631 40.9791 115.627 40.9826C115.625 40.9841 115.624 40.9853 115.618 40.9874C115.611 40.9899 115.587 40.9974 115.538 40.9987L115.593 42.998ZM114.404 43.0006C114.774 43.0029 115.179 43.0056 115.584 42.9982L115.547 40.9985C115.171 41.0054 114.791 41.003 114.416 41.0006L114.404 43.0006ZM114.195 42.9993C114.263 42.9997 114.333 43.0001 114.404 43.0006L114.417 41.0006C114.346 41.0002 114.275 40.9997 114.206 40.9993L114.195 42.9993ZM113.891 42.9983C113.989 42.9983 114.09 42.9987 114.195 42.9993L114.206 40.9993C114.099 40.9987 113.994 40.9983 113.891 40.9983V42.9983ZM113.989 43.9627C114.125 43.3204 114.209 43.0321 114.527 42.7698L113.254 41.2269C112.34 41.9808 112.161 42.9375 112.032 43.5491L113.989 43.9627ZM113.991 43.9528L113.991 43.952L112.03 43.5598L112.03 43.5606L113.991 43.9528ZM113.91 44.3231C113.939 44.1975 113.965 44.0734 113.989 43.9636L112.032 43.5498C112.008 43.6637 111.987 43.7636 111.964 43.8611L113.91 44.3231ZM112.988 46.6887C113.447 45.9422 113.727 45.0915 113.91 44.3227L111.964 43.8614C111.807 44.5238 111.588 45.1466 111.284 45.6405L112.988 46.6887ZM109.346 46.1151C109.586 46.9588 110.325 47.4061 110.969 47.5234C111.613 47.6407 112.497 47.4809 112.986 46.691L111.286 45.6383C111.299 45.6174 111.317 45.5977 111.336 45.5824C111.355 45.5677 111.371 45.5612 111.377 45.559C111.383 45.5569 111.382 45.5583 111.371 45.559C111.361 45.5596 111.346 45.5592 111.327 45.5558C111.309 45.5525 111.292 45.547 111.276 45.5403C111.261 45.5336 111.252 45.5272 111.248 45.5238C111.243 45.5206 111.246 45.5218 111.252 45.5298C111.258 45.5385 111.265 45.5515 111.269 45.5674L109.346 46.1151ZM109.222 44.2746C109.168 44.8186 109.165 45.4851 109.346 46.1175L111.269 45.5651C111.185 45.2751 111.171 44.8921 111.212 44.4714L109.222 44.2746ZM109.504 42.3997C109.39 43.0529 109.285 43.6569 109.222 44.2716L111.212 44.4744C111.266 43.9423 111.358 43.4095 111.474 42.7419L109.504 42.3997ZM109.665 41.4508C109.61 41.7893 109.556 42.1011 109.504 42.3997L111.474 42.7419C111.526 42.4443 111.582 42.1225 111.639 41.772L109.665 41.4508ZM109.504 42.2468C109.753 42.3395 110.011 42.4359 110.291 42.5441L111.013 40.6787C110.72 40.5656 110.451 40.4653 110.203 40.3729L109.504 42.2468ZM40.195 10.9343C40.9514 10.6821 41.7418 10.0544 41.7946 8.9576L39.7969 8.86157C39.7956 8.88765 39.7911 8.89846 39.7902 8.90058C39.7892 8.90301 39.7867 8.90866 39.7775 8.91873C39.7566 8.94175 39.6954 8.99264 39.5625 9.03692L40.195 10.9343ZM40.5911 9.28374L40.5858 9.27844L39.1717 10.6928L39.177 10.6981L40.5911 9.28374ZM37.5702 9.56977C37.7898 10.0494 38.1648 10.4438 38.5802 10.6967C38.9763 10.9378 39.5719 11.1421 40.1907 10.9427L39.5773 9.0391C39.6145 9.02712 39.6454 9.02345 39.6662 9.0228C39.6866 9.02217 39.6974 9.02438 39.6977 9.02443C39.6979 9.02448 39.6905 9.02295 39.6759 9.01701C39.6615 9.01112 39.6425 9.00189 39.6201 8.98829C39.5742 8.96036 39.525 8.92055 39.4809 8.87204C39.4367 8.82348 39.4063 8.77592 39.3886 8.73705L37.5702 9.56977ZM37.5312 9.48833C37.5502 9.52697 37.5596 9.54632 37.5668 9.56245L39.3919 8.74437C39.3675 8.68999 39.3419 8.63827 39.3258 8.60553L37.5312 9.48833ZM37.3097 8.68696C37.3097 9.08419 37.5017 9.42838 37.5312 9.48829L39.3258 8.60558C39.3102 8.57368 39.3009 8.55468 39.293 8.53764C39.2856 8.52156 39.2838 8.51655 39.2846 8.51869C39.2854 8.52089 39.2912 8.53674 39.297 8.56322C39.3029 8.59014 39.3097 8.63261 39.3097 8.68696H37.3097ZM37.315 8.21596C37.3133 8.36923 37.3116 8.52235 37.3098 8.67546L39.3097 8.69846C39.3114 8.54506 39.3132 8.39169 39.3149 8.23846L37.315 8.21596ZM37.4219 3.11812C37.3531 4.82157 37.334 6.52707 37.315 8.21595L39.3149 8.23847C39.3339 6.54469 39.3529 4.86829 39.4202 3.19874L37.4219 3.11812ZM38.1488 1.64885C38.037 1.77746 37.8776 1.96615 37.7422 2.18145C37.6154 2.38301 37.4441 2.70803 37.4225 3.10396L39.4196 3.2129C39.4179 3.24376 39.4135 3.26698 39.4101 3.28131C39.4067 3.29555 39.4037 3.30294 39.4037 3.30295C39.4037 3.303 39.4057 3.29797 39.4111 3.28761C39.4165 3.27733 39.4243 3.26357 39.4352 3.24623C39.484 3.16867 39.5578 3.07643 39.658 2.96121L38.1488 1.64885ZM41.7057 2.36691C41.4627 1.55905 40.7769 1.10731 40.1215 0.984284C39.4669 0.861403 38.6797 1.03217 38.1455 1.65261L39.6613 2.95745C39.6615 2.95716 39.6613 2.95735 39.6616 2.95711C39.6624 2.95665 39.6659 2.9545 39.6735 2.95217C39.6907 2.94692 39.7194 2.94373 39.7525 2.94995C39.7859 2.95621 39.8035 2.96807 39.8066 2.97064C39.8074 2.97128 39.8044 2.96893 39.8001 2.96269C39.7955 2.95602 39.7921 2.9487 39.7904 2.94283L41.7057 2.36691ZM41.9545 4.11224C41.9427 3.56159 41.8775 2.955 41.7079 2.37445L39.7881 2.93529C39.8942 3.29824 39.9456 3.71997 39.955 4.15524L41.9545 4.11224ZM41.8937 5.64076C41.9263 5.16853 41.963 4.64537 41.9546 4.11787L39.9549 4.14961C39.9617 4.5781 39.932 5.01637 39.8985 5.50321L41.8937 5.64076ZM41.8578 6.19813C41.8679 6.01602 41.8805 5.83238 41.8937 5.64075L39.8985 5.50322C39.8854 5.69258 39.8718 5.88956 39.8609 6.0872L41.8578 6.19813ZM40.8063 7.14267H40.8593V5.14267H40.8063V7.14267ZM41.812 6.96228C41.8091 6.68477 41.8063 6.41329 41.8063 6.14267H39.8063C39.8063 6.42535 39.8092 6.70717 39.8121 6.98296L41.812 6.96228ZM41.7947 8.95551C41.8259 8.27706 41.8186 7.60326 41.812 6.96229L39.8121 6.98296C39.8188 7.6333 39.8249 8.2508 39.7968 8.86366L41.7947 8.95551ZM99.3027 55.8013L99.3024 55.8018L100.942 56.947L100.942 56.9465L99.3027 55.8013Z" fill="#078715FF"></path>
</svg>
