<?xml version="1.0" encoding="utf-8"?>
<svg fill="none" height="108" viewBox="0 0 105 108" width="105" xmlns="http://www.w3.org/2000/svg">
<path clip-rule="evenodd" d="M65.263 1.01932C65.1687 0.161934 64.1327 -0.301385 63.4159 0.218798C63.1334 0.422805 62.8058 0.683268 62.6914 0.988974C61.931 3.055 61.8391 5.21755 62.0351 7.3835C62.1055 8.12032 63.1087 8.54368 63.9911 8.07926C64.0342 7.99085 64.0944 7.88845 64.1611 7.77484L64.1614 7.77434L64.1615 7.77416L64.1617 7.77385C64.3432 7.46498 64.5733 7.07338 64.6442 6.65457C64.8538 5.39051 64.9967 4.11232 65.1397 2.83413C65.1874 2.40795 65.2351 1.98178 65.2852 1.55614C65.3051 1.38901 65.2856 1.21718 65.2664 1.04912L65.263 1.01932ZM72.6508 5.35181C72.4998 5.67449 72.3045 5.9919 72.0641 6.25022L72.072 6.2519C71.3475 7.03618 70.6075 7.80805 69.8679 8.57938L69.8676 8.57968L69.8675 8.57984L69.8673 8.58L69.8672 8.58016L69.867 8.58032C69.6118 8.84652 69.3566 9.11265 69.1022 9.37921C68.9163 9.57486 68.7304 9.7705 68.5179 9.93577C67.8533 10.4629 66.9633 10.4967 66.556 10.006C66.077 9.42581 66.2146 8.75792 66.5532 8.23169C67.535 6.71591 68.6658 5.31427 70.0987 4.1995C70.1988 4.14671 70.2968 4.08609 70.394 4.02599C70.6217 3.88517 70.845 3.74714 71.0794 3.71884C71.4868 3.66509 72.0138 3.66972 72.3214 3.89177C72.7735 4.2105 72.9042 4.79925 72.6508 5.35181ZM19.5804 5.42365C19.7687 5.72609 19.9285 6.06276 20.0141 6.40514L20.0198 6.39943C20.2827 7.43427 20.5268 8.47541 20.7706 9.51583L20.7706 9.51586L20.7707 9.5159L20.7707 9.51594L20.7707 9.51597L20.7707 9.51601L20.7707 9.51605L20.7709 9.51687L20.7711 9.51768L20.7713 9.5185C20.8553 9.87705 20.9393 10.2355 21.0241 10.5936C21.0869 10.8561 21.1496 11.1186 21.1725 11.3868C21.2524 12.2313 20.7959 12.996 20.1625 13.0701C19.4149 13.1557 18.9299 12.6764 18.6731 12.1058C17.937 10.4566 17.3778 8.74474 17.2237 6.93583C17.2339 6.82321 17.2365 6.70804 17.2391 6.59383V6.5938V6.59378V6.59375V6.59373V6.5937V6.59368C17.2451 6.326 17.251 6.06359 17.3549 5.85163C17.5318 5.48072 17.8229 5.04133 18.1766 4.90437C18.6902 4.69895 19.2551 4.91008 19.5804 5.42365ZM48.7208 5.3414C49.0535 5.00873 49.5059 4.82686 49.9761 4.82686C50.952 4.82686 51.7416 5.61615 51.7461 6.59201H51.7505V12.1499C76.6926 12.7574 97.1371 31.1044 100.93 55.1188C100.943 55.2119 100.947 55.3051 100.947 55.3982C100.947 55.416 100.946 55.4337 100.945 55.4514C100.944 55.4692 100.943 55.4869 100.943 55.5047L100.943 55.5141L100.942 55.5204L100.942 55.5293L100.941 55.5446L100.94 55.5497C100.94 55.5565 100.939 55.5633 100.939 55.57C100.939 55.5749 100.938 55.5797 100.938 55.5845C100.934 55.6289 100.925 55.6732 100.916 55.7176C100.916 55.727 100.915 55.7352 100.914 55.7428L100.914 55.743C100.913 55.7496 100.912 55.7558 100.912 55.7619C100.899 55.8152 100.885 55.8728 100.868 55.9261C100.865 55.9334 100.863 55.9407 100.861 55.9481C100.858 55.9563 100.855 55.9645 100.852 55.9726C100.846 55.9882 100.841 56.0037 100.836 56.0192C100.708 56.3608 100.482 56.658 100.18 56.862C100.153 56.8797 100.127 56.8931 100.1 56.9064C100.069 56.9285 100.038 56.9463 100.003 56.964C99.9626 56.9862 99.9227 57.0084 99.8783 57.0261C99.8074 57.0572 99.732 57.0838 99.6566 57.106C99.6255 57.1148 99.59 57.1193 99.559 57.1281C99.5235 57.137 99.488 57.1459 99.4481 57.1503H99.417C99.2574 57.1725 99.0932 57.1725 98.9335 57.1503C98.9025 57.1459 98.8714 57.1414 98.8404 57.1326C98.6807 57.106 98.5299 57.0527 98.388 56.9862C98.3746 56.9773 98.3613 56.9696 98.348 56.9618L98.3479 56.9617L98.3299 56.9511C98.3227 56.9468 98.3154 56.9423 98.3081 56.9374C98.1883 56.8709 98.073 56.791 97.971 56.6979L97.9709 56.6978C97.9354 56.6623 97.9 56.6269 97.869 56.5914C97.8157 56.5338 97.7625 56.4717 97.7182 56.4051H97.7226C95.4826 53.1626 91.4106 51.1133 86.9926 51.1133C82.6279 51.1133 78.6136 53.1138 76.3602 56.2897C76.2272 56.5204 76.0453 56.7156 75.8324 56.862C75.8175 56.8713 75.8019 56.8806 75.7861 56.8895L75.7732 56.8967C75.7613 56.9034 75.7493 56.9098 75.7376 56.9158L75.7215 56.9241L75.7126 56.9329C75.0518 57.3188 74.2134 57.2301 73.6412 56.72C73.6146 56.6978 73.5924 56.6757 73.5658 56.6535C73.5436 56.6313 73.5214 56.6047 73.4992 56.5781C73.4504 56.5248 73.4016 56.4672 73.3573 56.4051H73.3617C71.1217 53.167 67.0586 51.1132 62.6451 51.1132C58.2803 51.1132 54.266 53.1137 52.0127 56.2897C51.9372 56.4184 51.8485 56.5337 51.7465 56.6401V96.2239C51.7465 102.567 46.5876 107.735 40.2446 107.735C33.9013 107.735 28.7337 102.567 28.7337 96.2239V94.1658C28.7381 93.1899 29.5277 92.4004 30.4991 92.3959C30.9693 92.3959 31.4217 92.5778 31.7588 92.9105C32.0915 93.2432 32.2823 93.6956 32.2823 94.1658V96.2284C32.2823 100.668 35.8041 104.19 40.2443 104.19C44.6845 104.19 48.1931 100.669 48.1931 96.2284V55.3716C45.8599 52.7368 42.2181 51.1045 38.2926 51.1045C34.2073 51.1001 30.4282 52.8699 28.1127 55.7044C27.9796 56.1524 27.6735 56.5294 27.2655 56.7512C27.2477 56.7689 27.2255 56.7867 27.2078 56.8C27.1013 56.8843 26.986 56.9552 26.8618 57.0129C26.8618 57.0129 26.8574 57.0129 26.8574 57.0173C26.2852 57.279 25.6198 57.2169 25.1052 56.8621C24.9056 56.7201 24.7371 56.5427 24.6084 56.3342H24.6129C22.364 53.1317 18.332 51.1001 13.9495 51.1001C9.53153 51.1001 5.47288 53.1627 3.2328 56.4052C3.06868 56.6358 2.85133 56.8266 2.60293 56.9597C2.59627 56.9641 2.58962 56.9674 2.58297 56.9707C2.57631 56.9741 2.56966 56.9774 2.563 56.9818C2.41663 57.0528 2.25694 57.106 2.09282 57.1326C2.06951 57.1404 2.0428 57.1448 2.01864 57.1487L2.01856 57.1487L2.00854 57.1504C1.85329 57.1726 1.70248 57.1726 1.54723 57.1504H1.48957C1.47665 57.1452 1.46373 57.1416 1.44993 57.1376L1.44984 57.1376L1.44915 57.1374L1.44885 57.1374L1.44842 57.1372C1.43899 57.1345 1.42914 57.1317 1.4186 57.1282C1.28109 57.1016 1.14358 57.0572 1.01495 56.9996C0.961713 56.973 0.91292 56.9419 0.868562 56.9109C0.828641 56.8931 0.793155 56.8709 0.75767 56.8488C0.708881 56.8133 0.664525 56.7734 0.620167 56.7334C0.553625 56.6758 0.487095 56.6092 0.429431 56.5427C0.371768 56.4717 0.314104 56.3963 0.265311 56.3165C0.216513 56.2366 0.176591 56.1568 0.141106 56.0681C0.101185 55.9794 0.0701342 55.8818 0.047956 55.7842C0.0302132 55.7221 0.0213412 55.66 0.0124704 55.5935C-0.000837038 55.4737 -0.0052722 55.3495 0.0080352 55.2253V55.1188C3.53389 32.7987 21.4584 15.3706 44.0011 12.5406C44.1298 12.5096 44.2584 12.4963 44.3915 12.4918H44.387C45.6424 12.341 46.911 12.2434 48.1929 12.1858V6.59231C48.1974 6.12208 48.3837 5.67408 48.7208 5.3414ZM55.9377 15.9915C54.5582 15.8363 53.161 15.7387 51.746 15.7032L51.7458 51.4062C54.6911 48.9488 58.568 47.5693 62.6399 47.5693C66.6676 47.5693 70.5044 48.9178 73.4364 51.3219C73.4675 50.6609 73.4852 50.0045 73.4852 49.348C73.4852 36.0145 66.9205 23.541 55.9377 15.9915ZM48.193 50.6338V15.7387L48.189 15.7385C47.1156 15.7873 46.051 15.8716 44.9953 15.9913C34.1894 23.5631 27.7487 35.9337 27.7487 49.148C27.7487 49.7911 27.7665 50.4343 27.7975 51.0775C30.6896 48.8241 34.4023 47.5643 38.2924 47.5643C41.9209 47.5643 45.3941 48.6599 48.193 50.6338ZM24.1999 49.1485C24.1999 37.0607 29.1727 25.6214 37.7469 17.3932L37.7464 17.3891C21.7648 21.7757 9.22491 34.245 4.72715 50.1733C7.39749 48.4832 10.6045 47.5473 13.9446 47.5473C17.746 47.5473 21.3744 48.7583 24.2354 50.914C24.2132 50.3285 24.1999 49.7385 24.1999 49.1485ZM63.3252 17.4214C72.0068 25.6628 77.0391 37.1748 77.0391 49.344C77.0391 49.792 77.0303 50.2445 77.017 50.6925C79.8292 48.6831 83.329 47.5653 86.9929 47.5653C90.333 47.5653 93.5444 48.4924 96.2147 50.1824C91.7311 34.2902 79.2461 21.8408 63.3252 17.4214ZM11.9226 9.25819C11.1522 8.87016 10.1992 9.48644 10.2449 10.3709C10.262 10.719 10.302 11.1356 10.496 11.3981C11.8141 13.1613 13.5774 14.4167 15.5004 15.4324C16.1567 15.7748 17.0583 15.1642 17.1496 14.1713C17.0988 14.0868 17.0456 13.9803 16.9865 13.8621L16.9865 13.8619L16.9864 13.8618L16.9864 13.8618C16.8263 13.5414 16.6233 13.135 16.3107 12.8475C15.3649 11.983 14.3709 11.1666 13.377 10.3502C13.0456 10.0781 12.7143 9.806 12.3848 9.53209C12.2555 9.42432 12.1007 9.34709 11.9493 9.27156L11.9493 9.27155L11.9226 9.25819ZM103.84 30.6926C103.571 30.9254 103.263 31.1353 102.938 31.2727L102.944 31.2775C101.962 31.6971 100.971 32.0991 99.9812 32.5007L99.9808 32.5009L99.9805 32.5011L99.9801 32.5012C99.6384 32.6398 99.2967 32.7784 98.9555 32.9177C98.7059 33.0202 98.4563 33.1228 98.1948 33.1868C97.3727 33.3962 96.5468 33.0633 96.3756 32.4489C96.1756 31.7236 96.5742 31.1703 97.0983 30.8285C98.614 29.8464 100.219 29.0295 101.982 28.5978C102.095 28.5905 102.209 28.5753 102.323 28.5602C102.588 28.5247 102.848 28.49 103.074 28.56C103.468 28.6775 103.947 28.8971 104.137 29.2255C104.419 29.7012 104.298 30.2919 103.84 30.6926ZM98.8691 23.7186C99.1335 22.8976 98.3774 22.0512 97.5106 22.233C97.1693 22.3037 96.7639 22.4075 96.5345 22.6397C94.9961 24.2144 94.0282 26.1505 93.3217 28.2073C93.0848 28.9086 93.8273 29.705 94.8224 29.6419C94.8982 29.5786 94.9953 29.5095 95.103 29.4329C95.3949 29.2252 95.765 28.9618 96.0008 28.6086C96.7088 27.5407 97.3617 26.4326 98.0146 25.3246L98.0148 25.3243C98.2325 24.9549 98.4502 24.5855 98.6699 24.2176C98.7564 24.0732 98.8088 23.9084 98.86 23.7472L98.8691 23.7186ZM23.1352 80.6196C23.2379 82.6568 24.4876 82.9022 26.1253 82.8908V82.8851C27.2323 82.8793 27.6717 83.2902 27.7288 83.9864C27.8029 84.8423 27.3693 85.3559 26.2679 85.6298C25.9839 85.7008 25.6877 85.7278 25.3648 85.7571C25.1946 85.7726 25.017 85.7888 24.8299 85.8124C24.7331 85.9715 24.6384 86.1337 24.5432 86.2967C24.3243 86.6716 24.103 87.0505 23.8485 87.4045C23.2436 88.2319 22.5018 88.2718 21.8056 87.5186C21.6043 87.3022 21.441 87.0504 21.2634 86.7766C21.1741 86.639 21.0813 86.4958 20.9782 86.3488C20.7247 86.3346 20.4718 86.3232 20.2193 86.3118C19.6588 86.2865 19.1002 86.2612 18.5416 86.2061C17.6913 86.1148 17.075 85.5157 17.0921 84.8538C17.1036 84.2945 17.6057 83.7011 18.2734 83.5299C18.7316 83.4134 19.1949 83.3192 19.7168 83.2131C19.9877 83.158 20.2744 83.0997 20.5844 83.0334C20.5844 82.7294 20.5805 82.4562 20.5768 82.2034C20.5697 81.7115 20.5637 81.2968 20.5901 80.8821C20.6415 80.0947 21.098 79.6096 21.7314 79.5811C22.3762 79.5526 23.1009 79.9177 23.1352 80.6196Z" fill="#078715FF" fill-rule="evenodd"/>
</svg>