<?xml version="1.0" encoding="UTF-8"?>
<svg xmlns="http://www.w3.org/2000/svg" width="96" height="122" viewBox="0 0 96 122" fill="#078715FF">
  <path d="M5.59822 4.99142C5.62522 5.12643 5.67924 5.26144 5.73775 5.38744C5.94028 5.84647 6.44886 6.11648 6.95744 6.00848C7.43451 5.90947 7.66855 5.58545 7.69106 5.10843C7.69964 4.92821 7.69731 4.748 7.69447 4.52848C7.69285 4.40266 7.69106 4.26392 7.69106 4.10487C7.77207 3.24982 7.63254 2.28226 7.05195 1.42272C6.69639 0.891685 6.03028 0.860183 5.61172 1.33271C5.26066 1.72873 5.09864 2.17876 5.18416 2.69629C5.31018 3.46133 5.45419 4.22638 5.59822 4.98692V4.99142Z" fill="#078715FF"></path>
  <path d="M3.9602 8.58717C4.47328 8.90669 5.17539 8.54216 5.38692 7.74562C5.37406 7.70821 5.36272 7.65379 5.34934 7.58962C5.31124 7.40678 5.25664 7.14479 5.10339 6.97158C4.39681 6.18195 3.64034 5.43454 2.88713 4.69036L2.70001 4.50543C2.57342 4.37886 2.38772 4.30443 2.21015 4.23326C2.18569 4.22346 2.16139 4.21372 2.13742 4.20392C1.66485 4.01941 1.03925 4.38843 1.00774 4.89246C0.989738 5.17147 0.994238 5.49549 1.12026 5.72951C1.79536 6.94907 2.79903 7.86713 3.96471 8.59167L3.9602 8.58717Z" fill="#078715FF"></path>
  <path fill-rule="evenodd" clip-rule="evenodd" d="M85.7244 102.579C85.6884 106.67 82.718 108.533 79.716 108.547C76.0209 108.565 73.5365 105.568 73.847 102.768C73.8515 99.3258 76.615 96.4141 79.842 96.4816C82.7675 96.5401 85.7604 98.5698 85.7244 102.579ZM83.5596 102.566C83.5866 100.604 81.8808 98.7768 79.9545 98.7003H79.95C77.9472 98.6238 76.0614 100.595 76.0659 102.764C76.0749 104.78 77.7987 106.418 79.851 106.36C81.7818 106.306 83.5326 104.51 83.5596 102.566Z" fill="#078715FF"></path>
  <path d="M73.3521 94.7716C72.8706 94.4521 72.191 94.5736 71.6374 95.1991C70.0261 97.0262 69.1575 99.1773 68.9099 101.405C68.924 101.554 68.9345 101.684 68.944 101.802C68.965 102.061 68.9808 102.257 69.018 102.449C69.108 102.913 69.4095 103.201 69.8641 103.304C70.3232 103.408 70.8363 103.066 71.0253 102.557C71.0326 102.537 71.0401 102.517 71.0476 102.497L71.0479 102.496C71.0912 102.382 71.1346 102.266 71.1423 102.148C71.3268 100.095 72.0605 98.2818 73.3387 96.6572C73.9733 95.8516 73.9102 95.1406 73.3521 94.7716Z" fill="#078715FF"></path>
  <path d="M69.9405 107.575C69.9495 107.093 70.4401 106.607 70.9126 106.616C71.4932 106.625 72.0333 107.206 71.9658 107.741C71.9073 108.223 71.3942 108.605 70.8811 108.56C70.3455 108.511 69.9315 108.074 69.9405 107.575Z" fill="#078715FF"></path>
  <path fill-rule="evenodd" clip-rule="evenodd" d="M5.4316 14.442C3.02372 17.0026 1.76353 20.0268 1.35396 23.501C0.876887 27.5467 1.34946 31.543 1.91655 35.5122C2.48689 39.5084 3.27138 43.4808 4.0541 47.4443L4.20741 48.2209C5.08505 52.6717 6.32724 57.0144 8.23104 61.1547C8.95566 62.7342 9.84681 64.1833 11.053 65.4614C13.7624 68.3326 17.0659 70.0787 20.9185 70.8527C21.4199 70.953 21.9155 71.0822 22.4737 71.2278C22.7673 71.3044 23.0782 71.3855 23.4164 71.4692V74.0974C23.4164 75.7583 23.4179 77.4192 23.4194 79.0799L23.4194 79.091C23.4231 83.2494 23.4267 87.4074 23.4074 91.5629C23.3939 94.7356 23.7855 97.8633 24.3571 100.973C24.7892 103.318 25.5588 105.559 26.711 107.656C28.6102 111.117 31.4052 113.434 35.2983 114.298C37.2786 114.739 39.2859 114.775 41.3068 114.523C44.2277 114.163 46.6581 112.917 48.5709 110.689C49.516 109.591 50.2632 108.362 50.7852 107.012C51.9824 103.907 52.626 100.676 52.6755 97.3592C52.7475 92.3999 52.7341 87.4407 52.68 82.4814C52.644 79.0972 52.9636 75.7445 53.6117 72.4368C54.1968 69.4576 55.286 66.636 57.1357 64.1743C59.6831 60.7901 63.0812 59.0575 67.3343 59.0845C71.3715 59.1115 74.3419 60.9611 76.2097 64.5163C77.0154 66.0464 77.596 67.68 77.83 69.4036C77.9009 69.9297 77.9774 70.4557 78.0539 70.9818L78.054 70.983C78.2982 72.6619 78.5424 74.3414 78.6041 76.0235C78.6865 78.3869 78.6434 80.7551 78.6003 83.1229C78.5845 83.9876 78.5687 84.8528 78.5591 85.7171C78.5456 86.8691 77.992 87.5712 76.8218 87.8412C75.9172 88.0527 75.026 88.3452 74.1619 88.6917C67.2038 91.4999 62.8471 100.392 66.1012 107.881C68.1715 112.638 71.9296 115.392 76.8848 116.683C80.6699 117.669 84.1445 116.908 87.4255 114.964C89.7119 113.61 91.3816 111.648 92.6463 109.343C94.4016 106.144 95.0542 102.674 94.3836 99.1323C93.2404 93.0795 89.2618 89.5513 83.5009 87.8457C82.9409 87.6783 82.3717 87.5368 81.7778 87.3892C81.4458 87.3067 81.1056 87.2221 80.7555 87.1301C80.7555 86.8383 80.7516 86.5583 80.7478 86.2862C80.7401 85.7316 80.7328 85.2103 80.76 84.691C80.7765 84.3794 80.7941 84.0679 80.8118 83.7563L80.8118 83.7555C80.9242 81.7723 81.0367 79.7887 80.85 77.8056C80.7559 76.8101 80.7126 75.8116 80.6694 74.8129C80.5948 73.0893 80.5201 71.3652 80.1839 69.6556C79.7068 67.239 78.9822 64.9349 77.8255 62.7522C76.6643 60.5561 74.927 59.035 72.6677 58.0675C69.8817 56.8794 67.0463 56.5284 64.0398 57.2439C60.3853 58.1125 57.3968 59.9171 55.1869 62.9458C53.6027 65.1194 52.5765 67.572 51.8609 70.1507C50.9215 73.5278 50.7075 77.0067 50.494 80.4763L50.4747 80.7893C50.3973 82.0205 50.4308 83.2563 50.4643 84.4935C50.4775 84.9837 50.4908 85.4741 50.4972 85.9646C50.5089 86.7852 50.5351 87.6058 50.5612 88.4261L50.5612 88.4269V88.4283C50.6151 90.1218 50.669 91.8144 50.5962 93.5025C50.5752 94.009 50.5595 94.516 50.5437 95.023L50.5435 95.0273C50.4814 97.0234 50.4193 99.021 50.0426 101.004C49.6376 103.129 49.1425 105.208 48.1928 107.161C46.1675 111.328 42.0134 112.989 37.5712 112.372C37.3617 112.344 37.1523 112.306 36.9428 112.269C36.6573 112.218 36.3715 112.167 36.0859 112.138C34.9157 112.017 33.8581 111.585 32.8589 111C30.19 109.424 28.5652 107.039 27.5301 104.182C26.3689 100.973 26.0133 97.6112 25.7658 94.254C25.5678 91.6079 25.5678 88.9392 25.5768 86.2841C25.5872 82.7858 25.6433 79.2876 25.6994 75.7893C25.716 74.7603 25.7325 73.7313 25.7478 72.7023C25.7508 72.47 25.7912 72.2396 25.8391 71.9668C25.8636 71.8275 25.89 71.6771 25.9143 71.5097C26.2542 71.4264 26.5935 71.3441 26.9323 71.2619L26.9374 71.2607C27.5659 71.1083 28.1926 70.9563 28.8173 70.7987C32.7599 69.8087 36.1759 67.959 38.7864 64.7684C40.1231 63.1348 41.0862 61.2987 41.8333 59.341C43.3996 55.2368 44.5248 51.0066 45.4159 46.7133C45.6499 45.5883 45.8795 44.4587 46.0235 43.3246C46.1225 42.5551 45.6274 41.8755 45.0783 41.8396C44.6373 41.8125 44.1242 42.2446 43.9352 42.9691C43.6426 44.0762 43.4086 45.2012 43.1835 46.3263C42.5714 49.346 41.9099 52.3611 40.9692 55.2998C40.1546 57.838 39.1149 60.2771 37.6342 62.5182C36.419 64.3543 34.8662 65.8124 32.9264 66.8565C28.6688 69.1471 24.2491 69.6241 19.5863 68.2291C16.2063 67.2165 13.5284 65.3219 11.5301 62.4372C10.4544 60.8891 9.65326 59.2015 9.07267 57.4239C8.38407 55.3088 7.77647 53.1667 7.17788 51.0246C6.00319 46.8033 5.27858 42.4876 4.60798 38.1673C4.18941 35.4762 3.84286 32.776 3.52781 30.0714C3.37029 28.7213 3.22176 27.3397 3.31628 25.9941C3.4288 24.428 3.70783 22.853 4.09489 21.3319C5.21107 16.9666 8.34807 14.3025 12.0792 12.1829C12.6507 11.8588 13.1638 12.0298 13.6904 12.3539C14.8921 13.0919 16.2153 13.3709 17.615 13.2494C21.3506 12.9209 23.4614 9.65371 22.0932 6.35502C21.5711 5.10395 20.6485 4.43341 19.3073 4.2984C17.9706 4.16339 16.7509 4.56842 15.5447 5.06794C14.0055 5.70698 12.8038 6.68354 12.4662 8.40263C12.2502 9.5232 11.5211 10.1082 10.5759 10.5808C8.63162 11.5573 6.92585 12.8489 5.42711 14.442H5.4316ZM92.2053 99.6409C92.3089 100.159 92.3258 100.696 92.3428 101.233C92.3508 101.489 92.3589 101.745 92.3763 101.999C92.4573 107.039 89.1538 113.745 81.021 114.834C78.6086 115.158 76.3178 114.361 74.1664 113.308C72.7397 112.611 71.484 111.63 70.3813 110.486C68.095 108.124 67.1543 105.248 67.3343 102.021C67.6269 96.8102 70.3003 93.156 74.927 90.8699C81.5656 87.5892 90.486 91.0769 92.2053 99.6454V99.6409ZM15.1936 7.93461C16.3008 6.88605 17.687 6.58003 19.1588 6.69254C19.8429 6.74654 20.2659 7.43508 20.2749 8.30363C20.2884 9.5097 19.7304 10.3737 18.5512 10.7023C17.8085 10.9093 17.0074 11.0128 16.2378 10.9858C15.4772 10.9543 14.9101 10.4728 14.6851 9.70321C14.478 9.01467 14.7121 8.39363 15.1936 7.93461Z" fill="#078715FF"></path>
  <path fill-rule="evenodd" clip-rule="evenodd" d="M43.157 28.0238C43.1719 28.6167 43.1722 29.2104 43.1724 29.8039C43.1728 30.6474 43.1732 31.4905 43.2155 32.3305C43.31 34.1441 44.1877 35.4447 45.9339 36.0972C46.9556 36.4752 47.9953 36.6868 49.0979 36.6598C49.2207 36.6569 49.3444 36.6506 49.4696 36.6443C50.1335 36.6108 50.8385 36.5751 51.6678 37.0333C51.7313 37.5909 51.7935 38.1474 51.8556 38.703L51.856 38.7066L51.8564 38.7098C51.9615 39.6495 52.0663 40.587 52.1764 41.5245C52.388 43.3291 53.4861 44.3147 55.1784 44.7602C56.7986 45.1877 58.4459 45.3047 60.0977 45.1742C63.1266 44.9312 64.5714 43.0726 64.8279 40.989C64.9324 40.1282 65.0951 39.279 65.2583 38.4271L65.2584 38.4264L65.296 38.2303C65.4355 37.5103 65.7235 37.2403 66.4302 37.1323C66.5635 37.1132 66.6999 37.1101 66.8359 37.107C66.9891 37.1035 67.142 37.1 67.2898 37.0738C67.56 37.0255 67.8313 36.981 68.1027 36.9366C68.8938 36.8069 69.6853 36.6772 70.4493 36.4527C71.615 36.1107 72.4836 35.3907 72.6637 34.0766C72.6933 33.8568 72.7316 33.6369 72.7699 33.4168C72.8421 33.0018 72.9145 32.5861 72.9292 32.1685C72.9742 31.0209 72.9922 29.8689 72.9292 28.7213C72.8707 27.5827 72.7806 26.4307 72.5601 25.3146C72.1731 23.348 71.435 22.7855 69.4771 22.7585C69.1304 22.7535 68.7836 22.7546 68.4371 22.7558C67.8481 22.7578 67.2597 22.7598 66.6732 22.7315C65.9396 22.6955 65.62 22.4254 65.4805 21.7234C65.415 21.3835 65.3861 21.037 65.3571 20.6897C65.3324 20.3933 65.3076 20.096 65.26 19.8018L65.2223 19.5607C65.0915 18.7218 64.9601 17.8784 64.7424 17.0611C64.4588 15.9901 63.6802 15.261 62.6136 15.171C60.1832 14.9595 57.7348 14.9325 55.3089 15.2925C54.9396 15.3467 54.5804 15.4826 54.2238 15.6175C54.1067 15.6617 53.99 15.7059 53.8732 15.7471C52.1719 16.3456 51.3708 17.5877 51.3348 19.3563C51.329 19.633 51.3307 19.9096 51.3323 20.186V20.1887C51.3345 20.5585 51.3367 20.9282 51.3213 21.2959C51.2763 22.3624 51.1503 22.5425 50.1376 22.7675C49.6095 22.8839 49.0741 22.9698 48.5384 23.0558C48.225 23.1062 47.9115 23.1565 47.5992 23.213C45.0878 23.6675 43.076 24.7566 43.1525 28.0328L43.157 28.0238ZM45.3803 27.8798C45.4074 26.6827 46.033 25.8501 47.2977 25.6341C47.6481 25.5753 47.9988 25.5156 48.3498 25.4559C49.3419 25.287 50.3363 25.1177 51.3303 24.9681C52.748 24.7521 53.3961 24.167 53.5221 22.7675C53.6045 21.8052 53.5825 20.8304 53.5606 19.8631L53.5581 19.7523C53.5356 18.7442 54.0127 18.1277 54.9398 17.8217C55.0413 17.7883 55.1419 17.751 55.2424 17.7137C55.481 17.6253 55.719 17.537 55.966 17.5022C57.8248 17.2456 59.6836 17.1466 61.5559 17.3897C62.2175 17.4752 62.6361 17.8037 62.7936 18.4022C62.9376 18.9512 63.0096 19.5228 63.0456 20.0943C63.0661 20.452 63.0633 20.8116 63.0605 21.1714V21.1721C63.0572 21.6041 63.0538 22.0364 63.0906 22.4659C63.2257 24.041 64.1528 24.9096 65.7596 24.9681C66.3099 24.9888 66.8625 24.9836 67.4152 24.9784C67.9427 24.9735 68.4703 24.9685 68.9956 24.9861C69.8912 25.0176 70.2918 25.3371 70.5258 26.2147C70.6563 26.6917 70.7013 27.2002 70.7238 27.6997C70.7461 28.2047 70.7414 28.7119 70.7367 29.2198L70.7367 29.221C70.7348 29.4324 70.7328 29.6439 70.7328 29.8554H70.7238C70.7238 30.1436 70.7253 30.4312 70.7268 30.7188C70.7298 31.2933 70.7328 31.8671 70.7238 32.443C70.7013 33.4871 70.2783 34.2521 69.1756 34.4726C69.0009 34.5076 68.8257 34.5473 68.6502 34.5871C68.1247 34.7062 67.5967 34.8259 67.0738 34.8192C65.9351 34.8012 64.9809 35.2287 64.0178 35.7327C63.2887 36.1152 62.9646 36.6823 63.0276 37.4788C63.1131 38.5679 62.9331 39.6119 62.6406 40.665C62.2355 42.1141 61.2408 42.7756 59.8456 42.9601C58.4899 43.1406 57.1773 42.8436 55.8675 42.5472C55.7728 42.5257 55.6781 42.5043 55.5835 42.4831C54.9714 42.3436 54.6203 41.8981 54.4403 41.304C54.0577 40.0485 53.9767 38.7659 54.0217 37.4653C54.1297 34.5356 53.7337 34.3421 51.0377 34.4141L50.8336 34.4194C50.1809 34.4365 49.5258 34.4536 48.8819 34.4006C48.2974 34.3554 47.7204 34.231 47.144 34.1068L46.9826 34.0721C46.096 33.8786 45.5964 33.2441 45.5289 32.407C45.4118 30.9084 45.3533 29.3963 45.3849 27.8888L45.3803 27.8798Z" fill="#078715FF"></path>
  <path fill-rule="evenodd" clip-rule="evenodd" d="M36.3835 12.5608C34.0341 14.3024 31.3382 13.9829 29.3759 12.5608H29.3714C26.6305 10.5717 27.0445 6.78246 30.168 5.45039C32.1213 4.61784 34.0971 4.75735 36.0009 5.6799C36.7346 6.03542 37.2791 6.61145 37.5717 7.381C37.9227 8.30805 38.6114 8.89308 39.471 9.32511C42.0769 10.6347 43.7512 12.8668 45.2409 15.2519C45.5695 15.7785 45.718 16.4355 45.8395 17.0566C45.925 17.4931 45.7135 17.9161 45.2274 18.0601C44.7818 18.1906 44.3543 18.0736 44.0842 17.6911C43.8234 17.3195 43.5994 16.9225 43.3763 16.5269C43.3184 16.4242 43.2605 16.3215 43.2021 16.2195C42.1894 14.4599 40.9337 12.9118 39.2279 11.7732C38.9932 11.6147 38.7358 11.4934 38.4444 11.3561C38.3056 11.2907 38.1591 11.2216 38.0038 11.1432C37.788 11.3337 37.5939 11.5113 37.4121 11.6777C37.0442 12.0144 36.7269 12.3047 36.3835 12.5608ZM33.035 7.06598C31.9818 7.16948 31.0277 7.426 30.3031 8.20454L30.3076 8.20004C29.7045 8.85258 29.6955 9.68513 30.249 10.3332C31.0592 11.2782 33.0395 11.8002 34.1962 11.3682C35.1728 11.0037 35.7354 10.0992 35.6679 9.00559C35.6094 8.11004 35.1323 7.58351 34.0521 7.27299C33.8131 7.20379 33.5674 7.16097 33.332 7.11995C33.2307 7.10229 33.1312 7.08494 33.035 7.06598Z" fill="#078715FF"></path>
  <path fill-rule="evenodd" clip-rule="evenodd" d="M10.8374 82.5308C10.7878 84.1599 12.4711 85.8295 14.1859 85.8475C16.0402 85.8655 17.6109 84.3039 17.6244 82.4228C17.7639 80.7712 16.3282 79.2591 14.1004 79.0701C12.5971 78.9441 10.8914 80.8477 10.8374 82.5263V82.5308ZM15.2795 82.5758C15.23 83.0573 14.744 83.4939 14.2579 83.4939C13.6638 83.4939 13.2137 82.9673 13.2722 82.3508C13.3217 81.8153 13.7493 81.4283 14.2669 81.4417C14.843 81.4598 15.3381 82.0178 15.2795 82.5758Z" fill="#078715FF"></path>
  <path d="M66.2277 69.7546C66.6868 69.3316 67.7039 69.6376 67.7804 70.2631L67.7714 70.2586C67.8243 70.6875 67.8127 71.1249 67.8005 71.5872C67.7951 71.7942 67.7895 72.0067 67.7895 72.2253C67.9322 72.2884 68.0737 72.349 68.2138 72.409L68.2146 72.4094C68.5336 72.5461 68.8455 72.6797 69.1487 72.8328C69.5717 73.0488 69.8328 73.4673 69.6753 73.8813C69.5657 74.1661 69.2902 74.3976 69.0267 74.619C68.9655 74.6705 68.9049 74.7215 68.8471 74.7724C68.7616 74.8489 68.5681 74.8444 68.4331 74.8219C67.6364 74.6779 67.1504 74.9884 66.6463 75.6455C65.9037 76.6175 65.1025 76.325 64.747 75.0559C64.71 74.9281 64.6875 74.7967 64.66 74.6368C64.6439 74.5434 64.6262 74.4402 64.6029 74.3224C64.4799 74.2621 64.3518 74.2018 64.2208 74.1401C63.8726 73.9762 63.5036 73.8026 63.1537 73.5933C62.9197 73.4538 62.7307 73.2153 62.5821 72.9858C62.3526 72.6303 62.5686 72.0317 62.9467 71.9102L62.9737 71.9016L63.0109 71.8896L63.0115 71.8894C63.192 71.8309 63.3871 71.7677 63.5678 71.7797C64.729 71.8607 65.4761 71.3702 65.8271 70.2496C65.8801 70.0785 66.04 69.9296 66.1834 69.796C66.1984 69.7821 66.2132 69.7682 66.2277 69.7546Z" fill="#078715FF"></path>
  <path d="M93.466 112.62C93.3177 112.667 93.1926 112.807 93.0722 112.942C93.0428 112.975 93.0135 113.007 92.9845 113.038L92.89 113.136C91.1259 114.967 89.3606 116.799 87.0435 117.966C86.9949 117.99 86.9517 118.028 86.9097 118.064L86.8947 118.077L86.8859 118.085L86.8725 118.096C86.5214 118.393 86.2244 118.794 86.4539 119.208C86.5725 119.424 86.8104 119.576 87.0702 119.742C87.1949 119.822 87.3246 119.905 87.4486 120C87.6698 119.91 87.8885 119.829 88.1029 119.749C88.5865 119.569 89.0485 119.397 89.4694 119.154C91.5577 117.943 93.1195 116.148 94.6542 114.339C94.8298 114.136 94.9198 113.835 94.9738 113.56C95.0638 113.101 94.9288 112.647 94.4652 112.503C94.1682 112.408 93.7856 112.516 93.466 112.615V112.62Z" fill="#078715FF"></path>
  <path d="M68.8737 13.2584C68.5947 13.4429 68.2301 13.6634 67.9421 13.6184L67.9376 13.6274C67.6586 13.5824 67.303 13.2674 67.204 12.9884C67.0935 12.6754 67.0667 12.3311 67.0366 11.9439C67.0226 11.7633 67.0078 11.5731 66.9834 11.3728C67.0366 11.1146 67.089 10.8476 67.1426 10.5747C67.2844 9.85304 67.4344 9.08933 67.627 8.33511C67.7756 7.76358 68.2617 7.51606 68.7837 7.60607C69.2608 7.68257 69.7199 8.1506 69.6704 8.66813C69.5398 10.0182 69.3553 11.3638 69.1708 12.7049C69.1438 12.9029 69.0313 13.1549 68.8737 13.2584Z" fill="#078715FF"></path>
  <path d="M73.2169 13.1324C72.9828 13.4969 72.6093 13.7489 72.1277 13.5689C71.6911 13.4069 71.3986 13.0469 71.4256 12.6014C71.4545 12.1534 71.5646 11.7113 71.6744 11.2703C71.7014 11.162 71.7284 11.0535 71.7541 10.9453L71.7626 10.9098C71.8903 10.3724 72.0189 9.83118 72.1907 9.30717C72.3932 8.68613 72.8973 8.36211 73.4779 8.42962C74.0135 8.48812 74.2925 8.94265 74.279 9.96871C74.1485 10.9273 73.8695 12.0928 73.2169 13.1324Z" fill="#078715FF"></path>
  <path d="M5.59822 4.99142C5.62522 5.12643 5.67924 5.26144 5.73775 5.38744C5.94028 5.84647 6.44886 6.11648 6.95744 6.00848C7.43451 5.90947 7.66855 5.58545 7.69106 5.10843C7.69964 4.92821 7.69731 4.748 7.69447 4.52848C7.69285 4.40266 7.69106 4.26392 7.69106 4.10487C7.77207 3.24982 7.63254 2.28226 7.05195 1.42272C6.69639 0.891685 6.03028 0.860183 5.61172 1.33271C5.26066 1.72873 5.09864 2.17876 5.18416 2.69629C5.31018 3.46133 5.45419 4.22638 5.59822 4.98692V4.99142Z" stroke="#078715FF" stroke-width="2"></path>
  <path d="M3.9602 8.58717C4.47328 8.90669 5.17539 8.54216 5.38692 7.74562C5.37406 7.70821 5.36272 7.65379 5.34934 7.58962C5.31124 7.40678 5.25664 7.14479 5.10339 6.97158C4.39681 6.18195 3.64034 5.43454 2.88713 4.69036L2.70001 4.50543C2.57342 4.37886 2.38772 4.30443 2.21015 4.23326C2.18569 4.22346 2.16139 4.21372 2.13742 4.20392C1.66485 4.01941 1.03925 4.38843 1.00774 4.89246C0.989738 5.17147 0.994238 5.49549 1.12026 5.72951C1.79536 6.94907 2.79903 7.86713 3.96471 8.59167L3.9602 8.58717Z" stroke="#078715FF" stroke-width="2"></path>
  <path fill-rule="evenodd" clip-rule="evenodd" d="M85.7244 102.579C85.6884 106.67 82.718 108.533 79.716 108.547C76.0209 108.565 73.5365 105.568 73.847 102.768C73.8515 99.3258 76.615 96.4141 79.842 96.4816C82.7675 96.5401 85.7604 98.5698 85.7244 102.579ZM83.5596 102.566C83.5866 100.604 81.8808 98.7768 79.9545 98.7003H79.95C77.9472 98.6238 76.0614 100.595 76.0659 102.764C76.0749 104.78 77.7987 106.418 79.851 106.36C81.7818 106.306 83.5326 104.51 83.5596 102.566Z" stroke="#078715FF" stroke-width="2"></path>
  <path d="M73.3521 94.7716C72.8706 94.4521 72.191 94.5736 71.6374 95.1991C70.0261 97.0262 69.1575 99.1773 68.9099 101.405C68.924 101.554 68.9345 101.684 68.944 101.802C68.965 102.061 68.9808 102.257 69.018 102.449C69.108 102.913 69.4095 103.201 69.8641 103.304C70.3232 103.408 70.8363 103.066 71.0253 102.557C71.0326 102.537 71.0401 102.517 71.0476 102.497L71.0479 102.496C71.0912 102.382 71.1346 102.266 71.1423 102.148C71.3268 100.095 72.0605 98.2818 73.3387 96.6572C73.9733 95.8516 73.9102 95.1406 73.3521 94.7716Z" stroke="#078715FF" stroke-width="2"></path>
  <path d="M69.9405 107.575C69.9495 107.093 70.4401 106.607 70.9126 106.616C71.4932 106.625 72.0333 107.206 71.9658 107.741C71.9073 108.223 71.3942 108.605 70.8811 108.56C70.3455 108.511 69.9315 108.074 69.9405 107.575Z" stroke="#078715FF" stroke-width="2"></path>
  <path fill-rule="evenodd" clip-rule="evenodd" d="M5.4316 14.442C3.02372 17.0026 1.76353 20.0268 1.35396 23.501C0.876887 27.5467 1.34946 31.543 1.91655 35.5122C2.48689 39.5084 3.27138 43.4808 4.0541 47.4443L4.20741 48.2209C5.08505 52.6717 6.32724 57.0144 8.23104 61.1547C8.95566 62.7342 9.84681 64.1833 11.053 65.4614C13.7624 68.3326 17.0659 70.0787 20.9185 70.8527C21.4199 70.953 21.9155 71.0822 22.4737 71.2278C22.7673 71.3044 23.0782 71.3855 23.4164 71.4692V74.0974C23.4164 75.7583 23.4179 77.4192 23.4194 79.0799L23.4194 79.091C23.4231 83.2494 23.4267 87.4074 23.4074 91.5629C23.3939 94.7356 23.7855 97.8633 24.3571 100.973C24.7892 103.318 25.5588 105.559 26.711 107.656C28.6102 111.117 31.4052 113.434 35.2983 114.298C37.2786 114.739 39.2859 114.775 41.3068 114.523C44.2277 114.163 46.6581 112.917 48.5709 110.689C49.516 109.591 50.2632 108.362 50.7852 107.012C51.9824 103.907 52.626 100.676 52.6755 97.3592C52.7475 92.3999 52.7341 87.4407 52.68 82.4814C52.644 79.0972 52.9636 75.7445 53.6117 72.4368C54.1968 69.4576 55.286 66.636 57.1357 64.1743C59.6831 60.7901 63.0812 59.0575 67.3343 59.0845C71.3715 59.1115 74.3419 60.9611 76.2097 64.5163C77.0154 66.0464 77.596 67.68 77.83 69.4036C77.9009 69.9297 77.9774 70.4557 78.0539 70.9818L78.054 70.983C78.2982 72.6619 78.5424 74.3414 78.6041 76.0235C78.6865 78.3869 78.6434 80.7551 78.6003 83.1229C78.5845 83.9876 78.5687 84.8528 78.5591 85.7171C78.5456 86.8691 77.992 87.5712 76.8218 87.8412C75.9172 88.0527 75.026 88.3452 74.1619 88.6917C67.2038 91.4999 62.8471 100.392 66.1012 107.881C68.1715 112.638 71.9296 115.392 76.8848 116.683C80.6699 117.669 84.1445 116.908 87.4255 114.964C89.7119 113.61 91.3816 111.648 92.6463 109.343C94.4016 106.144 95.0542 102.674 94.3836 99.1323C93.2404 93.0795 89.2618 89.5513 83.5009 87.8457C82.9409 87.6783 82.3717 87.5368 81.7778 87.3892C81.4458 87.3067 81.1056 87.2221 80.7555 87.1301C80.7555 86.8383 80.7516 86.5583 80.7478 86.2862C80.7401 85.7316 80.7328 85.2103 80.76 84.691C80.7765 84.3794 80.7941 84.0679 80.8118 83.7563L80.8118 83.7555C80.9242 81.7723 81.0367 79.7887 80.85 77.8056C80.7559 76.8101 80.7126 75.8116 80.6694 74.8129C80.5948 73.0893 80.5201 71.3652 80.1839 69.6556C79.7068 67.239 78.9822 64.9349 77.8255 62.7522C76.6643 60.5561 74.927 59.035 72.6677 58.0675C69.8817 56.8794 67.0463 56.5284 64.0398 57.2439C60.3853 58.1125 57.3968 59.9171 55.1869 62.9458C53.6027 65.1194 52.5765 67.572 51.8609 70.1507C50.9215 73.5278 50.7075 77.0067 50.494 80.4763L50.4747 80.7893C50.3973 82.0205 50.4308 83.2563 50.4643 84.4935C50.4775 84.9837 50.4908 85.4741 50.4972 85.9646C50.5089 86.7852 50.5351 87.6058 50.5612 88.4261L50.5612 88.4269V88.4283C50.6151 90.1218 50.669 91.8144 50.5962 93.5025C50.5752 94.009 50.5595 94.516 50.5437 95.023L50.5435 95.0273C50.4814 97.0234 50.4193 99.021 50.0426 101.004C49.6376 103.129 49.1425 105.208 48.1928 107.161C46.1675 111.328 42.0134 112.989 37.5712 112.372C37.3617 112.344 37.1523 112.306 36.9428 112.269C36.6573 112.218 36.3715 112.167 36.0859 112.138C34.9157 112.017 33.8581 111.585 32.8589 111C30.19 109.424 28.5652 107.039 27.5301 104.182C26.3689 100.973 26.0133 97.6112 25.7658 94.254C25.5678 91.6079 25.5678 88.9392 25.5768 86.2841C25.5872 82.7858 25.6433 79.2876 25.6994 75.7893C25.716 74.7603 25.7325 73.7313 25.7478 72.7023C25.7508 72.47 25.7912 72.2396 25.8391 71.9668C25.8636 71.8275 25.89 71.6771 25.9143 71.5097C26.2542 71.4264 26.5935 71.3441 26.9323 71.2619L26.9374 71.2607C27.5659 71.1083 28.1926 70.9563 28.8173 70.7987C32.7599 69.8087 36.1759 67.959 38.7864 64.7684C40.1231 63.1348 41.0862 61.2987 41.8333 59.341C43.3996 55.2368 44.5248 51.0066 45.4159 46.7133C45.6499 45.5883 45.8795 44.4587 46.0235 43.3246C46.1225 42.5551 45.6274 41.8755 45.0783 41.8396C44.6373 41.8125 44.1242 42.2446 43.9352 42.9691C43.6426 44.0762 43.4086 45.2012 43.1835 46.3263C42.5714 49.346 41.9099 52.3611 40.9692 55.2998C40.1546 57.838 39.1149 60.2771 37.6342 62.5182C36.419 64.3543 34.8662 65.8124 32.9264 66.8565C28.6688 69.1471 24.2491 69.6241 19.5863 68.2291C16.2063 67.2165 13.5284 65.3219 11.5301 62.4372C10.4544 60.8891 9.65326 59.2015 9.07267 57.4239C8.38407 55.3088 7.77647 53.1667 7.17788 51.0246C6.00319 46.8033 5.27858 42.4876 4.60798 38.1673C4.18941 35.4762 3.84286 32.776 3.52781 30.0714C3.37029 28.7213 3.22176 27.3397 3.31628 25.9941C3.4288 24.428 3.70783 22.853 4.09489 21.3319C5.21107 16.9666 8.34807 14.3025 12.0792 12.1829C12.6507 11.8588 13.1638 12.0298 13.6904 12.3539C14.8921 13.0919 16.2153 13.3709 17.615 13.2494C21.3506 12.9209 23.4614 9.65371 22.0932 6.35502C21.5711 5.10395 20.6485 4.43341 19.3073 4.2984C17.9706 4.16339 16.7509 4.56842 15.5447 5.06794C14.0055 5.70698 12.8038 6.68354 12.4662 8.40263C12.2502 9.5232 11.5211 10.1082 10.5759 10.5808C8.63162 11.5573 6.92585 12.8489 5.42711 14.442H5.4316ZM92.2053 99.6409C92.3089 100.159 92.3258 100.696 92.3428 101.233C92.3508 101.489 92.3589 101.745 92.3763 101.999C92.4573 107.039 89.1538 113.745 81.021 114.834C78.6086 115.158 76.3178 114.361 74.1664 113.308C72.7397 112.611 71.484 111.63 70.3813 110.486C68.095 108.124 67.1543 105.248 67.3343 102.021C67.6269 96.8102 70.3003 93.156 74.927 90.8699C81.5656 87.5892 90.486 91.0769 92.2053 99.6454V99.6409ZM15.1936 7.93461C16.3008 6.88605 17.687 6.58003 19.1588 6.69254C19.8429 6.74654 20.2659 7.43508 20.2749 8.30363C20.2884 9.5097 19.7304 10.3737 18.5512 10.7023C17.8085 10.9093 17.0074 11.0128 16.2378 10.9858C15.4772 10.9543 14.9101 10.4728 14.6851 9.70321C14.478 9.01467 14.7121 8.39363 15.1936 7.93461Z" stroke="#078715FF" stroke-width="2"></path>
  <path fill-rule="evenodd" clip-rule="evenodd" d="M43.157 28.0238C43.1719 28.6167 43.1722 29.2104 43.1724 29.8039C43.1728 30.6474 43.1732 31.4905 43.2155 32.3305C43.31 34.1441 44.1877 35.4447 45.9339 36.0972C46.9556 36.4752 47.9953 36.6868 49.0979 36.6598C49.2207 36.6569 49.3444 36.6506 49.4696 36.6443C50.1335 36.6108 50.8385 36.5751 51.6678 37.0333C51.7313 37.5909 51.7935 38.1474 51.8556 38.703L51.856 38.7066L51.8564 38.7098C51.9615 39.6495 52.0663 40.587 52.1764 41.5245C52.388 43.3291 53.4861 44.3147 55.1784 44.7602C56.7986 45.1877 58.4459 45.3047 60.0977 45.1742C63.1266 44.9312 64.5714 43.0726 64.8279 40.989C64.9324 40.1282 65.0951 39.279 65.2583 38.4271L65.2584 38.4264L65.296 38.2303C65.4355 37.5103 65.7235 37.2403 66.4302 37.1323C66.5635 37.1132 66.6999 37.1101 66.8359 37.107C66.9891 37.1035 67.142 37.1 67.2898 37.0738C67.56 37.0255 67.8313 36.981 68.1027 36.9366C68.8938 36.8069 69.6853 36.6772 70.4493 36.4527C71.615 36.1107 72.4836 35.3907 72.6637 34.0766C72.6933 33.8568 72.7316 33.6369 72.7699 33.4168C72.8421 33.0018 72.9145 32.5861 72.9292 32.1685C72.9742 31.0209 72.9922 29.8689 72.9292 28.7213C72.8707 27.5827 72.7806 26.4307 72.5601 25.3146C72.1731 23.348 71.435 22.7855 69.4771 22.7585C69.1304 22.7535 68.7836 22.7546 68.4371 22.7558C67.8481 22.7578 67.2597 22.7598 66.6732 22.7315C65.9396 22.6955 65.62 22.4254 65.4805 21.7234C65.415 21.3835 65.3861 21.037 65.3571 20.6897C65.3324 20.3933 65.3076 20.096 65.26 19.8018L65.2223 19.5607C65.0915 18.7218 64.9601 17.8784 64.7424 17.0611C64.4588 15.9901 63.6802 15.261 62.6136 15.171C60.1832 14.9595 57.7348 14.9325 55.3089 15.2925C54.9396 15.3467 54.5804 15.4826 54.2238 15.6175C54.1067 15.6617 53.99 15.7059 53.8732 15.7471C52.1719 16.3456 51.3708 17.5877 51.3348 19.3563C51.329 19.633 51.3307 19.9096 51.3323 20.186V20.1887C51.3345 20.5585 51.3367 20.9282 51.3213 21.2959C51.2763 22.3624 51.1503 22.5425 50.1376 22.7675C49.6095 22.8839 49.0741 22.9698 48.5384 23.0558C48.225 23.1062 47.9115 23.1565 47.5992 23.213C45.0878 23.6675 43.076 24.7566 43.1525 28.0328L43.157 28.0238ZM45.3803 27.8798C45.4074 26.6827 46.033 25.8501 47.2977 25.6341C47.6481 25.5753 47.9988 25.5156 48.3498 25.4559C49.3419 25.287 50.3363 25.1177 51.3303 24.9681C52.748 24.7521 53.3961 24.167 53.5221 22.7675C53.6045 21.8052 53.5825 20.8304 53.5606 19.8631L53.5581 19.7523C53.5356 18.7442 54.0127 18.1277 54.9398 17.8217C55.0413 17.7883 55.1419 17.751 55.2424 17.7137C55.481 17.6253 55.719 17.537 55.966 17.5022C57.8248 17.2456 59.6836 17.1466 61.5559 17.3897C62.2175 17.4752 62.6361 17.8037 62.7936 18.4022C62.9376 18.9512 63.0096 19.5228 63.0456 20.0943C63.0661 20.452 63.0633 20.8116 63.0605 21.1714V21.1721C63.0572 21.6041 63.0538 22.0364 63.0906 22.4659C63.2257 24.041 64.1528 24.9096 65.7596 24.9681C66.3099 24.9888 66.8625 24.9836 67.4152 24.9784C67.9427 24.9735 68.4703 24.9685 68.9956 24.9861C69.8912 25.0176 70.2918 25.3371 70.5258 26.2147C70.6563 26.6917 70.7013 27.2002 70.7238 27.6997C70.7461 28.2047 70.7414 28.7119 70.7367 29.2198L70.7367 29.221C70.7348 29.4324 70.7328 29.6439 70.7328 29.8554H70.7238C70.7238 30.1436 70.7253 30.4312 70.7268 30.7188C70.7298 31.2933 70.7328 31.8671 70.7238 32.443C70.7013 33.4871 70.2783 34.2521 69.1756 34.4726C69.0009 34.5076 68.8257 34.5473 68.6502 34.5871C68.1247 34.7062 67.5967 34.8259 67.0738 34.8192C65.9351 34.8012 64.9809 35.2287 64.0178 35.7327C63.2887 36.1152 62.9646 36.6823 63.0276 37.4788C63.1131 38.5679 62.9331 39.6119 62.6406 40.665C62.2355 42.1141 61.2408 42.7756 59.8456 42.9601C58.4899 43.1406 57.1773 42.8436 55.8675 42.5472C55.7728 42.5257 55.6781 42.5043 55.5835 42.4831C54.9714 42.3436 54.6203 41.8981 54.4403 41.304C54.0577 40.0485 53.9767 38.7659 54.0217 37.4653C54.1297 34.5356 53.7337 34.3421 51.0377 34.4141L50.8336 34.4194C50.1809 34.4365 49.5258 34.4536 48.8819 34.4006C48.2974 34.3554 47.7204 34.231 47.144 34.1068L46.9826 34.0721C46.096 33.8786 45.5964 33.2441 45.5289 32.407C45.4118 30.9084 45.3533 29.3963 45.3849 27.8888L45.3803 27.8798Z" stroke="#078715FF" stroke-width="2"></path>
  <path fill-rule="evenodd" clip-rule="evenodd" d="M36.3835 12.5608C34.0341 14.3024 31.3382 13.9829 29.3759 12.5608H29.3714C26.6305 10.5717 27.0445 6.78246 30.168 5.45039C32.1213 4.61784 34.0971 4.75735 36.0009 5.6799C36.7346 6.03542 37.2791 6.61145 37.5717 7.381C37.9227 8.30805 38.6114 8.89308 39.471 9.32511C42.0769 10.6347 43.7512 12.8668 45.2409 15.2519C45.5695 15.7785 45.718 16.4355 45.8395 17.0566C45.925 17.4931 45.7135 17.9161 45.2274 18.0601C44.7818 18.1906 44.3543 18.0736 44.0842 17.6911C43.8234 17.3195 43.5994 16.9225 43.3763 16.5269C43.3184 16.4242 43.2605 16.3215 43.2021 16.2195C42.1894 14.4599 40.9337 12.9118 39.2279 11.7732C38.9932 11.6147 38.7358 11.4934 38.4444 11.3561C38.3056 11.2907 38.1591 11.2216 38.0038 11.1432C37.788 11.3337 37.5939 11.5113 37.4121 11.6777C37.0442 12.0144 36.7269 12.3047 36.3835 12.5608ZM33.035 7.06598C31.9818 7.16948 31.0277 7.426 30.3031 8.20454L30.3076 8.20004C29.7045 8.85258 29.6955 9.68513 30.249 10.3332C31.0592 11.2782 33.0395 11.8002 34.1962 11.3682C35.1728 11.0037 35.7354 10.0992 35.6679 9.00559C35.6094 8.11004 35.1323 7.58351 34.0521 7.27299C33.8131 7.20379 33.5674 7.16097 33.332 7.11995C33.2307 7.10229 33.1312 7.08494 33.035 7.06598Z" stroke="#078715FF" stroke-width="2"></path>
  <path fill-rule="evenodd" clip-rule="evenodd" d="M10.8374 82.5308C10.7878 84.1599 12.4711 85.8295 14.1859 85.8475C16.0402 85.8655 17.6109 84.3039 17.6244 82.4228C17.7639 80.7712 16.3282 79.2591 14.1004 79.0701C12.5971 78.9441 10.8914 80.8477 10.8374 82.5263V82.5308ZM15.2795 82.5758C15.23 83.0573 14.744 83.4939 14.2579 83.4939C13.6638 83.4939 13.2137 82.9673 13.2722 82.3508C13.3217 81.8153 13.7493 81.4283 14.2669 81.4417C14.843 81.4598 15.3381 82.0178 15.2795 82.5758Z" stroke="#078715FF" stroke-width="2"></path>
  <path d="M66.2277 69.7546C66.6868 69.3316 67.7039 69.6376 67.7804 70.2631L67.7714 70.2586C67.8243 70.6875 67.8127 71.1249 67.8005 71.5872C67.7951 71.7942 67.7895 72.0067 67.7895 72.2253C67.9322 72.2884 68.0737 72.349 68.2138 72.409L68.2146 72.4094C68.5336 72.5461 68.8455 72.6797 69.1487 72.8328C69.5717 73.0488 69.8328 73.4673 69.6753 73.8813C69.5657 74.1661 69.2902 74.3976 69.0267 74.619C68.9655 74.6705 68.9049 74.7215 68.8471 74.7724C68.7616 74.8489 68.5681 74.8444 68.4331 74.8219C67.6364 74.6779 67.1504 74.9884 66.6463 75.6455C65.9037 76.6175 65.1025 76.325 64.747 75.0559C64.71 74.9281 64.6875 74.7967 64.66 74.6368C64.6439 74.5434 64.6262 74.4402 64.6029 74.3224C64.4799 74.2621 64.3518 74.2018 64.2208 74.1401C63.8726 73.9762 63.5036 73.8026 63.1537 73.5933C62.9197 73.4538 62.7307 73.2153 62.5821 72.9858C62.3526 72.6303 62.5686 72.0317 62.9467 71.9102L62.9737 71.9016L63.0109 71.8896L63.0115 71.8894C63.192 71.8309 63.3871 71.7677 63.5678 71.7797C64.729 71.8607 65.4761 71.3702 65.8271 70.2496C65.8801 70.0785 66.04 69.9296 66.1834 69.796C66.1984 69.7821 66.2132 69.7682 66.2277 69.7546Z" stroke="#078715FF" stroke-width="2"></path>
  <path d="M93.466 112.62C93.3177 112.667 93.1926 112.807 93.0722 112.942C93.0428 112.975 93.0135 113.007 92.9845 113.038L92.89 113.136C91.1259 114.967 89.3606 116.799 87.0435 117.966C86.9949 117.99 86.9517 118.028 86.9097 118.064L86.8947 118.077L86.8859 118.085L86.8725 118.096C86.5214 118.393 86.2244 118.794 86.4539 119.208C86.5725 119.424 86.8104 119.576 87.0702 119.742C87.1949 119.822 87.3246 119.905 87.4486 120C87.6698 119.91 87.8885 119.829 88.1029 119.749C88.5865 119.569 89.0485 119.397 89.4694 119.154C91.5577 117.943 93.1195 116.148 94.6542 114.339C94.8298 114.136 94.9198 113.835 94.9738 113.56C95.0638 113.101 94.9288 112.647 94.4652 112.503C94.1682 112.408 93.7856 112.516 93.466 112.615V112.62Z" stroke="#078715FF" stroke-width="2"></path>
  <path d="M68.8737 13.2584C68.5947 13.4429 68.2301 13.6634 67.9421 13.6184L67.9376 13.6274C67.6586 13.5824 67.303 13.2674 67.204 12.9884C67.0935 12.6754 67.0667 12.3311 67.0366 11.9439C67.0226 11.7633 67.0078 11.5731 66.9834 11.3728C67.0366 11.1146 67.089 10.8476 67.1426 10.5747C67.2844 9.85304 67.4344 9.08933 67.627 8.33511C67.7756 7.76358 68.2617 7.51606 68.7837 7.60607C69.2608 7.68257 69.7199 8.1506 69.6704 8.66813C69.5398 10.0182 69.3553 11.3638 69.1708 12.7049C69.1438 12.9029 69.0313 13.1549 68.8737 13.2584Z" stroke="#078715FF" stroke-width="2"></path>
  <path d="M73.2169 13.1324C72.9828 13.4969 72.6093 13.7489 72.1277 13.5689C71.6911 13.4069 71.3986 13.0469 71.4256 12.6014C71.4545 12.1534 71.5646 11.7113 71.6744 11.2703C71.7014 11.162 71.7284 11.0535 71.7541 10.9453L71.7626 10.9098C71.8903 10.3724 72.0189 9.83118 72.1907 9.30717C72.3932 8.68613 72.8973 8.36211 73.4779 8.42962C74.0135 8.48812 74.2925 8.94265 74.279 9.96871C74.1485 10.9273 73.8695 12.0928 73.2169 13.1324Z" stroke="#078715FF" stroke-width="2"></path>
</svg>
