<svg width="54" height="44" viewBox="0 0 54 44" fill="none" xmlns="http://www.w3.org/2000/svg">
<path d="M23.5373 15.3073C23.3016 11.9816 22.8494 8.77558 22.9034 5.57333C22.9591 2.32046 24.3994 0.322027 26.8491 0.927205C27.4693 1.08033 28.0893 1.42975 28.6078 1.82652C35.091 6.81793 41.5673 11.8281 48.0243 16.8567C49.6339 18.1121 51.3203 19.313 52.6908 20.8076C53.9226 22.1457 53.2919 23.0876 51.6521 23.9145C49.1607 25.1696 46.646 26.5632 44.5491 28.3757C39.0495 33.1296 33.8026 38.1893 28.3572 43.0083C27.6235 43.6557 26.1963 44.0969 25.3423 43.8285C24.5749 43.5883 23.7298 42.2754 23.6408 41.3607C23.2772 37.5433 23.1833 33.7031 22.9746 29.5424C18.2513 29.2623 13.6308 28.8968 9.00204 28.7844C7.98391 28.7576 6.98765 29.789 5.9101 30.0516C4.81985 30.3201 3.16845 30.735 2.61702 30.1979C1.80527 29.399 1.49385 27.8248 1.44733 26.5632C1.35938 24.2682 2.43258 22.0235 0.612108 19.7545C-0.847854 17.9341 2.2722 14.6478 5.22544 14.7628C10.9323 14.9799 16.6456 15.1909 22.3527 15.4018C22.7149 15.4135 23.0796 15.3494 23.5369 15.3199L23.5373 15.3073ZM7.71031 23.5185C10.9577 23.624 14.0712 23.6176 17.1642 23.8574C20.1947 24.0952 23.2213 24.4532 26.2103 25.0062C27.8383 25.3124 28.768 26.5204 28.7007 28.3988C28.6309 30.3532 28.7358 32.3195 28.7762 34.7333C34.0124 30.3887 38.8757 26.3613 43.8869 22.2057C38.6758 17.6989 33.7869 13.4749 28.4783 8.88888C28.908 10.8658 29.2035 12.3508 29.5495 13.8247C30.4832 17.7936 30.0556 19.6033 27.5614 20.5607C26.3332 21.0337 24.8686 21.0874 23.5336 20.9997C19.1981 20.7131 14.8756 20.2181 10.5405 19.9189C7.41547 19.7033 7.21158 20.0133 7.7101 23.5248L7.71031 23.5185Z" fill="#06D001"/>
</svg>
