<svg width="208" height="10" viewBox="0 0 208 10" fill="none" xmlns="http://www.w3.org/2000/svg">
<path d="M120.873 0C119.164 0 117.454 0.00484306 115.735 0.0338971C100.613 0.280863 74.7975 0.348659 59.6755 0.363188C38.1335 0.552039 27.2261 0.707 5.71413 0.953966C4.6749 0.958808 2.07211 1.67548 0.964689 2.39706C-0.472723 3.32196 0.0420272 3.11858 0.333378 4.1161C0.79957 5.68019 3.14023 5.67052 6.70466 6.15473C11.5705 6.8133 17.8254 5.7286 22.7009 5.53975C29.9658 5.25889 37.2013 6.41623 44.4468 6.08695C51.4494 5.77218 58.4713 6.53246 65.4933 6.29033C89.2012 5.49133 113.249 5.17656 136.762 4.87153C147.271 4.72626 149.282 4.43571 159.8 4.29044C161.208 4.26623 167.861 4.26623 169.279 4.24686C161.771 5.33156 151.068 5.94172 143.824 7.94651C143.668 7.98525 142.542 8.69225 143.29 8.95374C149.36 11.0263 159.966 9.52999 165.968 8.63898C179.371 6.69716 189.103 6.31461 204.245 5.4042C206.246 5.28798 208.431 4.30496 207.926 3.5447C207.246 2.50358 205.926 1.74817 203.595 1.50123C200.972 1.21068 196.971 1.68525 195.164 1.38501C190.862 0.673174 177.099 1.32206 172.641 1.29785C166.562 1.2688 163.017 1.37533 156.927 1.14774C144.981 0.682865 132.878 0.00968179 120.873 0Z" fill="#FFFD1E"/>
</svg>
