<svg width="473" height="11" viewBox="0 0 473 11" fill="none" xmlns="http://www.w3.org/2000/svg">
<path d="M274.87 0C270.983 0 267.096 0.00532737 263.187 0.0372868C228.799 0.30895 170.092 0.383525 135.704 0.399507C86.717 0.607243 61.9132 0.7777 12.9941 1.04936C10.6309 1.05469 4.71206 1.84303 2.19374 2.63676C-1.07499 3.65416 0.0955714 3.43044 0.758115 4.52771C1.81825 6.24821 7.14099 6.23757 15.2467 6.77021C26.3117 7.49463 40.5356 6.30146 51.6227 6.09372C68.1433 5.78478 84.5972 7.05785 101.074 6.69564C116.998 6.3494 132.966 7.18571 148.934 6.91936C202.847 6.04046 257.532 5.69422 311.003 5.35869C334.9 5.19888 339.472 4.87929 363.391 4.71948C366.593 4.69285 381.723 4.69285 384.947 4.67154C367.875 5.86472 343.535 6.5359 327.061 8.74116C326.707 8.78378 324.145 9.56147 325.846 9.84911C339.65 12.129 363.768 10.483 377.417 9.50287C407.896 7.36688 430.027 6.94607 464.462 5.94462C469.011 5.81677 473.981 4.73546 472.832 3.89917C471.286 2.75393 468.283 1.92299 462.982 1.65136C457.019 1.33175 447.919 1.85377 443.811 1.52352C434.027 0.740491 402.731 1.45427 392.593 1.42764C378.767 1.39567 370.706 1.51286 356.858 1.26251C329.692 0.751152 302.169 0.01065 274.87 0Z" fill="#87FF7E"/>
</svg>
