<?xml version="1.0" encoding="utf-8"?>
<!-- Generator: Adobe Illustrator 19.0.0, SVG Export Plug-In . SVG Version: 6.00 Build 0)  -->
<svg version="1.1" id="layer" xmlns="http://www.w3.org/2000/svg" xmlns:xlink="http://www.w3.org/1999/xlink" x="0px" y="0px"
	 viewBox="-153 -46 652 652" style="enable-background:new -153 -46 652 652;" xml:space="preserve">
<style type="text/css">
	.st0{fill:#D11E44;}
</style>
<path class="st0" d="M-95,123.1V146h18.8v19.3H-95v30.7c0,10.2,2.6,14.8,10.3,14.8c3.6,0,5.3-0.2,7.8-0.7l0.2,19.8
	c-3.3,1.2-9.7,2.2-16.9,2.2c-8.4,0-15.5-2.9-19.8-7.2c-4.8-5-7.2-13.1-7.2-25v-34.6h-11.2V146h11.2v-15.8L-95,123.1"/>
<path class="st0" d="M-59,107.9h26.2v48.2h0.3c2.8-3.8,6.2-6.7,10.3-8.8c4-2.1,8.8-3.3,13.6-3.3c16.7,0,29.5,11.5,29.5,37v49.1H-5.3
	v-46.3c0-11-3.8-18.6-13.6-18.6c-6.9,0-11.2,4.5-13.1,9.3c-0.7,1.5-0.9,3.8-0.9,5.7v49.9H-59V107.9"/>
<path class="st0" d="M56.4,196.3c0.9,11,11.5,16.2,23.8,16.2c9,0,16.2-1.2,23.3-3.6l3.4,17.7c-8.6,3.6-19.1,5.3-30.5,5.3
	c-28.6,0-45-16.5-45-43.1c0-21.4,13.4-45,42.5-45c27.2,0,37.6,21.2,37.6,42c0,4.5-0.5,8.4-0.9,10.5L56.4,196.3 M87.2,178.4
	c0-6.2-2.8-17.1-14.6-17.1c-11.2,0-15.7,10.2-16.4,17.1H87.2z"/>
<path class="st0" d="M-122.7,253H-95v50.9h0.4c2.9-4,6.5-7.1,10.9-9.3c4.2-2.2,9.3-3.4,14.4-3.4c17.6,0,31.1,12.2,31.1,39.1v51.8
	h-27.6v-48.9c0-11.6-4-19.6-14.4-19.6c-7.3,0-11.8,4.7-13.8,9.8c-0.7,1.7-0.9,4-0.9,6v52.7h-27.6V253"/>
<path class="st0" d="M26.3,384.1c-26,0-46-17.1-46-45.8s18.9-47.1,47.6-47.1c27.1,0,45.3,18.7,45.3,45.6c0,32.4-23.1,47.3-46.7,47.3
	H26.3 M26.8,364.3c10.9,0,17.6-10.7,17.6-26.7c0-13.1-5.1-26.6-17.6-26.6c-13.1,0-18.2,13.5-18.2,26.7c0,15.1,6.4,26.6,18,26.6H26.8
	z"/>
<path class="st0" d="M91.7,321.5c0-11.1-0.4-20.4-0.7-28.4h24l1.3,12.4h0.6c3.6-5.8,12.5-14.4,27.5-14.4c18.2,0,31.8,12.2,31.8,38.4
	v52.6h-27.6v-49.3c0-11.5-4-19.3-14-19.3c-7.6,0-12.2,5.3-14.2,10.4c-0.7,1.8-0.9,4.4-0.9,6.9v51.3H91.7V321.5"/>
<path class="st0" d="M220.1,346.3c0.9,11.6,12.2,17.1,25.1,17.1c9.5,0,17.1-1.3,24.5-3.8l3.6,18.7c-9.1,3.8-20.2,5.6-32.2,5.6
	c-30.2,0-47.5-17.5-47.5-45.5c0-22.5,14.2-47.5,44.9-47.5c28.7,0,39.6,22.4,39.6,44.4c0,4.7-0.5,8.9-0.9,11.1L220.1,346.3
	 M252.6,327.4c0-6.5-2.9-18-15.5-18c-11.8,0-16.6,10.7-17.3,18H252.6z"/>
<path class="st0" d="M298.8,358.1c5.1,3.1,15.6,6.5,23.8,6.5c8.4,0,11.8-2.7,11.8-7.3c0-4.7-2.7-6.9-12.9-10.4
	c-18.5-6-25.6-16.2-25.5-26.6c0-16.7,14.2-29.3,36.2-29.3c10.4,0,19.5,2.5,24.9,5.3l-4.7,18.9c-4-2-11.8-4.9-19.3-4.9
	c-6.7,0-10.5,2.7-10.5,7.1c0,4.4,3.4,6.5,14.4,10.4c16.9,5.6,23.8,14.4,24,27.3c0,16.7-12.9,28.9-38.4,28.9c-11.6,0-22-2.7-28.7-6.4
	L298.8,358.1"/>
<path class="st0" d="M413,269v24.2h19.8v20.4H413v32.4c0,10.7,2.7,15.6,10.9,15.6c3.8,0,5.6-0.2,8.2-0.7l0.2,20.9
	c-3.5,1.3-10.2,2.4-17.8,2.4c-8.9,0-16.4-3.1-20.9-7.6c-5.1-5.3-7.6-13.8-7.6-26.4v-36.6h-11.8v-20.4H386v-16.7L413,269"/>
<path class="st0" d="M475.1,209.3c-2.5-1.1-3.6-3.4-12.8,1.1c-9.2,4.5-20.1-5-20.1-5s0.8-12.8-5.8-27.9
	c-11.8-26.5-51.6-61.4-56.6-66.4c-5-5-9.8-10.9-12-13.7c-2.2-2.8,1.1-11.7-0.6-16.7c-1.7-5-1.1-14.5,1.7-19.3
	c2.8-4.7,1.4-8.6-1.1-11.7c-2.5-3.1-8.8-0.8-8.8-0.8l-4.3-3.9c-4.3-3.9-11-4.7-18.1-3.1c-7.1,1.6-17.7-12.6-17.7-12.6
	c-8.8,4.1-7.9,15.2-7.3,19.3c0.6,4.2,13.7,16.2,16.5,21c2.8,4.8,2.9,27,1.2,40.8c-0.7,5.3-6.2,15.6-2.2,30.1c0.5,1.9,1.2,3.6,2,5.1
	c3.3,7.4,7.3,10.8,8,16.7c1.5,12.6,4.7,22.1,5.6,27.2c0.8,5-1.4,28.8-2.8,31.3c-1.4,2.5-8.4,4.5-10.6,7c-1.5,1.7,1.7,2.9,4.9,3.2
	c1.5,1.5,7.1,2.3,9.4,1.1c2.9-1.5,3.2-1.6,6.6-1.1c3.4,0.6,3.1-1.4,2.8-4.5c-0.3-3.1,2.8-11.2,3.7-17.6c0.8-6.4,0.2-25,0.2-25
	c0.5-5.3,3.4-18.4,3.4-18.4s-0.2,6.6,4.4,12.6c5.9,7.7,16.4,9.9,17.9,15c2.8,9.2,2.4,11.2,6.6,18.7c4.2,7.5,16,6.2,17.6,11.4
	c0.1,0.1-0.2,0.1-0.3,0.2c-2.6,1.1-11-1.1-20.1-1.4c-9.5-0.2-11.2,3.8-11.1,6.6c0.1,2.8,6.6,3.4,11.1,2.1c5.5-1.6,14.9,0,21.7,1.3
	c6.9,1.3,14.4,2.2,15.9-1.3c1.8-4.3-10.6-10.6-5.8-8.7c4.7,2,7,3.1,12.5,1.1c5.6-2,9.2-10.6,9.2-10.6s9.5,5.9,18.7,7
	c9.2,1.1,21.2-9.8,21.2-9.8S477.6,210.5,475.1,209.3"/>
<path class="st0" d="M358.9,48.9c0,0-7.4,1.6-8.9,4.7c-1.5,3.1,3.2,2.3,6.8,2c3.5-0.3,8.9-0.5,9,2.1c0.1,2-3.9,7.4-7.6,5.6
	c0,0,3.1,8.7,9,2.6"/>
<path class="st0" d="M151.2,194.1c4.6-3.1,9.2-12.1,9.2-12.1h0c-0.8-2.2-1.4-4.5-1.5-6.9c-0.6-8.9-3.6-21.8-7.6-24.6
	c-4-2.8-19.3-26.4-5.8-46.3c13.4-19.9,40.1-12.1,36.1-9.7c-4,2.3-25.7,2.9-30.7,19.8c-5,16.9,9.9,29.4,15.9,31.7
	c6,2.4,16.8-1.5,25.7-2.5c8.9-1,23.1,0.1,33.2,1.5c10.1,1.4,23.6,7.3,34,8.3c10.4,1,19.9-5.8,22.2-6.7c4.1-1.6,10.2-13.5,10.2-13.5
	c7.2,6.2,4.1,11.3,3.7,13.6c-0.4,2.3,6.7,8.9,8.6,10.9c1.9,1.9,1.1,4.2,1.4,7c0.2,2.8,2.7,6.9,4,10c1.2,3-5.4,7-7.9,7.8
	c-2.6,0.9-5.1-1.5-6.8-2.2c-1.6-0.6-4.4,0.9-8.9,1.4c-4.5,0.5-9.2-2.9-9.2-2.9s2.7,4.5,4.6,8.7c1.9,4.2,2.5,11.4,2.1,15.1
	c-0.4,3.7,2.9,4.1,8,10.3c5.1,6.2,11.2,8.4,14.3,8.4c3.1-0.1,6.1,2.5,7.4,6.3c1.3,3.7-7.7,4-9.3,4.1c-1.5,0.1-5.2-0.1-6.3-1.6
	c-1.1-1.5-7.8-4.7-11.2-6.8c-3.5-2.2-14.3-10.3-15.9-12.1c-3.4-3.7-15.6-14.2-17.4-15.1c-1.8-0.9-1.8-0.8-6.6,0.6
	c0,0-6,10.5-5.3,18.3c0.7,7.7,1.5,7,1.5,7s6.5,3.4,5.6,6.4c-0.8,3-12.5,2.8-14.4-0.7c-2-3.5-5.6-11.2-5.3-16.8
	c0.3-5.5,1.1-10.4-0.3-13.9c-0.9-0.1-1.8-0.3-2.7-0.5c-7.2-1.4-22.1-0.9-23.4-0.9c-2.1,0-2.6,1.8-5,4.5c-2.4,2.7-9,5.9-12.1,7.7
	c-3.1,1.9-1.5,4,0.4,8.6c2,4.6,12.6,9.5,13.8,9.7c1.2,0.2,6.7,1.1,7.1,4.6c0.4,3.8-10.5,2.5-14,2.4c-3.4-0.1-16.5-14.7-20.6-18.2
	c-4.1-3.5,0.5-12.1,2-15.6c1.5-3.6-5.4-5.4-5.4-5.4c-3.8,4.3-10.8,5.2-8.2,17.1c0.8,3.4,2,8.5,3.9,11.3c1.9,2.8,7.5,2.4,8.7,5.3
	c1.3,2.9-2.5,4.1-5.1,4.3c-2.6,0.2-4.6,0.3-6.1-0.8c-1.5-1.1-4.5-7.3-8.3-12.4c-3.8-5.1-6.1-15-6.5-16
	C145.7,199.5,147.3,196.8,151.2,194.1"/>
<path class="st0" d="M442.2,422.8c6.9,0,12.5,5.7,12.5,12.7c0,7.2-5.5,12.8-12.5,12.8c-7,0-12.6-5.6-12.6-12.8
	C429.5,428.4,435.2,422.8,442.2,422.8L442.2,422.8 M442.1,424.8c-5.6,0-10.2,4.8-10.2,10.7c0,6,4.6,10.8,10.2,10.8
	c5.7,0.1,10.2-4.7,10.2-10.7S447.8,424.8,442.1,424.8L442.1,424.8z M439.8,442.9h-2.3v-14.2c1.2-0.2,2.3-0.3,4-0.3
	c2.1,0,3.6,0.5,4.4,1.1c0.8,0.6,1.3,1.6,1.3,2.9c0,1.9-1.2,3-2.8,3.4v0.1c1.2,0.2,2.1,1.4,2.4,3.4c0.3,2.2,0.7,3.1,0.9,3.5h-2.4
	c-0.4-0.5-0.7-1.7-1-3.6c-0.3-1.8-1.2-2.5-3-2.5h-1.6V442.9z M439.8,435.1h1.6c1.9,0,3.4-0.7,3.4-2.4c0-1.2-0.9-2.5-3.4-2.5
	c-0.7,0-1.2,0.1-1.6,0.1V435.1z"/>
<path class="st0" d="M-96.4,478.8h0.3c1.9-3.6,4-7.1,6-10.2l17.1-25.5h31.5l-30.1,34.1l34.5,50.1h-32.2l-20.5-34.6l-6.5,8.4v26.2
	h-26.2V405.1h26.2V478.8"/>
<path class="st0" d="M-14.2,432.1c-8.8,0-14.5-6.2-14.5-14c0-7.9,5.9-14,14.8-14c9,0,14.5,6,14.6,14c0,7.8-5.7,14-14.8,14H-14.2
	 M-27.1,443.1H-1v84.2h-26.2V443.1z"/>
<path class="st0" d="M52.1,420.2v22.9h18.8v19.3H52.1v30.7c0,10.2,2.6,14.8,10.3,14.8c3.6,0,5.3-0.2,7.8-0.7l0.2,19.8
	c-3.3,1.2-9.6,2.2-16.9,2.2c-8.4,0-15.5-2.9-19.8-7.2c-4.8-5-7.2-13.1-7.2-25v-34.6H15.3v-19.3h11.2v-15.9L52.1,420.2"/>
<path class="st0" d="M149,525.3c-4.6,2.2-13.4,4-23.4,4C98.4,529.3,81,512.6,81,486c0-24.6,16.9-44.8,48.2-44.8
	c6.9,0,14.5,1.2,20,3.3L145,464c-3.1-1.4-7.8-2.6-14.6-2.6c-13.8,0-22.7,9.8-22.6,23.6c0,15.5,10.3,23.8,23.1,23.8
	c6.2,0,11-1,15-2.8L149,525.3"/>
<path class="st0" d="M165.4,405.1h26.2v48.2h0.3c2.8-3.8,6.2-6.7,10.3-8.8c4-2.1,8.8-3.3,13.6-3.3c16.7,0,29.4,11.5,29.4,37v49.1
	h-26.2V481c0-11-3.8-18.6-13.6-18.6c-6.9,0-11.2,4.5-13.1,9.3c-0.7,1.5-0.9,3.8-0.9,5.7v50h-26.2V405.1"/>
<path class="st0" d="M283.6,493.4c0.9,11,11.5,16.2,23.8,16.2c9,0,16.2-1.2,23.3-3.6l3.4,17.7c-8.6,3.6-19.1,5.3-30.5,5.3
	c-28.6,0-45-16.5-45-43.1c0-21.4,13.4-45,42.5-45c27.2,0,37.6,21.2,37.6,42c0,4.5-0.5,8.4-0.9,10.5L283.6,493.4 M314.4,475.5
	c0-6.2-2.8-17.1-14.7-17.1c-11.2,0-15.7,10.2-16.4,17.1H314.4z"/>
<path class="st0" d="M352.3,470c0-10.5-0.3-19.3-0.7-26.9h22.7l1.2,11.7h0.5c3.4-5.5,11.9-13.6,26-13.6c17.2,0,30.1,11.5,30.1,36.4
	v49.8H406v-46.7c0-10.8-3.8-18.3-13.3-18.3c-7.2,0-11.5,5-13.4,9.8c-0.7,1.7-0.9,4.1-0.9,6.5v48.6h-26.2V470"/>
</svg>
