<svg width="921" height="24" viewBox="0 0 921 24" fill="none" xmlns="http://www.w3.org/2000/svg">
<path d="M154.565 0C148.573 0 145.753 5.80837 143.262 10.9407C140.701 16.2113 138.783 19.6687 135.481 19.6687C132.18 19.6687 130.254 16.2113 127.693 10.9407C125.202 5.80837 122.389 0 116.39 0C110.398 0 107.578 5.80837 105.094 10.9407C102.542 16.2113 100.615 19.6687 97.3215 19.6687C94.0199 19.6687 92.0939 16.2113 89.5412 10.9407C87.0498 5.80837 84.2297 0 78.2378 0C72.246 0 69.4259 5.80837 66.9421 10.9407C64.3894 16.2113 62.4634 19.6687 59.1694 19.6687C55.8678 19.6687 53.9494 16.2113 51.3967 10.9407C48.9053 5.80837 46.0852 0 40.0934 0C34.1015 0 31.289 5.80837 28.7976 10.9407C26.2449 16.2113 24.3266 19.6687 21.0326 19.6687C17.7309 19.6687 15.8126 16.2113 13.2523 10.9407C10.7685 5.80837 7.94835 0 1.95652 0C0.878907 0 0 0.875867 0 1.96687C0 3.05787 0.878907 3.93374 1.95652 3.93374C5.25814 3.93374 7.17651 7.39111 9.73681 12.6617C12.2206 17.7941 15.0407 23.6024 21.0326 23.6024C27.0244 23.6024 29.8369 17.7941 32.3283 12.6617C34.881 7.39111 36.7994 3.93374 40.0934 3.93374C43.3874 3.93374 45.3133 7.39111 47.866 12.6617C50.3574 17.7941 53.1776 23.6024 59.1694 23.6024C65.1612 23.6024 67.9814 17.7941 70.4652 12.6617C73.0178 7.39111 74.9362 3.93374 78.2378 3.93374C81.5394 3.93374 83.4655 7.39111 86.0181 12.6617C88.5019 17.7941 91.322 23.6024 97.3215 23.6024C103.313 23.6024 106.133 17.7941 108.617 12.6617C111.17 7.39111 113.096 3.93374 116.39 3.93374C119.692 3.93374 121.618 7.39111 124.17 12.6617C126.662 17.7941 129.482 23.6024 135.481 23.6024C141.473 23.6024 144.293 17.7941 146.785 12.6617C149.337 7.39111 151.263 3.93374 154.565 3.93374C155.643 3.93374 156.521 3.05787 156.521 1.96687C156.521 0.875867 155.643 0 154.565 0Z" fill="#87FF7E"/>
<path d="M307.36 0C301.368 0 298.548 5.80837 296.056 10.9407C293.496 16.2113 291.578 19.6687 288.276 19.6687C284.975 19.6687 283.049 16.2113 280.488 10.9407C277.997 5.80837 275.184 0 269.185 0C263.193 0 260.373 5.80837 257.889 10.9407C255.336 16.2113 253.41 19.6687 250.116 19.6687C246.815 19.6687 244.889 16.2113 242.336 10.9407C239.845 5.80837 237.025 0 231.033 0C225.041 0 222.221 5.80837 219.737 10.9407C217.184 16.2113 215.258 19.6687 211.964 19.6687C208.663 19.6687 206.744 16.2113 204.192 10.9407C201.7 5.80837 198.88 0 192.888 0C186.896 0 184.084 5.80837 181.593 10.9407C179.04 16.2113 177.121 19.6687 173.827 19.6687C170.526 19.6687 168.607 16.2113 166.047 10.9407C163.563 5.80837 160.743 0 154.751 0C153.674 0 152.795 0.875867 152.795 1.96687C152.795 3.05787 153.674 3.93374 154.751 3.93374C158.053 3.93374 159.971 7.39111 162.532 12.6617C165.016 17.7941 167.836 23.6024 173.827 23.6024C179.819 23.6024 182.632 17.7941 185.123 12.6617C187.676 7.39111 189.594 3.93374 192.888 3.93374C196.182 3.93374 198.108 7.39111 200.661 12.6617C203.152 17.7941 205.972 23.6024 211.964 23.6024C217.956 23.6024 220.776 17.7941 223.26 12.6617C225.813 7.39111 227.731 3.93374 231.033 3.93374C234.334 3.93374 236.26 7.39111 238.813 12.6617C241.297 17.7941 244.117 23.6024 250.116 23.6024C256.108 23.6024 258.928 17.7941 261.412 12.6617C263.965 7.39111 265.891 3.93374 269.185 3.93374C272.486 3.93374 274.412 7.39111 276.965 12.6617C279.457 17.7941 282.277 23.6024 288.276 23.6024C294.268 23.6024 297.088 17.7941 299.58 12.6617C302.132 7.39111 304.058 3.93374 307.36 3.93374C308.437 3.93374 309.316 3.05787 309.316 1.96687C309.316 0.875867 308.437 0 307.36 0Z" fill="#87FF7E"/>
<path d="M460.569 0C454.577 0 451.757 5.80837 449.265 10.9407C446.705 16.2113 444.787 19.6687 441.485 19.6687C438.184 19.6687 436.258 16.2113 433.697 10.9407C431.206 5.80837 428.393 0 422.394 0C416.402 0 413.582 5.80837 411.098 10.9407C408.545 16.2113 406.619 19.6687 403.325 19.6687C400.024 19.6687 398.098 16.2113 395.545 10.9407C393.054 5.80837 390.234 0 384.242 0C378.25 0 375.43 5.80837 372.946 10.9407C370.393 16.2113 368.467 19.6687 365.173 19.6687C361.872 19.6687 359.953 16.2113 357.401 10.9407C354.909 5.80837 352.089 0 346.097 0C340.105 0 337.293 5.80837 334.802 10.9407C332.249 16.2113 330.33 19.6687 327.036 19.6687C323.735 19.6687 321.816 16.2113 319.256 10.9407C316.772 5.80837 313.952 0 307.96 0C306.883 0 306.004 0.875867 306.004 1.96687C306.004 3.05787 306.883 3.93374 307.96 3.93374C311.262 3.93374 313.18 7.39111 315.741 12.6617C318.225 17.7941 321.045 23.6024 327.036 23.6024C333.028 23.6024 335.841 17.7941 338.332 12.6617C340.885 7.39111 342.803 3.93374 346.097 3.93374C349.391 3.93374 351.317 7.39111 353.87 12.6617C356.361 17.7941 359.181 23.6024 365.173 23.6024C371.165 23.6024 373.985 17.7941 376.469 12.6617C379.022 7.39111 380.94 3.93374 384.242 3.93374C387.543 3.93374 389.469 7.39111 392.022 12.6617C394.506 17.7941 397.326 23.6024 403.325 23.6024C409.317 23.6024 412.137 17.7941 414.621 12.6617C417.174 7.39111 419.1 3.93374 422.394 3.93374C425.695 3.93374 427.621 7.39111 430.174 12.6617C432.666 17.7941 435.486 23.6024 441.485 23.6024C447.477 23.6024 450.297 17.7941 452.789 12.6617C455.341 7.39111 457.267 3.93374 460.569 3.93374C461.646 3.93374 462.525 3.05787 462.525 1.96687C462.525 0.875867 461.646 0 460.569 0Z" fill="#87FF7E"/>
<path d="M613.04 0C607.048 0 604.228 5.80837 601.736 10.9407C599.176 16.2113 597.257 19.6687 593.956 19.6687C590.654 19.6687 588.728 16.2113 586.168 10.9407C583.677 5.80837 580.864 0 574.865 0C568.873 0 566.053 5.80837 563.569 10.9407C561.016 16.2113 559.09 19.6687 555.796 19.6687C552.494 19.6687 550.568 16.2113 548.016 10.9407C545.524 5.80837 542.704 0 536.712 0C530.721 0 527.9 5.80837 525.417 10.9407C522.864 16.2113 520.938 19.6687 517.644 19.6687C514.342 19.6687 512.424 16.2113 509.871 10.9407C507.38 5.80837 504.56 0 498.568 0C492.576 0 489.764 5.80837 487.272 10.9407C484.72 16.2113 482.801 19.6687 479.507 19.6687C476.206 19.6687 474.287 16.2113 471.727 10.9407C469.243 5.80837 466.423 0 460.431 0C459.354 0 458.475 0.875867 458.475 1.96687C458.475 3.05787 459.354 3.93374 460.431 3.93374C463.733 3.93374 465.651 7.39111 468.211 12.6617C470.695 17.7941 473.515 23.6024 479.507 23.6024C485.499 23.6024 488.312 17.7941 490.803 12.6617C493.356 7.39111 495.274 3.93374 498.568 3.93374C501.862 3.93374 503.788 7.39111 506.341 12.6617C508.832 17.7941 511.652 23.6024 517.644 23.6024C523.636 23.6024 526.456 17.7941 528.94 12.6617C531.492 7.39111 533.411 3.93374 536.712 3.93374C540.014 3.93374 541.94 7.39111 544.493 12.6617C546.977 17.7941 549.797 23.6024 555.796 23.6024C561.788 23.6024 564.608 17.7941 567.092 12.6617C569.645 7.39111 571.571 3.93374 574.865 3.93374C578.166 3.93374 580.092 7.39111 582.645 12.6617C585.136 17.7941 587.956 23.6024 593.956 23.6024C599.948 23.6024 602.768 17.7941 605.259 12.6617C607.812 7.39111 609.738 3.93374 613.04 3.93374C614.117 3.93374 614.996 3.05787 614.996 1.96687C614.996 0.875867 614.117 0 613.04 0Z" fill="#87FF7E"/>
<path d="M765.834 0C759.843 0 757.022 5.80837 754.531 10.9407C751.971 16.2113 750.052 19.6687 746.751 19.6687C743.449 19.6687 741.523 16.2113 738.963 10.9407C736.471 5.80837 733.659 0 727.659 0C721.668 0 718.848 5.80837 716.364 10.9407C713.811 16.2113 711.885 19.6687 708.591 19.6687C705.289 19.6687 703.363 16.2113 700.811 10.9407C698.319 5.80837 695.499 0 689.507 0C683.516 0 680.695 5.80837 678.212 10.9407C675.659 16.2113 673.733 19.6687 670.439 19.6687C667.137 19.6687 665.219 16.2113 662.666 10.9407C660.175 5.80837 657.355 0 651.363 0C645.371 0 642.559 5.80837 640.067 10.9407C637.514 16.2113 635.596 19.6687 632.302 19.6687C629 19.6687 627.082 16.2113 624.522 10.9407C622.038 5.80837 619.218 0 613.226 0C612.148 0 611.27 0.875867 611.27 1.96687C611.27 3.05787 612.148 3.93374 613.226 3.93374C616.528 3.93374 618.446 7.39111 621.006 12.6617C623.49 17.7941 626.31 23.6024 632.302 23.6024C638.294 23.6024 641.106 17.7941 643.598 12.6617C646.151 7.39111 648.069 3.93374 651.363 3.93374C654.657 3.93374 656.583 7.39111 659.136 12.6617C661.627 17.7941 664.447 23.6024 670.439 23.6024C676.431 23.6024 679.251 17.7941 681.735 12.6617C684.287 7.39111 686.206 3.93374 689.507 3.93374C692.809 3.93374 694.735 7.39111 697.288 12.6617C699.771 17.7941 702.592 23.6024 708.591 23.6024C714.583 23.6024 717.403 17.7941 719.887 12.6617C722.439 7.39111 724.365 3.93374 727.659 3.93374C730.961 3.93374 732.887 7.39111 735.44 12.6617C737.931 17.7941 740.751 23.6024 746.751 23.6024C752.743 23.6024 755.563 17.7941 758.054 12.6617C760.607 7.39111 762.533 3.93374 765.834 3.93374C766.912 3.93374 767.791 3.05787 767.791 1.96687C767.791 0.875867 766.912 0 765.834 0Z" fill="#87FF7E"/>
<path d="M919.043 0C913.052 0 910.231 5.80837 907.74 10.9407C905.18 16.2113 903.261 19.6687 899.96 19.6687C896.658 19.6687 894.732 16.2113 892.172 10.9407C889.68 5.80837 886.868 0 880.868 0C874.877 0 872.056 5.80837 869.573 10.9407C867.02 16.2113 865.094 19.6687 861.8 19.6687C858.498 19.6687 856.572 16.2113 854.02 10.9407C851.528 5.80837 848.708 0 842.716 0C836.725 0 833.904 5.80837 831.421 10.9407C828.868 16.2113 826.942 19.6687 823.648 19.6687C820.346 19.6687 818.428 16.2113 815.875 10.9407C813.384 5.80837 810.564 0 804.572 0C798.58 0 795.768 5.80837 793.276 10.9407C790.723 16.2113 788.805 19.6687 785.511 19.6687C782.209 19.6687 780.291 16.2113 777.731 10.9407C775.247 5.80837 772.427 0 766.435 0C765.357 0 764.479 0.875867 764.479 1.96687C764.479 3.05787 765.357 3.93374 766.435 3.93374C769.737 3.93374 771.655 7.39111 774.215 12.6617C776.699 17.7941 779.519 23.6024 785.511 23.6024C791.503 23.6024 794.315 17.7941 796.807 12.6617C799.36 7.39111 801.278 3.93374 804.572 3.93374C807.866 3.93374 809.792 7.39111 812.345 12.6617C814.836 17.7941 817.656 23.6024 823.648 23.6024C829.64 23.6024 832.46 17.7941 834.944 12.6617C837.496 7.39111 839.415 3.93374 842.716 3.93374C846.018 3.93374 847.944 7.39111 850.497 12.6617C852.98 17.7941 855.801 23.6024 861.8 23.6024C867.792 23.6024 870.612 17.7941 873.096 12.6617C875.648 7.39111 877.574 3.93374 880.868 3.93374C884.17 3.93374 886.096 7.39111 888.649 12.6617C891.14 17.7941 893.96 23.6024 899.96 23.6024C905.952 23.6024 908.772 17.7941 911.263 12.6617C913.816 7.39111 915.742 3.93374 919.043 3.93374C920.121 3.93374 921 3.05787 921 1.96687C921 0.875867 920.121 0 919.043 0Z" fill="#87FF7E"/>
</svg>
