<svg width="24" height="463" viewBox="0 0 24 463" fill="none" xmlns="http://www.w3.org/2000/svg">
<path d="M23.6016 154.565C23.6016 148.573 17.7932 145.753 12.6608 143.262C7.39021 140.701 3.93285 138.783 3.93285 135.481C3.93285 132.18 7.39021 130.254 12.6608 127.693C17.7932 125.202 23.6016 122.389 23.6016 116.39C23.6016 110.398 17.7932 107.578 12.6608 105.094C7.39022 102.541 3.93285 100.616 3.93285 97.3215C3.93285 94.0199 7.39022 92.0939 12.6608 89.5412C17.7932 87.0498 23.6016 84.2297 23.6016 78.2378C23.6016 72.246 17.7932 69.4259 12.6608 66.9421C7.39022 64.3894 3.93285 62.4634 3.93285 59.1694C3.93285 55.8678 7.39022 53.9494 12.6608 51.3967C17.7932 48.9053 23.6016 46.0852 23.6016 40.0934C23.6016 34.1015 17.7932 31.289 12.6608 28.7976C7.39022 26.2449 3.93285 24.3266 3.93285 21.0326C3.93285 17.7309 7.39022 15.8126 12.6608 13.2523C17.7932 10.7685 23.6016 7.94835 23.6016 1.95652C23.6016 0.878907 22.7257 -3.82854e-08 21.6347 -8.59747e-08C20.5437 -1.33664e-07 19.6678 0.878907 19.6678 1.95652C19.6678 5.25814 16.2105 7.17651 10.9398 9.73681C5.80748 12.2206 -0.000887575 15.0407 -0.000887836 21.0326C-0.000888098 27.0244 5.80748 29.8369 10.9398 32.3283C16.2105 34.881 19.6678 36.7994 19.6678 40.0934C19.6678 43.3874 16.2105 45.3133 10.9398 47.866C5.80748 50.3574 -0.000889242 53.1776 -0.000889503 59.1694C-0.000889765 65.1612 5.80748 67.9814 10.9398 70.4652C16.2105 73.0178 19.6678 74.9362 19.6678 78.2378C19.6678 81.5395 16.2105 83.4654 10.9398 86.0181C5.80748 88.5019 -0.000890909 91.322 -0.000891171 97.3215C-0.000891433 103.313 5.80748 106.133 10.9398 108.617C16.2105 111.17 19.6678 113.096 19.6678 116.39C19.6678 119.692 16.2105 121.618 10.9398 124.17C5.80747 126.662 -0.000892577 129.482 -0.000892839 135.481C-0.000893101 141.473 5.80747 144.293 10.9398 146.785C16.2104 149.337 19.6678 151.263 19.6678 154.565C19.6678 155.643 20.5437 156.521 21.6347 156.521C22.7257 156.521 23.6016 155.643 23.6016 154.565Z" fill="#87FF7E"/>
<path d="M23.6016 307.36C23.6016 301.368 17.7932 298.548 12.6608 296.056C7.39021 293.496 3.93285 291.578 3.93285 288.276C3.93285 284.975 7.39021 283.049 12.6608 280.488C17.7932 277.997 23.6016 275.184 23.6016 269.185C23.6016 263.193 17.7932 260.373 12.6608 257.889C7.39022 255.336 3.93285 253.41 3.93285 250.116C3.93285 246.815 7.39022 244.889 12.6608 242.336C17.7932 239.845 23.6016 237.025 23.6016 231.033C23.6016 225.041 17.7932 222.221 12.6608 219.737C7.39022 217.184 3.93285 215.258 3.93285 211.964C3.93285 208.663 7.39022 206.744 12.6608 204.192C17.7932 201.7 23.6016 198.88 23.6016 192.888C23.6016 186.896 17.7932 184.084 12.6608 181.593C7.39022 179.04 3.93285 177.121 3.93285 173.827C3.93285 170.526 7.39022 168.607 12.6608 166.047C17.7932 163.563 23.6016 160.743 23.6016 154.751C23.6016 153.674 22.7257 152.795 21.6347 152.795C20.5437 152.795 19.6678 153.674 19.6678 154.751C19.6678 158.053 16.2105 159.971 10.9398 162.532C5.80748 165.016 -0.000887575 167.836 -0.000887836 173.827C-0.000888098 179.819 5.80748 182.632 10.9398 185.123C16.2105 187.676 19.6678 189.594 19.6678 192.888C19.6678 196.182 16.2105 198.108 10.9398 200.661C5.80748 203.152 -0.000889242 205.972 -0.000889503 211.964C-0.000889765 217.956 5.80748 220.776 10.9398 223.26C16.2105 225.813 19.6678 227.731 19.6678 231.033C19.6678 234.334 16.2105 236.26 10.9398 238.813C5.80748 241.297 -0.000890909 244.117 -0.000891171 250.116C-0.000891433 256.108 5.80748 258.928 10.9398 261.412C16.2105 263.965 19.6678 265.891 19.6678 269.185C19.6678 272.486 16.2105 274.412 10.9398 276.965C5.80747 279.457 -0.000892577 282.277 -0.000892839 288.276C-0.000893101 294.268 5.80747 297.088 10.9398 299.58C16.2104 302.132 19.6678 304.058 19.6678 307.36C19.6678 308.437 20.5437 309.316 21.6347 309.316C22.7257 309.316 23.6016 308.437 23.6016 307.36Z" fill="#87FF7E"/>
<path d="M23.6016 460.569C23.6016 454.577 17.7932 451.757 12.6608 449.265C7.39021 446.705 3.93285 444.787 3.93285 441.485C3.93285 438.184 7.39021 436.258 12.6608 433.697C17.7932 431.206 23.6016 428.393 23.6016 422.394C23.6016 416.402 17.7932 413.582 12.6608 411.098C7.39022 408.545 3.93285 406.619 3.93285 403.325C3.93285 400.024 7.39022 398.098 12.6608 395.545C17.7932 393.054 23.6016 390.234 23.6016 384.242C23.6016 378.25 17.7932 375.43 12.6608 372.946C7.39022 370.393 3.93285 368.467 3.93285 365.173C3.93285 361.872 7.39022 359.953 12.6608 357.401C17.7932 354.909 23.6016 352.089 23.6016 346.097C23.6016 340.105 17.7932 337.293 12.6608 334.802C7.39022 332.249 3.93285 330.33 3.93285 327.036C3.93285 323.735 7.39022 321.816 12.6608 319.256C17.7932 316.772 23.6016 313.952 23.6016 307.96C23.6016 306.883 22.7257 306.004 21.6347 306.004C20.5437 306.004 19.6678 306.883 19.6678 307.96C19.6678 311.262 16.2105 313.18 10.9398 315.741C5.80748 318.225 -0.000887575 321.045 -0.000887836 327.036C-0.000888098 333.028 5.80748 335.841 10.9398 338.332C16.2105 340.885 19.6678 342.803 19.6678 346.097C19.6678 349.391 16.2105 351.317 10.9398 353.87C5.80748 356.361 -0.000889242 359.181 -0.000889503 365.173C-0.000889765 371.165 5.80748 373.985 10.9398 376.469C16.2105 379.022 19.6678 380.94 19.6678 384.242C19.6678 387.543 16.2105 389.469 10.9398 392.022C5.80748 394.506 -0.000890909 397.326 -0.000891171 403.325C-0.000891433 409.317 5.80748 412.137 10.9398 414.621C16.2105 417.174 19.6678 419.1 19.6678 422.394C19.6678 425.695 16.2105 427.621 10.9398 430.174C5.80747 432.666 -0.000892577 435.486 -0.000892839 441.485C-0.000893101 447.477 5.80747 450.297 10.9398 452.789C16.2104 455.341 19.6678 457.267 19.6678 460.569C19.6678 461.646 20.5437 462.525 21.6347 462.525C22.7257 462.525 23.6016 461.646 23.6016 460.569Z" fill="#87FF7E"/>
</svg>
